<svg width="37" height="36" viewBox="0 0 37 36" fill="none" xmlns="http://www.w3.org/2000/svg">
<g clip-path="url(#clip0_1016_79956)">
<path d="M6.98438 4.5H30.9844C31.3822 4.5 31.7637 4.65804 32.045 4.93934C32.3263 5.22064 32.4844 5.60218 32.4844 6V30C32.4844 30.3978 32.3263 30.7794 32.045 31.0607C31.7637 31.342 31.3822 31.5 30.9844 31.5H6.98438C6.58655 31.5 6.20502 31.342 5.92371 31.0607C5.64241 30.7794 5.48438 30.3978 5.48438 30V6C5.48438 5.60218 5.64241 5.22064 5.92371 4.93934C6.20502 4.65804 6.58655 4.5 6.98438 4.5ZM8.48438 7.5V28.5H29.4844V7.5H8.48438ZM17.4844 12.837V7.30487H20.4844V12.837H30.1767V15.837H20.4844V18.4848H17.4844V15.837H6.86899V12.837H17.4844Z" fill="black"/>
</g>
<defs>
<clipPath id="clip0_1016_79956">
<rect width="36" height="36" fill="white" transform="translate(0.984375)"/>
</clipPath>
</defs>
</svg>
