<svg width="150" height="55" viewBox="0 0 150 55" fill="none" xmlns="http://www.w3.org/2000/svg">
<path d="M150 0H0V55H150V0Z" fill="white"/>
<path d="M86.0976 29.475C86.3232 30.1147 86.7428 30.668 87.2978 31.058C87.8338 31.4417 88.418 31.7527 89.0356 31.983C89.4527 32.1361 89.8532 32.3315 90.2306 32.566C90.4889 32.7094 90.7079 32.9141 90.8683 33.1621C91.0288 33.4101 91.1256 33.6937 91.1506 33.988C91.1846 34.2487 91.1556 34.5138 91.0658 34.7609C90.976 35.0081 90.8282 35.23 90.6347 35.408C90.3512 35.6551 90.0053 35.8194 89.6347 35.883C89.2049 35.9527 88.7678 35.9658 88.3346 35.922C87.871 35.8839 87.416 35.7757 86.9848 35.601C86.7258 35.501 86.4756 35.375 86.1906 35.244C86.1516 35.356 86.1106 35.455 86.0846 35.558C85.9926 35.904 85.9017 36.2504 85.8117 36.597C85.7667 36.767 85.7797 36.81 85.9347 36.885C86.1667 36.997 86.3977 37.109 86.6347 37.197C87.0283 37.3513 87.443 37.445 87.8647 37.475C88.2647 37.497 88.6646 37.501 89.0646 37.501C89.4298 37.5021 89.7939 37.4632 90.1506 37.385C90.7989 37.254 91.4047 36.9636 91.9128 36.54C92.3729 36.1463 92.7091 35.6277 92.8808 35.047C93.0028 34.6033 93.0437 34.1413 93.0016 33.683C92.9739 33.2168 92.837 32.7635 92.6017 32.36C92.2756 31.842 91.8269 31.412 91.2956 31.108C90.7496 30.7932 90.1815 30.5185 89.5956 30.286C89.1915 30.1201 88.8099 29.9041 88.4596 29.643C88.2365 29.4842 88.06 29.2686 87.9482 29.0186C87.8363 28.7686 87.7934 28.4932 87.8236 28.221C87.8425 28.0207 87.9032 27.8265 88.0019 27.6511C88.1006 27.4758 88.2351 27.3231 88.3966 27.203C88.7624 26.9306 89.2077 26.7862 89.6637 26.792C90.4549 26.7416 91.2453 26.9002 91.9557 27.252C92.0697 27.31 92.0996 27.301 92.1486 27.179C92.1976 27.057 92.2326 26.921 92.2726 26.792C92.3616 26.512 92.4538 26.233 92.5378 25.953C92.5768 25.822 92.5488 25.777 92.4218 25.721C92.3288 25.682 92.2386 25.637 92.1466 25.603C91.609 25.4029 91.0436 25.2869 90.4706 25.259C89.6193 25.1778 88.761 25.298 87.9648 25.61C87.6087 25.7611 87.2787 25.9673 86.9867 26.221C86.395 26.7448 86.0291 27.4773 85.9657 28.265C85.9219 28.6732 85.9668 29.0859 86.0976 29.475Z" fill="#727272"/>
<path d="M88.1424 21.6505C88.2821 21.9305 88.4888 22.1717 88.7442 22.3526C88.9996 22.5335 89.2957 22.6486 89.6063 22.6875C90.1251 22.7772 90.6581 22.738 91.1583 22.5735C91.5583 22.4465 91.4822 22.5085 91.4312 22.1325C91.4248 22.083 91.4141 22.0341 91.3992 21.9865C91.3542 21.8405 91.2994 21.7925 91.1644 21.8505C90.9064 21.9375 90.6366 21.9847 90.3643 21.9905C90.0498 22.0359 89.7289 21.981 89.4473 21.8335C89.2597 21.7338 89.1017 21.5862 88.9898 21.4056C88.8779 21.225 88.816 21.0179 88.8104 20.8055C88.8073 20.7894 88.8079 20.7729 88.8118 20.7571C88.8158 20.7413 88.823 20.7265 88.8333 20.7138C88.8436 20.7012 88.8567 20.6909 88.8714 20.6838C88.8861 20.6766 88.902 20.6728 88.9183 20.6725C88.9751 20.6661 89.0324 20.6641 89.0894 20.6665H90.2484C90.6644 20.6665 91.0804 20.6665 91.4954 20.6665C91.6954 20.6665 91.7263 20.6445 91.7403 20.4535C91.7912 19.9299 91.6817 19.4033 91.4263 18.9435C91.247 18.6306 90.964 18.3901 90.6263 18.2635C90.328 18.1597 90.0099 18.1255 89.6964 18.1635C89.4457 18.1798 89.2015 18.2504 88.9808 18.3704C88.7601 18.4904 88.5682 18.6569 88.4183 18.8585C88.0129 19.3962 87.8302 20.0695 87.9083 20.7385C87.9272 21.0546 88.0068 21.3642 88.1424 21.6505ZM88.8424 19.7685C88.8642 19.5741 88.9364 19.3889 89.0518 19.231C89.1672 19.0732 89.3218 18.9482 89.5003 18.8685C89.6205 18.8092 89.7525 18.7772 89.8865 18.775C90.0206 18.7727 90.1533 18.8001 90.2755 18.8553C90.3976 18.9104 90.5062 18.992 90.5931 19.094C90.68 19.196 90.7433 19.3161 90.7784 19.4455C90.8135 19.5472 90.8373 19.6525 90.8494 19.7595C90.8734 19.9275 90.8283 19.9855 90.6553 19.9895C90.3753 19.9955 90.0964 19.9895 89.8194 19.9895C89.5544 19.9895 89.2902 19.9895 89.0252 19.9895C88.8362 19.9905 88.8044 19.9515 88.8394 19.7685H88.8424Z" fill="#727272"/>
<path d="M85.627 19.4279V22.4779C85.627 22.5829 85.6718 22.6409 85.7788 22.6409C85.9948 22.6409 86.2098 22.6409 86.4248 22.6409C86.4465 22.6433 86.4685 22.6407 86.489 22.6333C86.5095 22.6258 86.5279 22.6137 86.543 22.5979C86.558 22.5821 86.569 22.5631 86.5754 22.5422C86.5819 22.5214 86.5834 22.4994 86.5798 22.4779V16.3519C86.5822 16.332 86.5802 16.3119 86.5737 16.293C86.5673 16.2741 86.5565 16.2569 86.5425 16.2427C86.5285 16.2285 86.5115 16.2176 86.4927 16.2109C86.4739 16.2042 86.4537 16.2018 86.4338 16.2039C86.2128 16.2039 85.9908 16.2039 85.7668 16.2039C85.6668 16.2039 85.627 16.2619 85.625 16.3549V16.4839C85.6263 17.4665 85.627 18.4479 85.627 19.4279Z" fill="#727272"/>
<path d="M66.8018 40.6787C66.8018 40.6297 66.8018 40.5787 66.8018 40.5277V36.6617C66.8059 36.5853 66.814 36.5092 66.8258 36.4337C66.8798 36.4337 66.8877 36.4337 66.8927 36.4407C66.9247 36.4767 66.9567 36.5137 66.9867 36.5547C67.334 37.0282 67.8472 37.3532 68.4237 37.4647C68.8803 37.5584 69.3498 37.5716 69.8108 37.5037C70.6219 37.3932 71.3636 36.9873 71.8938 36.3637C72.4245 35.7566 72.774 35.0127 72.9027 34.2167C73.05 33.3972 73.05 32.5581 72.9027 31.7387C72.8071 31.1656 72.594 30.6185 72.2768 30.1317C71.9484 29.5916 71.4697 29.1589 70.8992 28.8868C70.3287 28.6147 69.6911 28.5149 69.0647 28.5997C68.7154 28.6374 68.3739 28.7282 68.0518 28.8687C67.5541 29.0951 67.1267 29.4516 66.8147 29.9007C66.767 29.958 66.7153 30.0119 66.6598 30.0617L66.6098 30.0447C66.6018 29.9717 66.5888 29.8987 66.5818 29.8257C66.5558 29.5327 66.5388 29.2407 66.5088 28.9477C66.4918 28.7867 66.4568 28.7477 66.3388 28.7477C65.9088 28.7477 65.4787 28.7477 65.0487 28.7477C65.0274 28.7452 65.0057 28.7477 64.9854 28.7549C64.9651 28.762 64.9467 28.7737 64.9316 28.789C64.9164 28.8043 64.905 28.8229 64.8981 28.8432C64.8912 28.8636 64.889 28.8853 64.8918 28.9067C64.8918 28.9437 64.8918 28.9777 64.8918 29.0147C64.9068 29.9247 64.9348 30.8347 64.9368 31.7447C64.9438 34.6767 64.9368 37.6087 64.9368 40.5447C64.9368 40.5877 64.9368 40.6307 64.9368 40.6737C64.9478 40.8177 64.9728 40.8547 65.1198 40.8547C65.3048 40.8547 65.4878 40.8547 65.6728 40.8547H66.1458C66.3048 40.8547 66.4648 40.8547 66.6238 40.8547C66.7718 40.8437 66.7938 40.8157 66.8018 40.6787ZM66.8147 32.2357C66.8262 31.9269 66.8991 31.6234 67.0291 31.3431C67.1591 31.0627 67.3436 30.811 67.5718 30.6027C67.8442 30.3376 68.1892 30.1592 68.563 30.0903C68.9369 30.0214 69.3228 30.0651 69.6718 30.2157C69.9569 30.3339 70.2131 30.5124 70.4228 30.7388C70.6325 30.9653 70.7907 31.2344 70.8868 31.5277C71.1417 32.2549 71.2085 33.0347 71.0808 33.7947C71.0199 34.3685 70.7942 34.9124 70.4308 35.3607C70.1237 35.7355 69.6824 35.9755 69.2008 36.0297C68.8173 36.0884 68.425 36.0459 68.0628 35.9067C67.8291 35.8133 67.6195 35.6684 67.4497 35.4827C67.0489 35.0739 66.8214 34.5261 66.8147 33.9537C66.8147 33.6807 66.8147 33.4097 66.8147 33.1367C66.8107 32.8377 66.7937 32.5347 66.8147 32.2347V32.2357Z" fill="#727272"/>
<path d="M120.313 29.6037C119.951 29.1829 119.477 28.8739 118.946 28.7128C118.504 28.587 118.043 28.5376 117.584 28.5667C117.07 28.5754 116.564 28.6962 116.101 28.9208C115.638 29.1453 115.23 29.4681 114.905 29.8667C114.298 30.5909 113.928 31.4837 113.845 32.4247C113.74 33.2295 113.807 34.0475 114.041 34.8248C114.232 35.4195 114.56 35.9611 114.999 36.4057C115.591 36.9881 116.362 37.3553 117.188 37.4487C117.828 37.5315 118.478 37.5271 119.117 37.4357C119.486 37.3862 119.851 37.3137 120.21 37.2187C120.426 37.1805 120.631 37.0952 120.811 36.9687C120.77 36.533 120.667 36.1054 120.502 35.6998C120.016 35.8795 119.509 35.9974 118.993 36.0507C118.602 36.0989 118.207 36.102 117.815 36.0597C117.443 36.0203 117.084 35.9045 116.759 35.7197C116.416 35.521 116.129 35.2377 115.927 34.8968C115.725 34.556 115.614 34.169 115.604 33.7728C115.58 33.4948 115.598 33.4847 115.882 33.4847H121.106C121.143 33.4881 121.179 33.477 121.207 33.454C121.235 33.431 121.253 33.3979 121.257 33.3617C121.276 33.2417 121.3 33.1207 121.308 33.0007C121.347 32.3922 121.288 31.7812 121.132 31.1917C120.985 30.6062 120.705 30.0627 120.313 29.6037ZM119.331 32.1447C118.959 32.1447 118.583 32.1447 118.211 32.1447H115.846C115.615 32.1447 115.582 32.1148 115.623 31.8978C115.669 31.4938 115.816 31.1079 116.05 30.7758C116.285 30.4437 116.599 30.1761 116.965 29.9977C117.274 29.8592 117.617 29.8137 117.952 29.8667C118.329 29.9294 118.677 30.1073 118.949 30.3759C119.22 30.6445 119.401 30.9907 119.468 31.3667C119.507 31.5482 119.535 31.7319 119.553 31.9167C119.566 32.1097 119.531 32.1427 119.331 32.1447Z" fill="#727272"/>
<path d="M118.226 22.4003C118.539 22.5902 118.895 22.6988 119.261 22.7163C119.77 22.7515 120.28 22.681 120.761 22.5093C120.861 22.4753 120.903 22.4163 120.877 22.3183C120.838 22.1613 120.794 22.0043 120.746 21.8233C120.646 21.8453 120.554 21.8603 120.468 21.8813C120.035 22.0165 119.575 22.0389 119.131 21.9463C118.882 21.8843 118.659 21.7453 118.493 21.5491C118.327 21.3528 118.228 21.1093 118.209 20.8533C118.188 20.7113 118.225 20.6793 118.373 20.6683C118.422 20.6683 118.473 20.6683 118.523 20.6683H121.106C121.212 20.0824 121.115 19.478 120.832 18.9543C120.644 18.6307 120.349 18.383 119.998 18.2543C119.482 18.0951 118.925 18.1307 118.434 18.3543C118.119 18.5289 117.852 18.7799 117.659 19.0843C117.466 19.3886 117.352 19.7366 117.328 20.0963C117.266 20.5096 117.297 20.9316 117.419 21.3313C117.549 21.7738 117.836 22.1538 118.226 22.4003ZM118.226 19.8003C118.257 19.62 118.327 19.4483 118.429 19.2963C118.531 19.1444 118.664 19.0156 118.819 18.9183C118.931 18.8512 119.057 18.809 119.187 18.7946C119.317 18.7801 119.449 18.7937 119.574 18.8344C119.698 18.8752 119.813 18.9421 119.909 19.0308C120.006 19.1194 120.082 19.2277 120.133 19.3483C120.188 19.4797 120.224 19.618 120.242 19.7593C120.265 19.9663 120.23 19.9983 120.023 20.0003C119.758 20.0003 119.494 20.0003 119.23 20.0003C118.95 20.0003 118.672 20.0003 118.392 20.0003C118.233 19.9883 118.186 19.9363 118.221 19.7943L118.226 19.8003Z" fill="#727272"/>
<path d="M80.2592 22.6381C80.3592 22.6381 80.4593 22.6381 80.5593 22.6381C80.9333 22.6381 80.9324 22.6381 80.9594 22.2591C80.9654 22.1771 80.9464 22.0851 81.0424 22.0181C81.0701 22.0399 81.0955 22.0643 81.1184 22.0911C81.3457 22.404 81.6797 22.623 82.0573 22.7066C82.435 22.7902 82.8302 22.7328 83.1684 22.5451C83.4374 22.4064 83.6712 22.2082 83.8523 21.9657C84.0333 21.7231 84.1568 21.4425 84.2133 21.1451C84.3544 20.5637 84.332 19.9546 84.1484 19.3851C84.0494 19.043 83.8466 18.7401 83.5681 18.5182C83.2895 18.2962 82.9488 18.1662 82.5932 18.1461C82.1896 18.1065 81.7868 18.228 81.4724 18.4841C81.3664 18.5791 81.2723 18.6841 81.1723 18.7841H81.1194C81.108 18.718 81.101 18.6512 81.0984 18.5841C81.0984 18.0741 81.0984 17.5671 81.0984 17.0571C81.0984 16.8271 81.0984 16.5991 81.0984 16.3691C81.0984 16.2311 81.0664 16.2081 80.9314 16.2031C80.7444 16.2031 80.5583 16.2031 80.3713 16.2031C80.2163 16.2031 80.1864 16.2401 80.1784 16.3941C80.1784 16.4431 80.1784 16.4941 80.1784 16.5451C80.1784 17.7071 80.1784 18.8681 80.1784 20.0281C80.1784 20.8281 80.1533 21.6181 80.1413 22.4141C80.1413 22.4421 80.1413 22.4721 80.1413 22.5001C80.1395 22.517 80.1412 22.5341 80.1462 22.5503C80.1512 22.5666 80.1596 22.5816 80.1706 22.5945C80.1817 22.6074 80.1952 22.618 80.2104 22.6255C80.2257 22.633 80.2423 22.6373 80.2592 22.6381ZM81.1074 19.9711C81.1204 19.7524 81.1958 19.542 81.3247 19.3648C81.4535 19.1876 81.6304 19.051 81.8344 18.9711C82.0735 18.8716 82.3418 18.8688 82.583 18.9631C82.8241 19.0575 83.0194 19.2418 83.1274 19.4771C83.3579 19.9198 83.4196 20.4312 83.3012 20.9161C83.2574 21.1642 83.1547 21.3982 83.0014 21.5981C82.8833 21.7425 82.7292 21.8533 82.5547 21.9191C82.3801 21.9849 82.1911 22.0036 82.007 21.9732C81.823 21.9427 81.6502 21.8643 81.5061 21.7458C81.362 21.6273 81.2516 21.4729 81.1862 21.2981C81.1031 21.0312 81.0746 20.7503 81.1023 20.4721C81.1043 20.2991 81.0944 20.1351 81.1074 19.9711Z" fill="#727272"/>
<path d="M108.361 18.8011C108.358 18.8206 108.359 18.8406 108.365 18.8595C108.371 18.8783 108.382 18.8955 108.395 18.9097C108.409 18.9239 108.426 18.9346 108.445 18.9411C108.463 18.9476 108.483 18.9497 108.503 18.9471C108.596 18.9471 108.69 18.9471 108.783 18.9471C108.983 18.9471 108.996 18.9641 109 19.1711V19.3001C109 19.8591 109 20.4161 109 20.9761C108.992 21.284 109.022 21.5917 109.09 21.8921C109.136 22.0722 109.223 22.2393 109.344 22.3801C109.545 22.5533 109.788 22.6691 110.049 22.7152C110.31 22.7614 110.579 22.7361 110.827 22.6421C110.866 22.6317 110.899 22.6075 110.921 22.5741C110.942 22.5407 110.951 22.5005 110.945 22.4611C110.937 22.3411 110.937 22.2181 110.925 22.0971C110.91 21.9511 110.889 21.9361 110.732 21.9401C110.661 21.9401 110.589 21.9461 110.517 21.9401C110.39 21.9455 110.266 21.9047 110.168 21.8251C110.069 21.7456 110.003 21.6329 109.982 21.5081C109.949 21.3619 109.929 21.2129 109.924 21.0631C109.918 20.4261 109.918 19.7871 109.924 19.1511C109.924 18.9811 109.956 18.9511 110.124 18.9441C110.346 18.9381 110.568 18.9441 110.791 18.9441C110.854 18.9441 110.914 18.9331 111 18.9251C111 18.7421 111 18.5811 111 18.4171C111 18.2381 110.976 18.2171 110.8 18.2171C110.592 18.2171 110.386 18.2171 110.177 18.2171C109.968 18.2171 109.932 18.1721 109.927 17.9611C109.927 17.9031 109.927 17.8471 109.927 17.7891V17.1641C109.87 17.1648 109.812 17.1705 109.756 17.1811C109.57 17.2371 109.39 17.3011 109.205 17.3601C109.02 17.4191 109.013 17.4161 109.005 17.6071C109.005 17.7581 109.005 17.9071 109.005 18.0591C108.999 18.1901 108.964 18.2181 108.831 18.2251C108.745 18.2251 108.658 18.2251 108.573 18.2251C108.412 18.2341 108.373 18.2701 108.373 18.4361C108.361 18.5561 108.368 18.6781 108.361 18.8011Z" fill="#727272"/>
<path d="M110.358 30.3802C110.348 30.2802 110.337 30.2102 110.332 30.1372C110.316 29.7432 110.308 29.3501 110.291 28.9541C110.282 28.7781 110.241 28.7431 110.065 28.7431H109.097H108.691C108.679 28.8287 108.673 28.9148 108.672 29.0011C108.686 29.7601 108.716 30.5202 108.719 31.2812C108.726 33.2102 108.719 35.1381 108.719 37.0681C108.719 37.3521 108.719 37.3521 109.008 37.3521H110.208C110.559 37.3521 110.559 37.4031 110.559 37.0031C110.559 35.6265 110.559 34.2498 110.559 32.8731C110.54 32.282 110.694 31.6982 111.002 31.1931C111.135 30.9705 111.317 30.7818 111.535 30.6418C111.754 30.5017 112.001 30.4142 112.259 30.3861C112.494 30.3666 112.73 30.3642 112.966 30.3791C113.139 30.3791 113.166 30.3681 113.166 30.1881C113.166 29.9081 113.166 29.6292 113.166 29.3492C113.166 29.1622 113.166 28.9771 113.166 28.7901C113.166 28.6291 113.129 28.5901 112.983 28.5821C112.495 28.5322 112.003 28.6416 111.583 28.8941C111.126 29.1804 110.766 29.5989 110.553 30.0941C110.527 30.2111 110.458 30.3137 110.358 30.3802Z" fill="#727272"/>
<path d="M100.998 19.1168C100.998 20.1778 100.998 21.2398 101.004 22.3008C101.004 22.3658 101.004 22.4298 101.004 22.4948C101.004 22.5868 101.047 22.6458 101.147 22.6458H101.771C101.871 22.6458 101.911 22.5878 101.915 22.4948C101.915 22.4368 101.915 22.3808 101.915 22.3228C101.915 21.6228 101.915 20.9228 101.915 20.2148C101.917 20.0364 101.939 19.8589 101.983 19.6858C102.028 19.4507 102.163 19.242 102.357 19.1024C102.552 18.9628 102.792 18.9029 103.03 18.9348C103.188 18.9445 103.34 19.0033 103.463 19.1032C103.586 19.203 103.675 19.3389 103.718 19.4918C103.783 19.7044 103.814 19.9257 103.811 20.1478C103.811 20.8638 103.811 21.5828 103.811 22.2988C103.811 22.3568 103.811 22.4128 103.811 22.4708C103.819 22.6218 103.842 22.6448 103.99 22.6498C104.156 22.6498 104.319 22.6498 104.485 22.6498C104.723 22.6498 104.745 22.6288 104.748 22.3938C104.748 21.6348 104.748 20.8728 104.748 20.1138C104.763 19.7695 104.714 19.4254 104.604 19.0988C104.495 18.7838 104.277 18.5179 103.99 18.3491C103.702 18.1803 103.364 18.1195 103.036 18.1778C102.843 18.1915 102.655 18.2442 102.483 18.3329C102.311 18.4216 102.159 18.5444 102.036 18.6938C101.986 18.7498 101.927 18.7988 101.872 18.8508L101.809 18.8268C101.802 18.6938 101.796 18.5598 101.786 18.4268C101.773 18.2458 101.755 18.2268 101.586 18.2268C101.457 18.2268 101.328 18.2268 101.198 18.2268C100.998 18.2268 100.97 18.2588 100.978 18.4718C100.986 18.6848 100.998 18.9018 100.998 19.1168Z" fill="#727272"/>
<path d="M77.3348 19.7944C77.2298 19.8094 77.1218 19.8164 77.0138 19.8264C76.6005 19.8488 76.1944 19.9436 75.8138 20.1064C75.5243 20.2208 75.2805 20.4278 75.121 20.6952C74.9614 20.9626 74.895 21.2752 74.9318 21.5844C74.9452 21.8075 75.0202 22.0226 75.1481 22.206C75.276 22.3893 75.4521 22.5337 75.6569 22.6234C75.902 22.729 76.1718 22.7637 76.4357 22.7234C76.783 22.7087 77.111 22.5591 77.3497 22.3064C77.3717 22.2777 77.3962 22.2509 77.4227 22.2264C77.4358 22.2146 77.4519 22.2064 77.4691 22.2027C77.4864 22.1991 77.5041 22.2 77.5209 22.2055C77.5376 22.211 77.5526 22.2208 77.5643 22.234C77.5761 22.2471 77.5842 22.2631 77.5878 22.2804C77.605 22.357 77.618 22.4344 77.6268 22.5124C77.6271 22.5305 77.631 22.5483 77.6383 22.5648C77.6457 22.5813 77.6563 22.5962 77.6696 22.6084C77.6829 22.6207 77.6984 22.6301 77.7155 22.6361C77.7325 22.6421 77.7506 22.6446 77.7687 22.6434C77.9477 22.6434 78.1288 22.6434 78.3068 22.6434C78.4358 22.6374 78.4577 22.5964 78.4467 22.4584C78.4357 22.3204 78.4167 22.1584 78.4157 22.0084C78.4157 21.3084 78.4088 20.6084 78.4088 19.9004C78.4067 19.6636 78.373 19.4282 78.3087 19.2004C78.2415 18.9259 78.0892 18.6797 77.8737 18.4969C77.6582 18.314 77.3905 18.204 77.1088 18.1824C76.8098 18.1456 76.5074 18.1477 76.2089 18.1884C75.9347 18.2396 75.6666 18.319 75.4088 18.4254C75.2608 18.4794 75.2338 18.5484 75.2748 18.6964C75.3118 18.8254 75.3628 18.9504 75.4188 19.1034C75.4822 19.0833 75.5443 19.0596 75.6049 19.0324C75.9544 18.8615 76.3448 18.7922 76.7318 18.8324C76.9317 18.842 77.1199 18.9287 77.257 19.0744C77.3941 19.2201 77.4692 19.4133 77.4667 19.6134C77.4715 19.6341 77.4719 19.6556 77.4677 19.6764C77.4634 19.6972 77.4548 19.7169 77.4423 19.7341C77.4297 19.7513 77.4137 19.7655 77.3951 19.7759C77.3766 19.7863 77.356 19.7926 77.3348 19.7944ZM77.5048 20.6394C77.5048 20.7254 77.5048 20.8114 77.5048 20.9394C77.5207 21.1324 77.4881 21.3263 77.4098 21.5034C77.3012 21.7099 77.1231 21.8715 76.9071 21.9597C76.6911 22.0478 76.4507 22.0569 76.2286 21.9854C76.0958 21.9142 75.989 21.8029 75.9235 21.6672C75.8579 21.5316 75.8369 21.3786 75.8637 21.2304C75.8852 21.0766 75.9507 20.9323 76.0521 20.8147C76.1536 20.6971 76.2867 20.6112 76.4357 20.5674C76.7121 20.4655 77.0065 20.4216 77.3007 20.4384C77.4787 20.4464 77.4978 20.4674 77.5048 20.6394Z" fill="#727272"/>
<path d="M112.398 22.3874C112.398 22.6194 112.419 22.6414 112.658 22.6434C112.793 22.6434 112.931 22.6434 113.066 22.6434C113.346 22.6434 113.346 22.6434 113.346 22.3534C113.346 21.5534 113.346 20.7464 113.346 19.9444C113.345 19.8077 113.369 19.672 113.417 19.5443C113.486 19.3288 113.632 19.1466 113.828 19.0336C114.024 18.9206 114.255 18.8848 114.476 18.9333C114.602 18.9433 114.722 18.9864 114.825 19.0583C114.928 19.1301 115.011 19.2282 115.063 19.3424C115.181 19.6056 115.232 19.8938 115.211 20.1814C115.22 20.7984 115.211 21.4143 115.211 22.0313C115.211 22.1753 115.211 22.3173 115.211 22.4613C115.211 22.5613 115.245 22.6334 115.353 22.6374C115.583 22.6434 115.811 22.6464 116.041 22.6374C116.08 22.6374 116.131 22.5793 116.153 22.5373C116.167 22.4893 116.171 22.4389 116.164 22.3894C116.164 21.6084 116.17 20.8253 116.164 20.0443C116.154 19.7942 116.123 19.5454 116.071 19.3004C116.018 18.9829 115.854 18.6943 115.61 18.4848C115.365 18.2752 115.055 18.158 114.733 18.1534C114.5 18.1353 114.266 18.1756 114.052 18.2706C113.839 18.3656 113.652 18.5122 113.509 18.6973C113.486 18.7324 113.468 18.77 113.453 18.8093C113.318 18.7163 113.348 18.6224 113.348 18.5424C113.348 17.8544 113.348 17.1654 113.348 16.4774C113.348 16.4284 113.348 16.3774 113.348 16.3264C113.349 16.3099 113.347 16.2935 113.341 16.2781C113.335 16.2627 113.326 16.2487 113.315 16.2371C113.303 16.2255 113.289 16.2164 113.274 16.2106C113.258 16.2048 113.242 16.2023 113.225 16.2034C112.995 16.2034 112.767 16.2034 112.537 16.2034C112.443 16.2034 112.399 16.2684 112.399 16.3604V20.1464C112.399 20.8964 112.398 21.6434 112.398 22.3874Z" fill="#727272"/>
<path d="M93.6533 30.1476C93.9043 30.1476 94.1532 30.1476 94.4062 30.1476C94.7303 30.1476 94.7302 30.1476 94.7302 30.4616V34.4616C94.7204 34.9996 94.7902 35.536 94.9373 36.0536C95.0182 36.3363 95.1602 36.5978 95.3533 36.8196C95.5785 37.0618 95.856 37.2497 96.1646 37.3689C96.4731 37.4881 96.8047 37.5355 97.1343 37.5077C97.5355 37.5232 97.9366 37.476 98.3232 37.3676C98.5232 37.2986 98.5343 37.3186 98.5303 37.1156C98.5243 36.7646 98.5154 36.4156 98.5044 36.0616C98.498 36.0114 98.487 35.9619 98.4714 35.9137C98.4094 35.9137 98.3612 35.9136 98.3132 35.9226C98.079 35.9516 97.8434 35.9666 97.6074 35.9676C97.409 35.9671 97.2155 35.9047 97.0542 35.7891C96.8929 35.6735 96.7716 35.5104 96.7073 35.3227C96.5865 34.9772 96.5311 34.6123 96.5435 34.2466C96.5435 32.9776 96.5435 31.7086 96.5435 30.4416V30.3126C96.5435 30.2046 96.6034 30.1576 96.7024 30.1516C96.7604 30.1516 96.8163 30.1516 96.8743 30.1516H98.6013C98.6137 30.1125 98.6225 30.0724 98.6274 30.0316C98.6274 29.6596 98.6344 29.2846 98.6274 28.9126C98.6274 28.7556 98.6032 28.7426 98.4272 28.7426H96.8784C96.5574 28.7426 96.5383 28.7237 96.5383 28.4007C96.5383 27.8697 96.5383 27.3396 96.5383 26.8086C96.5383 26.6456 96.4955 26.6086 96.3455 26.6556C96.1955 26.7026 96.0723 26.7396 95.9333 26.7806C95.6133 26.8806 95.2944 26.9867 94.9724 27.0807C94.7434 27.1477 94.7253 27.1626 94.7253 27.4056C94.7253 27.7776 94.7253 28.1516 94.7253 28.5246C94.7253 28.7076 94.6913 28.7376 94.5103 28.7397C94.2373 28.7397 93.9664 28.7397 93.6934 28.7397C93.5114 28.7397 93.4864 28.7566 93.4844 28.9286C93.4844 29.2796 93.4844 29.6286 93.4844 29.9826C93.4894 30.1326 93.5073 30.1476 93.6533 30.1476Z" fill="#727272"/>
<path d="M96.7855 22.627C97.1405 22.7412 97.5176 22.7694 97.8856 22.709C98.1462 22.6787 98.3973 22.5934 98.6224 22.4588C98.8476 22.3241 99.0416 22.1432 99.1915 21.9279C99.513 21.4929 99.6748 20.9603 99.6495 20.42C99.6834 19.8616 99.5109 19.3103 99.1647 18.871C98.9428 18.5875 98.6417 18.3762 98.2997 18.2639C97.976 18.166 97.6363 18.1321 97.2997 18.164C97.0345 18.1796 96.7754 18.2508 96.5394 18.3727C96.3035 18.4947 96.0957 18.6647 95.9296 18.8719C95.6628 19.2024 95.4943 19.6013 95.4435 20.0229C95.3748 20.3796 95.3848 20.747 95.4725 21.0995C95.5603 21.4519 95.7237 21.7811 95.9515 22.0639C96.1716 22.3257 96.4604 22.5208 96.7855 22.627ZM96.6857 19.3009C96.779 19.1508 96.9103 19.028 97.0665 18.9452C97.2227 18.8624 97.3979 18.8224 97.5746 18.8295C97.7512 18.8365 97.923 18.8902 98.0721 18.9851C98.2213 19.0801 98.3424 19.2129 98.4235 19.3699C98.6043 19.6895 98.693 20.053 98.6796 20.42C98.691 20.779 98.6063 21.1345 98.4344 21.4499C98.3544 21.6194 98.2296 21.7636 98.0731 21.8668C97.9167 21.97 97.7348 22.0281 97.5475 22.035C97.3491 22.0383 97.154 21.9832 96.9867 21.8766C96.8194 21.7699 96.6872 21.6163 96.6066 21.435C96.4408 21.1389 96.3627 20.8017 96.3815 20.463C96.3569 20.0532 96.4643 19.6463 96.6876 19.302L96.6857 19.3009Z" fill="#727272"/>
<path d="M99.2145 33.1146C99.1941 33.6917 99.2788 34.2678 99.4645 34.8146C99.6874 35.5077 100.091 36.129 100.633 36.6146C101.13 37.0648 101.746 37.3615 102.407 37.4686C102.93 37.559 103.464 37.5677 103.989 37.4946C104.459 37.4354 104.914 37.2911 105.331 37.0686C105.873 36.7695 106.34 36.3511 106.695 35.845C107.051 35.3389 107.287 34.7584 107.385 34.1476C107.527 33.4558 107.539 32.7437 107.421 32.0476C107.333 31.466 107.133 30.907 106.832 30.4016C106.503 29.8427 106.032 29.3803 105.467 29.0609C104.902 28.7414 104.263 28.5762 103.614 28.5816C103.206 28.5586 102.797 28.5895 102.396 28.6736C102.003 28.7545 101.625 28.8959 101.276 29.0926C100.407 29.603 99.7621 30.4206 99.4674 31.3836C99.2775 31.9402 99.1918 32.5269 99.2145 33.1146ZM101.335 31.5656C101.5 31.0198 101.848 30.5473 102.32 30.2276C102.751 29.9615 103.269 29.8756 103.762 29.9886C104.074 30.0646 104.363 30.2128 104.606 30.4213C104.849 30.6298 105.04 30.8927 105.162 31.1886C105.516 31.93 105.645 32.7588 105.532 33.5726C105.475 34.1656 105.275 34.7357 104.947 35.2336C104.806 35.465 104.617 35.6637 104.392 35.8163C104.168 35.9689 103.914 36.072 103.647 36.1186C103.38 36.1652 103.106 36.1544 102.843 36.0868C102.58 36.0192 102.335 35.8964 102.123 35.7266C101.759 35.4021 101.485 34.9887 101.329 34.5266C101.153 34.0553 101.074 33.5531 101.099 33.0506C101.074 32.5446 101.155 32.039 101.335 31.5656Z" fill="#727272"/>
<path d="M55.644 37.3547C55.6831 37.359 55.7222 37.3479 55.7532 37.3238C55.7842 37.2997 55.8046 37.2646 55.8101 37.2257C55.8941 36.9307 55.986 36.6367 56.076 36.3417L56.354 35.4417C56.496 34.9707 56.636 34.4957 56.782 34.0247C56.845 33.8247 56.851 33.8247 57.051 33.8247H60.451C60.651 33.8247 60.7031 33.8657 60.7571 34.0527C60.8431 34.3407 60.927 34.6297 61.015 34.9157C61.2003 35.5097 61.3866 36.1034 61.574 36.6967C61.63 36.8727 61.695 37.0497 61.751 37.2257C61.7604 37.2676 61.7854 37.3045 61.8208 37.3288C61.8562 37.3531 61.8995 37.363 61.942 37.3567C62.486 37.3567 63.032 37.3567 63.577 37.3567C63.6346 37.3503 63.6915 37.3389 63.7471 37.3227C63.6241 36.9337 63.508 36.5657 63.394 36.1977C63.321 35.9657 63.248 35.7327 63.175 35.5027L62.775 34.2577C62.64 33.8357 62.506 33.4127 62.375 32.9907C62.244 32.5687 62.1131 32.1587 61.9811 31.7427C61.8931 31.4627 61.802 31.1837 61.714 30.9037C61.578 30.4817 61.4431 30.0587 61.3141 29.6367C61.1868 29.2367 61.0596 28.8344 60.933 28.4297C60.802 28.0207 60.6681 27.6147 60.5331 27.2057C60.3981 26.7967 60.2771 26.3857 60.1481 25.9777C60.1011 25.8267 60.048 25.6777 59.995 25.5297C59.9835 25.4873 59.9567 25.4507 59.9198 25.4268C59.8829 25.403 59.8384 25.3937 59.795 25.4007C59.135 25.4007 58.476 25.4007 57.816 25.4007C57.7669 25.394 57.717 25.4066 57.6769 25.4359C57.6368 25.4652 57.6097 25.5088 57.6011 25.5577C57.4611 26.0157 57.3111 26.4697 57.1641 26.9257L56.79 28.1127C56.657 28.5277 56.521 28.9427 56.39 29.3587C56.259 29.7747 56.119 30.2167 55.983 30.6477C55.856 31.0477 55.727 31.4477 55.6 31.8547C55.473 32.2617 55.3461 32.6747 55.2151 33.0827C55.0841 33.4907 54.9461 33.9127 54.8151 34.3277C54.6841 34.7427 54.561 35.1477 54.432 35.5557C54.303 35.9637 54.166 36.3707 54.032 36.7797C53.978 36.9497 53.932 37.1197 53.875 37.3157C53.9252 37.3338 53.9772 37.3469 54.03 37.3547C54.568 37.3547 55.106 37.3517 55.644 37.3547ZM57.199 32.2237C57.268 31.9917 57.3431 31.7587 57.4141 31.5237C57.5511 31.0807 57.691 30.6377 57.829 30.1947C57.915 29.9217 58.005 29.6507 58.083 29.3747C58.188 29.0027 58.2831 28.6307 58.3831 28.2557C58.4711 27.9097 58.5441 27.5557 58.6331 27.2127C58.6431 27.1677 58.701 27.1347 58.733 27.0967C58.765 27.1397 58.817 27.1767 58.827 27.2237C58.954 27.7167 59.068 28.2087 59.197 28.7017C59.274 29.0017 59.3741 29.2907 59.4661 29.5837C59.5951 29.9927 59.726 30.4007 59.858 30.8097C59.993 31.2377 60.129 31.6677 60.266 32.0957C60.277 32.1297 60.292 32.1627 60.301 32.1957C60.329 32.3287 60.29 32.3867 60.155 32.3957C60.02 32.4047 59.869 32.3957 59.724 32.3957H57.4871C57.4298 32.3989 57.3724 32.3989 57.3151 32.3957C57.1991 32.3827 57.167 32.3377 57.199 32.2237Z" fill="#727272"/>
<path d="M60.0638 19.7427C60.3438 20.5217 60.6187 21.3047 60.8987 22.0827C60.9527 22.2307 61.0108 22.3757 61.0688 22.5217C61.0804 22.5595 61.1047 22.5922 61.1377 22.6141C61.1707 22.636 61.2104 22.6457 61.2498 22.6417C61.4588 22.6417 61.6648 22.6417 61.8738 22.6417C61.924 22.6439 61.9734 22.6283 62.0131 22.5975C62.0528 22.5667 62.0804 22.5228 62.0907 22.4737C62.1747 22.2237 62.2697 21.9737 62.3617 21.7297C62.5317 21.2757 62.7038 20.8197 62.8738 20.3657C63.0868 19.7977 63.3018 19.2297 63.5088 18.6577C63.5827 18.5269 63.6174 18.3776 63.6088 18.2277C63.3268 18.2277 63.0517 18.2277 62.7737 18.2277C62.7347 18.2277 62.6788 18.2897 62.6618 18.3377C62.6058 18.4777 62.5617 18.6217 62.5177 18.7637C62.3817 19.1857 62.2447 19.6067 62.1177 20.0307C61.9737 20.5017 61.8358 20.9747 61.6968 21.4487C61.6769 21.5072 61.6537 21.5646 61.6277 21.6207H61.5738C61.5568 21.5777 61.5348 21.5347 61.5218 21.4897C61.3548 20.9287 61.1928 20.3647 61.0218 19.8057C60.8968 19.3947 60.7548 18.9907 60.6348 18.5797C60.5348 18.2357 60.5278 18.2227 60.1678 18.2227H59.5547C59.5542 18.2798 59.56 18.3368 59.5718 18.3927C59.7328 18.8457 59.9028 19.2927 60.0638 19.7427Z" fill="#727272"/>
<path d="M66.8817 19.8019C66.6347 19.8339 66.3818 19.8559 66.1358 19.8879C65.6851 19.9372 65.261 20.1259 64.9228 20.4279C64.7145 20.6373 64.5764 20.9061 64.5275 21.1974C64.4786 21.4887 64.5213 21.7879 64.6498 22.0539C64.7454 22.2562 64.8964 22.4272 65.0852 22.5472C65.2741 22.6672 65.4931 22.7312 65.7168 22.7319C65.9488 22.7594 66.1841 22.732 66.4035 22.6517C66.6229 22.5714 66.8203 22.4406 66.9798 22.2699C67.0304 22.2252 67.0854 22.1857 67.1438 22.1519C67.1628 22.2769 67.1738 22.3629 67.1888 22.4519C67.2128 22.6029 67.2448 22.6389 67.3958 22.6459C67.5468 22.6529 67.7118 22.6459 67.8688 22.6459C68.0258 22.6459 68.0558 22.6199 68.0478 22.4549C68.0398 22.2899 68.0138 22.0979 68.0108 21.9189C68.0048 21.3099 68.0108 20.7009 67.9998 20.0929C68.0002 19.8354 67.9778 19.5784 67.9328 19.3249C67.9021 19.1221 67.8245 18.9294 67.7061 18.762C67.5877 18.5946 67.4317 18.4573 67.2508 18.3609C66.995 18.2303 66.7119 18.1618 66.4247 18.1609C66.0241 18.1395 65.6229 18.1927 65.2417 18.3179C65.1287 18.362 65.0194 18.4152 64.9148 18.4769C64.8983 18.484 64.8833 18.4945 64.871 18.5077C64.8587 18.5209 64.8495 18.5366 64.8437 18.5536C64.8378 18.5707 64.8356 18.5888 64.8372 18.6067C64.8388 18.6247 64.8441 18.6421 64.8528 18.6579C64.8898 18.7439 64.9108 18.8339 64.9388 18.9229C64.9858 19.0799 65.0388 19.1099 65.1908 19.0349C65.5591 18.8523 65.9731 18.7827 66.3808 18.8349C66.5679 18.8544 66.7411 18.9426 66.8671 19.0824C66.993 19.2222 67.0628 19.4037 67.0628 19.5919C67.0618 19.7569 67.0417 19.7809 66.8817 19.8019ZM67.0818 20.6219V20.9489C67.0993 21.1618 67.0606 21.3755 66.9698 21.5689C66.8648 21.7356 66.714 21.8686 66.5354 21.9518C66.3568 22.035 66.158 22.0649 65.9628 22.0379C65.8302 22.0087 65.7103 21.9382 65.6204 21.8365C65.5305 21.7347 65.4753 21.607 65.4628 21.4719C65.4303 21.2643 65.4793 21.0522 65.5995 20.8798C65.7197 20.7075 65.9018 20.5882 66.1078 20.5469C66.3602 20.4672 66.6243 20.4307 66.8888 20.4389C67.0508 20.4479 67.0698 20.4629 67.0818 20.6219Z" fill="#727272"/>
<path d="M54.0527 22.6439C54.2747 22.6439 54.4977 22.6439 54.7197 22.6439C54.7628 22.6484 54.806 22.6365 54.8407 22.6105C54.8753 22.5846 54.8989 22.5465 54.9067 22.5039C55.0487 22.0179 55.1987 21.5319 55.3437 21.0459C55.4017 20.8459 55.4297 20.8159 55.6437 20.8139C55.9017 20.8139 56.1597 20.8139 56.4177 20.8139C56.6757 20.8139 56.9488 20.8139 57.2178 20.8139C57.2644 20.8077 57.3116 20.8182 57.3513 20.8434C57.391 20.8687 57.4205 20.9071 57.4347 20.9519C57.4577 21.0119 57.4838 21.0699 57.5038 21.1329C57.5938 21.4279 57.6777 21.7219 57.7707 22.0169C57.8247 22.1869 57.8847 22.3549 57.9427 22.5249C57.9687 22.5979 58.0067 22.6519 58.0957 22.6519C58.3387 22.6519 58.5838 22.6519 58.8268 22.6519C58.9348 22.6519 58.9647 22.5979 58.9267 22.4949C58.8127 22.1336 58.6981 21.7729 58.5827 21.4129C58.4487 20.9979 58.3117 20.5849 58.1827 20.1699C58.0427 19.7353 57.9043 19.2993 57.7677 18.8619C57.6387 18.4529 57.5137 18.0419 57.3827 17.6339C57.2827 17.3129 57.1697 16.9969 57.0707 16.6769C57.0614 16.6275 57.0333 16.5837 56.9922 16.5548C56.9511 16.5258 56.9003 16.514 56.8507 16.5219C56.6287 16.5219 56.4057 16.5219 56.1837 16.5219C55.8397 16.5219 55.8377 16.5219 55.7387 16.8489C55.7387 16.8619 55.7318 16.8769 55.7278 16.8899C55.6008 17.3009 55.4777 17.7099 55.3467 18.1179C55.2157 18.5259 55.0758 18.9459 54.9468 19.3639C54.7808 19.8889 54.6237 20.4159 54.4557 20.9409C54.2877 21.4659 54.1207 21.9739 53.9557 22.4899C53.9027 22.5989 53.9287 22.6419 54.0527 22.6439ZM55.6257 19.9139C55.7717 19.4359 55.9258 18.9609 56.0668 18.4809C56.1418 18.2269 56.1957 17.9689 56.2577 17.7129C56.2837 17.6049 56.2947 17.4889 56.4317 17.4249C56.4532 17.4713 56.4706 17.5195 56.4837 17.5689C56.589 18.072 56.7289 18.5672 56.9027 19.0509C56.9887 19.3069 57.0687 19.5669 57.1527 19.8249C57.1617 19.8529 57.1657 19.8809 57.1727 19.9089C57.2027 20.0719 57.1818 20.1089 57.0198 20.1089C56.8418 20.1089 56.6627 20.1089 56.4817 20.1089C56.2447 20.1089 56.0087 20.1089 55.7737 20.1089C55.6087 20.1059 55.5807 20.0639 55.6257 19.9139Z" fill="#727272"/>
<path d="M38.0732 20.853C38.2862 20.831 38.4993 20.814 38.7103 20.78C39.2951 20.6733 39.8476 20.4338 40.3253 20.08C40.8833 19.6763 41.3654 19.1769 41.7493 18.605C42.2091 17.9414 42.523 17.1878 42.6703 16.394C42.7417 15.9777 42.7682 15.555 42.7493 15.133C42.7449 15.0878 42.7355 15.0432 42.7213 15C42.6262 15.0004 42.5313 15.0078 42.4373 15.022C41.9911 15.1169 41.5541 15.2508 41.1313 15.422C40.2699 15.7857 39.5271 16.3824 38.9863 17.145C38.2841 18.1556 37.9073 19.3564 37.9062 20.587C37.9062 20.664 37.9062 20.742 37.9062 20.837C37.9613 20.8474 38.0172 20.8528 38.0732 20.853Z" fill="#424242"/>
<path d="M28.0957 29.7091C28.1327 29.9351 28.1647 30.1611 28.2037 30.3871C28.2507 30.6601 28.2857 30.9381 28.3517 31.2071C28.4467 31.5881 28.5627 31.9621 28.6727 32.3391C28.9029 33.1048 29.1979 33.8495 29.5547 34.5651C30.0654 35.6388 30.6893 36.6548 31.4157 37.5961C31.8137 38.1225 32.2911 38.5841 32.8307 38.9641C33.2296 39.245 33.6896 39.427 34.1727 39.4951C34.6592 39.5408 35.1493 39.4592 35.5947 39.2581C36.0637 39.0691 36.5217 38.8451 36.9947 38.6581C37.2045 38.569 37.4262 38.5111 37.6527 38.4861C38.0794 38.4501 38.5076 38.4354 38.9357 38.4421C39.251 38.426 39.5662 38.4737 39.8627 38.5821C40.2217 38.7391 40.5787 38.9051 40.9387 39.0621C41.2995 39.231 41.6764 39.363 42.0637 39.4561C42.4649 39.5361 42.8798 39.5148 43.2707 39.3941C43.9232 39.1884 44.5098 38.8137 44.9707 38.3081C45.5787 37.6704 46.1008 36.956 46.5237 36.1831C47.1042 35.1398 47.6124 34.0579 48.0447 32.9451C48.0542 32.9126 48.0586 32.8789 48.0577 32.8451C47.7397 32.6621 47.4297 32.4991 47.1347 32.3091C46.2887 31.7832 45.6301 31.0039 45.2527 30.0821C45.0055 29.4638 44.8672 28.8075 44.8437 28.1421C44.7883 27.3189 44.9252 26.4942 45.2437 25.7331C45.5463 25.0356 45.9737 24.3992 46.5047 23.8551C46.7977 23.5551 47.1117 23.2681 47.4387 22.9551C47.0596 22.4149 46.5921 21.9426 46.0557 21.5581C45.2172 20.9621 44.2227 20.6242 43.1947 20.5861C42.5873 20.5397 41.9765 20.5958 41.3877 20.7521C40.8007 20.9261 40.2257 21.1411 39.6427 21.3311C39.3174 21.4535 38.983 21.5504 38.6427 21.6211C38.1867 21.6827 37.7224 21.6273 37.2937 21.4601C36.7857 21.2731 36.2807 21.0791 35.7667 20.9141C35.4485 20.8082 35.1216 20.7305 34.7897 20.6821C34.4625 20.6482 34.1334 20.6368 33.8047 20.6481C33.2259 20.6586 32.6533 20.7686 32.1117 20.9731C31.0201 21.3912 30.0835 22.1348 29.4287 23.1031C28.8329 23.9522 28.4211 24.9165 28.2197 25.9341C28.1216 26.4319 28.0568 26.9357 28.0257 27.4421C27.9895 28.1724 28.0082 28.9045 28.0817 29.6321C28.0846 29.658 28.0893 29.6837 28.0957 29.7091Z" fill="#424242"/>
<path d="M74.2756 33.3501C74.2826 35.7501 74.2756 38.1501 74.2756 40.5571C74.2756 40.8371 74.2867 40.8471 74.5657 40.8471H75.8566C76.1296 40.8471 76.1376 40.8411 76.1376 40.5741V39.3911C76.1376 38.4811 76.1376 37.5691 76.1376 36.6591C76.1376 36.5791 76.1096 36.4871 76.2046 36.4221C76.2306 36.4351 76.2387 36.4351 76.2437 36.4411C76.2627 36.4631 76.2796 36.4841 76.2976 36.5081C76.5927 36.9279 77.0197 37.237 77.5106 37.3861C77.9224 37.5091 78.3526 37.5592 78.7816 37.5341C79.608 37.5128 80.3964 37.1828 80.9916 36.6091C81.803 35.8123 82.2808 34.7364 82.3276 33.6001C82.3536 33.2951 82.3427 32.9851 82.3427 32.6751C82.351 31.9638 82.1949 31.2602 81.8866 30.6191C81.704 30.1936 81.4367 29.8099 81.101 29.4911C80.7652 29.1724 80.368 28.9253 79.9336 28.7651C79.4436 28.6017 78.9245 28.5444 78.4107 28.5971C78.189 28.6141 77.9701 28.6574 77.7587 28.7261C77.1086 28.9254 76.5447 29.3384 76.1586 29.8981C76.1126 29.9541 76.0625 30.0066 76.0087 30.0551C75.9017 29.9971 75.9307 29.9171 75.9247 29.8551C75.8987 29.5631 75.8817 29.2681 75.8517 28.9771C75.8287 28.7621 75.8047 28.7491 75.5977 28.7491C75.2257 28.7491 74.8506 28.7491 74.4796 28.7491C74.2516 28.7491 74.2316 28.7661 74.2346 28.9901C74.2496 30.4401 74.2716 31.8961 74.2756 33.3501ZM76.1456 33.1501C76.1456 32.8641 76.1306 32.5761 76.1456 32.2891C76.1663 31.755 76.3577 31.2415 76.6917 30.8241C76.9614 30.4806 77.3369 30.2356 77.7599 30.1271C78.1829 30.0187 78.6299 30.0528 79.0316 30.2241C79.4957 30.4259 79.8715 30.788 80.0906 31.2441C80.3429 31.7457 80.4705 32.3007 80.4627 32.8621C80.4946 33.4429 80.4105 34.0241 80.2156 34.5721C80.0438 35.0944 79.6885 35.5367 79.2156 35.8171C78.847 36.0107 78.4302 36.0931 78.0156 36.0541C77.6302 36.0281 77.2612 35.8877 76.9559 35.651C76.6506 35.4143 76.4229 35.0919 76.3016 34.7251C76.2174 34.4971 76.1676 34.2578 76.1537 34.0151C76.1327 33.7291 76.1537 33.4381 76.1537 33.1521L76.1456 33.1501Z" fill="#727272"/>
<path d="M72.6618 22.6443C72.8618 22.6503 73.0619 22.6503 73.2619 22.6443C73.3999 22.6443 73.4228 22.6123 73.4318 22.4783C73.4318 22.4353 73.4318 22.3923 73.4318 22.3493V16.4813C73.4318 16.4323 73.4318 16.3813 73.4318 16.3303C73.4328 16.3139 73.4304 16.2975 73.4246 16.2821C73.4188 16.2667 73.4097 16.2527 73.3981 16.2411C73.3865 16.2295 73.3725 16.2204 73.3571 16.2146C73.3417 16.2088 73.3253 16.2063 73.3089 16.2073C73.0779 16.2073 72.8509 16.2073 72.6209 16.2073C72.6009 16.206 72.5807 16.2091 72.562 16.2164C72.5434 16.2238 72.5267 16.2352 72.513 16.2498C72.4993 16.2645 72.489 16.282 72.4829 16.3011C72.4769 16.3202 72.4751 16.3405 72.4778 16.3603V22.3603C72.4778 22.3973 72.4778 22.4313 72.4778 22.4683C72.4898 22.6083 72.5128 22.6403 72.6618 22.6443Z" fill="#727272"/>
<path d="M70.6958 18.4336C70.6958 18.2726 70.6507 18.2336 70.4897 18.2266C70.3537 18.2266 70.2158 18.2266 70.0808 18.2266C69.7578 18.2266 69.7578 18.2266 69.7578 18.5406V22.3406C69.7578 22.3906 69.7578 22.4406 69.7578 22.4916C69.7578 22.5996 69.8118 22.6446 69.9188 22.6426C70.0908 22.6426 70.2628 22.6426 70.4348 22.6426C70.6718 22.6426 70.6948 22.6186 70.6978 22.3866C70.6978 21.7416 70.6978 21.0976 70.6978 20.4526V19.1236C70.6958 18.8916 70.6998 18.6636 70.6958 18.4336Z" fill="#727272"/>
<path d="M70.2233 17.4614C70.2983 17.4633 70.373 17.4501 70.4429 17.4225C70.5127 17.395 70.5763 17.3537 70.6299 17.3011C70.6834 17.2484 70.7257 17.1856 70.7545 17.1163C70.7833 17.0469 70.7979 16.9725 70.7974 16.8974C70.7991 16.8225 70.7854 16.7481 70.7572 16.6787C70.729 16.6092 70.6869 16.5463 70.6335 16.4938C70.5801 16.4412 70.5165 16.4001 70.4467 16.3731C70.3768 16.346 70.3022 16.3336 70.2273 16.3364C70.1514 16.3332 70.0757 16.3454 70.0046 16.3722C69.9336 16.3991 69.8688 16.44 69.814 16.4925C69.7592 16.5451 69.7156 16.6082 69.6858 16.678C69.656 16.7479 69.6406 16.823 69.6406 16.8989C69.6406 16.9749 69.656 17.05 69.6858 17.1199C69.7156 17.1897 69.7592 17.2528 69.814 17.3053C69.8688 17.3579 69.9336 17.3988 70.0046 17.4256C70.0757 17.4525 70.1514 17.4646 70.2273 17.4614H70.2233Z" fill="#727272"/>
</svg>
