<svg width="55" height="23" viewBox="0 0 55 23" fill="none" xmlns="http://www.w3.org/2000/svg">
<g id="Mask group">
<path id="XMLID_34_" d="M10.0202 3.27259C9.3862 4.01127 8.37188 4.59389 7.35756 4.51066C7.23077 3.51188 7.72737 2.45068 8.30849 1.79523C8.94244 1.03574 10.0519 0.494741 10.9499 0.453125C11.0556 1.49352 10.6435 2.5131 10.0202 3.27259ZM10.9394 4.70833C9.47073 4.6251 8.2134 5.53024 7.51605 5.53024C6.80814 5.53024 5.74099 4.74995 4.57874 4.77076C3.06783 4.79156 1.66257 5.63428 0.891263 6.97639C-0.693615 9.6606 0.479194 13.6349 2.01124 15.8197C2.76142 16.9017 3.65951 18.0878 4.84289 18.0462C5.96287 18.0046 6.40663 17.3283 7.75906 17.3283C9.12206 17.3283 9.51299 18.0462 10.6964 18.0254C11.922 18.0046 12.6933 16.9434 13.4435 15.8613C14.2993 14.6337 14.648 13.4372 14.6691 13.3748C14.648 13.354 12.3024 12.4697 12.2812 9.80626C12.2601 7.57982 14.1303 6.51862 14.2148 6.45619C13.1582 4.91641 11.5099 4.74995 10.9394 4.70833ZM19.4238 1.69119V17.9109H21.9807V12.3656H25.5203C28.7534 12.3656 31.0251 10.1808 31.0251 7.018C31.0251 3.85521 28.7957 1.69119 25.6048 1.69119H19.4238ZM21.9807 3.81359H24.9286C27.1474 3.81359 28.4153 4.97883 28.4153 7.02841C28.4153 9.07798 27.1474 10.2536 24.918 10.2536H21.9807V3.81359ZM35.6952 18.0358C37.3012 18.0358 38.791 17.2347 39.4672 15.9654H39.52V17.9109H41.8868V9.83747C41.8868 7.49658 39.9849 5.98801 37.0582 5.98801C34.3427 5.98801 32.3352 7.51739 32.2613 9.61899H34.5646C34.7548 8.62021 35.6952 7.96476 36.9842 7.96476C38.5479 7.96476 39.4249 8.68263 39.4249 10.0039V10.8987L36.234 11.0859C33.265 11.2628 31.659 12.4593 31.659 14.54C31.659 16.6416 33.3179 18.0358 35.6952 18.0358ZM36.3819 16.111C35.019 16.111 34.1526 15.466 34.1526 14.4776C34.1526 13.458 34.9873 12.865 36.5827 12.7714L39.4249 12.5945V13.5101C39.4249 15.029 38.1147 16.111 36.3819 16.111ZM45.0459 22.3222C47.5395 22.3222 48.7123 21.3858 49.7372 18.5456L54.2277 6.14407H51.6285L48.6172 15.7261H48.5644L45.5531 6.14407H42.8799L47.2119 17.9525L46.9795 18.6704C46.5886 19.8877 45.9546 20.3558 44.8241 20.3558C44.6233 20.3558 44.2324 20.335 44.0739 20.3142V22.2598C44.2218 22.3014 44.8558 22.3222 45.0459 22.3222Z" fill="white"/>
</g>
</svg>
