<svg width="75" height="26" viewBox="0 0 75 26" fill="none" xmlns="http://www.w3.org/2000/svg">
<path d="M71.7765 7.94972L70.9478 7.33854L71.704 6.31299L70.5127 5.90899L70.8338 4.93524L72.0251 5.32889V4.00293H73.061V5.32889L74.2523 4.93524L74.5734 5.90899L73.3821 6.31299L74.1384 7.33854L73.2993 7.94972L72.5431 6.92418L71.7765 7.94972Z" fill="white"/>
<path d="M64.2363 11.7196V6.08427H65.5105V7.19269L65.4069 6.99586C65.5381 6.65747 65.7522 6.40195 66.0492 6.2293C66.353 6.04974 66.7052 5.95996 67.1058 5.95996C67.5201 5.95996 67.8862 6.04974 68.2038 6.2293C68.5284 6.40885 68.7805 6.66092 68.96 6.98551C69.1396 7.30318 69.2294 7.67265 69.2294 8.09392V11.7196H67.8723V8.41505C67.8723 8.16643 67.824 7.95235 67.7273 7.77279C67.6306 7.59323 67.496 7.45511 67.3233 7.35843C67.1576 7.25484 66.9608 7.20304 66.7329 7.20304C66.5119 7.20304 66.315 7.25484 66.1424 7.35843C65.9697 7.45511 65.8351 7.59323 65.7384 7.77279C65.6417 7.95235 65.5934 8.16643 65.5934 8.41505V11.7196H64.2363Z" fill="white"/>
<path d="M60.2412 11.8439C59.6887 11.8439 59.1846 11.7161 58.7288 11.4606C58.2799 11.2051 57.9208 10.8563 57.6515 10.4143C57.389 9.97236 57.2578 9.46822 57.2578 8.90193C57.2578 8.33563 57.389 7.83149 57.6515 7.38951C57.9208 6.94752 58.2799 6.59877 58.7288 6.34324C59.1777 6.08772 59.6818 5.95996 60.2412 5.95996C60.7937 5.95996 61.2944 6.08772 61.7433 6.34324C62.1922 6.59877 62.5478 6.94752 62.8103 7.38951C63.0796 7.82459 63.2143 8.32873 63.2143 8.90193C63.2143 9.46822 63.0796 9.97236 62.8103 10.4143C62.5409 10.8563 62.1818 11.2051 61.7329 11.4606C61.284 11.7161 60.7868 11.8439 60.2412 11.8439ZM60.2412 10.6008C60.5451 10.6008 60.811 10.5283 61.0389 10.3833C61.2737 10.2382 61.4567 10.038 61.5879 9.78244C61.726 9.52001 61.7951 9.22651 61.7951 8.90193C61.7951 8.57044 61.726 8.28038 61.5879 8.03177C61.4567 7.77624 61.2737 7.57597 61.0389 7.43094C60.811 7.27901 60.5451 7.20304 60.2412 7.20304C59.9304 7.20304 59.6577 7.27901 59.4228 7.43094C59.188 7.57597 59.0016 7.77624 58.8635 8.03177C58.7322 8.28038 58.6666 8.57044 58.6666 8.90193C58.6666 9.22651 58.7322 9.52001 58.8635 9.78244C59.0016 10.038 59.188 10.2382 59.4228 10.3833C59.6577 10.5283 59.9304 10.6008 60.2412 10.6008Z" fill="white"/>
<path d="M49.5068 11.7197V3.87793H50.8639V7.19282L50.6774 6.996C50.8086 6.6576 51.0227 6.40208 51.3197 6.22943C51.6235 6.04987 51.9757 5.96009 52.3763 5.96009C52.7906 5.96009 53.1567 6.04987 53.4743 6.22943C53.7989 6.40899 54.051 6.66106 54.2306 6.98564C54.4101 7.30331 54.4999 7.67279 54.4999 8.09405V11.7197H53.1429V8.41518C53.1429 8.16657 53.0945 7.95248 52.9978 7.77292C52.9011 7.59337 52.7665 7.45525 52.5938 7.35856C52.4281 7.25497 52.2313 7.20318 52.0034 7.20318C51.7824 7.20318 51.5855 7.25497 51.4129 7.35856C51.2402 7.45525 51.1056 7.59337 51.0089 7.77292C50.9122 7.95248 50.8639 8.16657 50.8639 8.41518V11.7197H49.5068Z" fill="white"/>
<path d="M46.328 11.8439C45.7271 11.8439 45.2023 11.7023 44.7534 11.4192C44.3114 11.1291 44.0075 10.7389 43.8418 10.2486L44.857 9.76172C45.002 10.0794 45.2023 10.328 45.4578 10.5076C45.7202 10.6871 46.0103 10.7769 46.328 10.7769C46.5766 10.7769 46.7734 10.7217 46.9184 10.6112C47.0635 10.5007 47.136 10.3556 47.136 10.1761C47.136 10.0656 47.1049 9.97581 47.0427 9.90675C46.9875 9.83078 46.9081 9.76863 46.8045 9.72029C46.7078 9.66504 46.6008 9.62015 46.4833 9.58562L45.5614 9.32665C45.0849 9.18852 44.7223 8.97789 44.4737 8.69474C44.232 8.4116 44.1111 8.07666 44.1111 7.68992C44.1111 7.34462 44.1975 7.04421 44.3701 6.78868C44.5497 6.52626 44.7948 6.32253 45.1056 6.1775C45.4233 6.03247 45.7858 5.95996 46.1933 5.95996C46.7251 5.95996 47.1947 6.08772 47.6021 6.34324C48.0096 6.59877 48.2996 6.95788 48.4723 7.42058L47.4364 7.90746C47.3397 7.65194 47.1774 7.44821 46.9495 7.29628C46.7216 7.14434 46.4661 7.06838 46.1829 7.06838C45.955 7.06838 45.7755 7.12017 45.6443 7.22376C45.5131 7.32735 45.4474 7.46202 45.4474 7.62776C45.4474 7.73135 45.4751 7.82113 45.5303 7.8971C45.5856 7.97307 45.6615 8.03522 45.7582 8.08356C45.8618 8.1319 45.9792 8.17679 46.1104 8.21823L47.0117 8.48756C47.4744 8.62568 47.83 8.83286 48.0786 9.10911C48.3342 9.38535 48.4619 9.72374 48.4619 10.1243C48.4619 10.4627 48.3721 10.7631 48.1926 11.0255C48.013 11.281 47.7644 11.4813 47.4467 11.6263C47.1291 11.7714 46.7561 11.8439 46.328 11.8439Z" fill="white"/>
<path d="M39.8805 11.8439C39.4869 11.8439 39.145 11.7783 38.855 11.6471C38.5649 11.5159 38.3405 11.3294 38.1816 11.0877C38.0228 10.8391 37.9434 10.5525 37.9434 10.2279C37.9434 9.91711 38.0124 9.64087 38.1505 9.39916C38.2887 9.15054 38.5027 8.94336 38.7928 8.77762C39.0829 8.61187 39.4489 8.49447 39.8909 8.42541L41.7348 8.125V9.1609L40.1498 9.43024C39.8805 9.47858 39.6802 9.5649 39.549 9.68921C39.4178 9.81352 39.3522 9.97581 39.3522 10.1761C39.3522 10.3695 39.4247 10.5248 39.5697 10.6422C39.7217 10.7527 39.9081 10.808 40.1291 10.808C40.4123 10.808 40.6609 10.7493 40.875 10.6319C41.096 10.5076 41.2652 10.3384 41.3826 10.1243C41.5069 9.9102 41.569 9.6754 41.569 9.41988V7.96961C41.569 7.7279 41.4723 7.52763 41.279 7.36879C41.0925 7.20304 40.8439 7.12017 40.5331 7.12017C40.2431 7.12017 39.9841 7.19959 39.7562 7.35843C39.5352 7.51036 39.3729 7.71409 39.2693 7.96961L38.1609 7.43094C38.2714 7.13398 38.444 6.87846 38.6789 6.66438C38.9206 6.44338 39.2037 6.27073 39.5283 6.14642C39.8529 6.02211 40.2051 5.95996 40.5849 5.95996C41.0476 5.95996 41.4551 6.04629 41.8073 6.21894C42.1595 6.38468 42.4323 6.61949 42.6256 6.92335C42.8259 7.22031 42.9261 7.56906 42.9261 7.96961V11.7196H41.6415V10.7562L41.9316 10.7355C41.7866 10.9772 41.6139 11.1809 41.4136 11.3467C41.2134 11.5055 40.9855 11.6298 40.7299 11.7196C40.4744 11.8025 40.1913 11.8439 39.8805 11.8439Z" fill="white"/>
<path d="M33.9913 11.844C33.4388 11.844 32.9277 11.7439 32.4581 11.5436C31.9954 11.3433 31.588 11.0636 31.2358 10.7045C30.8905 10.3454 30.6211 9.92415 30.4277 9.44073C30.2344 8.95731 30.1377 8.429 30.1377 7.8558C30.1377 7.2826 30.2309 6.75429 30.4174 6.27086C30.6108 5.78054 30.8801 5.35927 31.2254 5.00706C31.5776 4.64795 31.9885 4.37171 32.4581 4.17834C32.9277 3.97807 33.4388 3.87793 33.9913 3.87793C34.5437 3.87793 35.0375 3.97116 35.4726 4.15762C35.9146 4.34409 36.2875 4.5927 36.5914 4.90347C36.8952 5.20734 37.1128 5.54228 37.244 5.9083L35.9802 6.49876C35.8352 6.11203 35.59 5.79435 35.2447 5.54573C34.8994 5.29021 34.4816 5.16245 33.9913 5.16245C33.5078 5.16245 33.0797 5.2764 32.7067 5.5043C32.3407 5.7322 32.0541 6.04642 31.8469 6.44697C31.6467 6.84752 31.5465 7.31713 31.5465 7.8558C31.5465 8.39447 31.6467 8.86753 31.8469 9.27498C32.0541 9.67553 32.3407 9.98976 32.7067 10.2177C33.0797 10.4456 33.5078 10.5595 33.9913 10.5595C34.4816 10.5595 34.8994 10.4352 35.2447 10.1866C35.59 9.93105 35.8352 9.60992 35.9802 9.22319L37.244 9.81365C37.1128 10.1797 36.8952 10.5181 36.5914 10.8288C36.2875 11.1327 35.9146 11.3779 35.4726 11.5643C35.0375 11.7508 34.5437 11.844 33.9913 11.844Z" fill="white"/>
<path d="M68.5388 25.1655C68.3746 25.1655 68.2142 25.1505 68.0574 25.1207C67.9007 25.0983 67.7589 25.0573 67.632 24.9976V23.7661C67.7291 23.7885 67.8447 23.8109 67.9791 23.8333C68.1209 23.8557 68.2515 23.8669 68.3709 23.8669C68.7067 23.8669 68.9493 23.7885 69.0985 23.6318C69.2553 23.4751 69.3933 23.2698 69.5127 23.0161L69.9158 22.0757L69.8934 23.3072L67.2402 16.6016H68.8187L70.677 21.5496H70.1173L71.9644 16.6016H73.554L70.9009 23.3072C70.7442 23.7027 70.5539 24.0385 70.33 24.3147C70.1061 24.5908 69.8449 24.7998 69.5463 24.9416C69.2553 25.0908 68.9194 25.1655 68.5388 25.1655Z" fill="white"/>
<path d="M63.6074 22.6922V16.6023H64.9844V17.9569L64.8724 17.7554C65.0142 17.3001 65.2344 16.9829 65.5329 16.8038C65.8389 16.6247 66.2046 16.5352 66.63 16.5352H66.9882V17.8337H66.4621C66.0441 17.8337 65.7083 17.9643 65.4545 18.2255C65.2008 18.4793 65.0739 18.8375 65.0739 19.3002V22.6922H63.6074Z" fill="white"/>
<path d="M59.6462 22.8263C59.0193 22.8263 58.4708 22.6845 58.0006 22.4009C57.5304 22.1173 57.1647 21.733 56.9035 21.2479C56.6423 20.7628 56.5117 20.2254 56.5117 19.6359C56.5117 19.0239 56.6423 18.4828 56.9035 18.0126C57.1722 17.535 57.5342 17.1581 57.9894 16.882C58.4521 16.6058 58.9671 16.4678 59.5343 16.4678C60.0119 16.4678 60.4298 16.5461 60.7881 16.7029C61.1538 16.8596 61.4635 17.076 61.7172 17.3522C61.971 17.6283 62.165 17.9455 62.2994 18.3037C62.4337 18.6545 62.5009 19.0351 62.5009 19.4456C62.5009 19.55 62.4934 19.6582 62.4785 19.7702C62.471 19.8821 62.4523 19.9792 62.4225 20.0613H57.7207V18.9418H61.5941L60.9 19.4679C60.9672 19.1246 60.9485 18.8187 60.844 18.55C60.747 18.2813 60.5828 18.0686 60.3515 17.9119C60.1276 17.7552 59.8552 17.6768 59.5343 17.6768C59.2283 17.6768 58.9559 17.7552 58.7171 17.9119C58.4782 18.0611 58.2954 18.285 58.1685 18.5836C58.0491 18.8746 58.0043 19.2291 58.0342 19.6471C58.0043 20.0202 58.0528 20.3523 58.1797 20.6434C58.3141 20.927 58.5081 21.1471 58.7618 21.3039C59.0231 21.4606 59.3216 21.539 59.6574 21.539C59.9933 21.539 60.2769 21.4681 60.5082 21.3263C60.747 21.1845 60.9336 20.9941 61.0679 20.7553L62.2546 21.3374C62.1352 21.6285 61.9486 21.886 61.6948 22.1099C61.4411 22.3338 61.1388 22.5092 60.7881 22.636C60.4448 22.7629 60.0642 22.8263 59.6462 22.8263Z" fill="white"/>
<path d="M52.3615 22.6915L49.9658 16.6016H51.5667L53.3018 21.3929H52.7085L54.4549 16.6016H56.0557L53.6601 22.6915H52.3615Z" fill="white"/>
<path d="M47.709 22.6926V16.6027H49.1755V22.6926H47.709ZM47.709 15.9198V14.3525H49.1755V15.9198H47.709Z" fill="white"/>
<path d="M44.8848 22.6921V14.2178H46.3513V22.6921H44.8848Z" fill="white"/>
<path d="M40.9158 22.8263C40.2889 22.8263 39.7403 22.6845 39.2701 22.4009C38.8 22.1173 38.4343 21.733 38.1731 21.2479C37.9119 20.7628 37.7812 20.2254 37.7812 19.6359C37.7812 19.0239 37.9119 18.4828 38.1731 18.0126C38.4417 17.535 38.8037 17.1581 39.2589 16.882C39.7217 16.6058 40.2366 16.4678 40.8038 16.4678C41.2814 16.4678 41.6994 16.5461 42.0576 16.7029C42.4233 16.8596 42.733 17.076 42.9868 17.3522C43.2405 17.6283 43.4346 17.9455 43.5689 18.3037C43.7032 18.6545 43.7704 19.0351 43.7704 19.4456C43.7704 19.55 43.7629 19.6582 43.748 19.7702C43.7405 19.8821 43.7219 19.9792 43.692 20.0613H38.9903V18.9418H42.8636L42.1696 19.4679C42.2367 19.1246 42.2181 18.8187 42.1136 18.55C42.0166 18.2813 41.8524 18.0686 41.621 17.9119C41.3971 17.7552 41.1247 17.6768 40.8038 17.6768C40.4978 17.6768 40.2254 17.7552 39.9866 17.9119C39.7478 18.0611 39.5649 18.285 39.4381 18.5836C39.3186 18.8746 39.2739 19.2291 39.3037 19.6471C39.2739 20.0202 39.3224 20.3523 39.4493 20.6434C39.5836 20.927 39.7776 21.1471 40.0314 21.3039C40.2926 21.4606 40.5911 21.539 40.9269 21.539C41.2628 21.539 41.5464 21.4681 41.7777 21.3263C42.0166 21.1845 42.2031 20.9941 42.3375 20.7553L43.5241 21.3374C43.4047 21.6285 43.2181 21.886 42.9644 22.1099C42.7106 22.3338 42.4084 22.5092 42.0576 22.636C41.7143 22.7629 41.3337 22.8263 40.9158 22.8263Z" fill="white"/>
<path d="M29.8682 22.6926V14.3525H32.5885C33.4691 14.3525 34.2341 14.5317 34.8834 14.8899C35.5401 15.2406 36.0476 15.7295 36.4058 16.3564C36.7641 16.9758 36.9432 17.696 36.9432 18.517C36.9432 19.3304 36.7641 20.0543 36.4058 20.6887C36.0476 21.3156 35.5401 21.8082 34.8834 22.1664C34.2341 22.5172 33.4691 22.6926 32.5885 22.6926H29.8682ZM31.3906 21.3492H32.622C33.1892 21.3492 33.6781 21.2335 34.0885 21.0022C34.5065 20.7633 34.8311 20.435 35.0625 20.017C35.2938 19.5916 35.4095 19.0916 35.4095 18.517C35.4095 17.9348 35.2938 17.4348 35.0625 17.0169C34.8311 16.5989 34.5065 16.2743 34.0885 16.0429C33.6781 15.8116 33.1892 15.6959 32.622 15.6959H31.3906V21.3492Z" fill="white"/>
<rect x="0.211914" y="1.4541" width="23.1889" height="23.1889" rx="5" fill="#2D9757"/>
<rect x="1" y="12.2012" width="15.2143" height="7.29156" transform="rotate(-28.248 1 12.2012)" fill="white"/>
<path fill-rule="evenodd" clip-rule="evenodd" d="M1.34606 12.8453L1.42945 13.0005L4.02129 17.8246L4.10522 17.9808L4.45101 18.6244L4.45127 18.6249L17.054 11.8537L17.0543 11.8536L17.0546 11.8534L17.8536 11.4241L17.8534 11.4236L17.5076 10.78L17.4242 10.6248L14.8318 5.79975L14.7484 5.64454L14.4024 5.00044L13.7583 5.3465L13.603 5.42989L1.79931 11.7717L1.6441 11.8551L1 12.2012L1.34606 12.8453ZM5.68858 17.1301C5.67145 17.0742 5.64863 17.0191 5.61991 16.9657C5.38274 16.5242 4.8326 16.3586 4.39116 16.5958C4.33805 16.6243 4.28894 16.6574 4.24404 16.6942L2.49491 13.4387C2.55042 13.4216 2.6051 13.3989 2.65821 13.3703C3.09965 13.1332 3.26524 12.583 3.02807 12.1416C2.99954 12.0885 2.96647 12.0394 2.92962 11.9945L13.1649 6.49535C13.182 6.55087 13.2047 6.60554 13.2332 6.65865C13.4704 7.10009 14.0205 7.26569 14.4619 7.02851C14.515 6.99998 14.5642 6.96692 14.6091 6.93006L16.3587 10.1866C16.3032 10.2037 16.2485 10.2264 16.1954 10.255C15.754 10.4921 15.5884 11.0423 15.8256 11.4837C15.8541 11.5368 15.8872 11.5859 15.924 11.6308L5.68858 17.1301Z" fill="#4B6A58"/>
<circle cx="5.38289" cy="13.9849" r="0.628893" transform="rotate(-28.248 5.38289 13.9849)" fill="#4B6A58"/>
<circle cx="13.4698" cy="9.64014" r="0.628893" transform="rotate(-28.248 13.4698 9.64014)" fill="#4B6A58"/>
<circle cx="9.40167" cy="11.826" r="2.54873" transform="rotate(-28.248 9.40167 11.826)" fill="#4B6A58"/>
<rect x="5" y="13" width="15.2143" height="7.29156" fill="white"/>
<path fill-rule="evenodd" clip-rule="evenodd" d="M5 13.7312V13.9074V19.3836V19.5609V20.2916V20.2921L19.3066 20.2921H19.3069H19.3072H20.2143V20.2916V19.5609V19.3848V13.9074V13.7312V13H19.4831H19.3069H5.90737H5.73118H5V13.7312ZM6.79742 19.5609C6.80878 19.5036 6.81474 19.4443 6.81474 19.3836C6.81474 18.8825 6.4085 18.4763 5.90737 18.4763C5.84709 18.4763 5.78818 18.4821 5.73118 18.4934V14.7976C5.78818 14.8089 5.84709 14.8147 5.90737 14.8147C6.4085 14.8147 6.81474 14.4085 6.81474 13.9074C6.81474 13.8471 6.80886 13.7882 6.79765 13.7312L18.4166 13.7312C18.4054 13.7882 18.3995 13.8471 18.3995 13.9074C18.3995 14.4085 18.8058 14.8147 19.3069 14.8147C19.3672 14.8147 19.4261 14.8089 19.4831 14.7976V18.4945C19.4261 18.4833 19.3672 18.4774 19.3069 18.4774C18.8058 18.4774 18.3995 18.8836 18.3995 19.3848C18.3995 19.445 18.4054 19.5039 18.4166 19.5609L6.79742 19.5609Z" fill="#4B6A58"/>
<circle cx="8.01659" cy="16.6455" r="0.628893" fill="#4B6A58"/>
<circle cx="17.1973" cy="16.6455" r="0.628893" fill="#4B6A58"/>
<circle cx="12.579" cy="16.6454" r="2.54873" fill="#4B6A58"/>
</svg>
