<svg width="24" height="24" viewBox="0 0 24 24" fill="none" xmlns="http://www.w3.org/2000/svg">
<path d="M20.7494 12.0002L21.8534 10.0922C21.9861 9.86262 22.0221 9.58977 21.9537 9.33361C21.8853 9.07745 21.7179 8.85896 21.4884 8.72618L19.5784 7.62218V5.42218C19.5784 5.15696 19.473 4.90261 19.2855 4.71507C19.0979 4.52754 18.8436 4.42218 18.5784 4.42218H16.3794L15.2764 2.51318C15.1438 2.28351 14.9255 2.11589 14.6694 2.04718C14.5425 2.01318 14.4102 2.00451 14.2799 2.02167C14.1497 2.03883 14.0241 2.08148 13.9104 2.14718L12.0004 3.25118L10.0904 2.14618C9.86069 2.01358 9.58775 1.97764 9.33157 2.04628C9.0754 2.11492 8.85698 2.28251 8.72437 2.51218L7.62037 4.42218H5.42137C5.15616 4.42218 4.9018 4.52754 4.71427 4.71507C4.52673 4.90261 4.42137 5.15696 4.42137 5.42218V7.62118L2.51137 8.72518C2.3976 8.79093 2.2979 8.87845 2.21798 8.98275C2.13805 9.08705 2.07946 9.20608 2.04557 9.33304C2.01167 9.45999 2.00312 9.59238 2.02042 9.72264C2.03772 9.8529 2.08052 9.97847 2.14637 10.0922L3.25037 12.0002L2.14637 13.9082C2.01436 14.138 1.97854 14.4106 2.04673 14.6667C2.11492 14.9227 2.28158 15.1415 2.51037 15.2752L4.42037 16.3792V18.5782C4.42037 18.8434 4.52573 19.0978 4.71327 19.2853C4.9008 19.4728 5.15516 19.5782 5.42037 19.5782H7.62037L8.72437 21.4882C8.8129 21.6395 8.93931 21.7652 9.09115 21.8529C9.24299 21.9405 9.41504 21.9872 9.59037 21.9882C9.76437 21.9882 9.93737 21.9422 10.0914 21.8532L11.9994 20.7492L13.9094 21.8532C14.1389 21.9859 14.4118 22.022 14.6679 21.9535C14.9241 21.8851 15.1426 21.7177 15.2754 21.4882L16.3784 19.5782H18.5774C18.8426 19.5782 19.0969 19.4728 19.2845 19.2853C19.472 19.0978 19.5774 18.8434 19.5774 18.5782V16.3792L21.4874 15.2752C21.6011 15.2094 21.7008 15.1219 21.7808 15.0176C21.8607 14.9133 21.9193 14.7943 21.9532 14.6673C21.9871 14.5404 21.9956 14.408 21.9783 14.2777C21.961 14.1475 21.9182 14.0219 21.8524 13.9082L20.7494 12.0002ZM9.49937 6.99018C9.89733 6.99031 10.2789 7.14853 10.5602 7.43002C10.8415 7.71151 10.9995 8.09322 10.9994 8.49118C10.9992 8.88914 10.841 9.27074 10.5595 9.55205C10.278 9.83335 9.89633 9.99131 9.49837 9.99118C9.10042 9.99105 8.71881 9.83283 8.43751 9.55134C8.1562 9.26985 7.99824 8.88814 7.99837 8.49018C7.99851 8.09222 8.15672 7.71062 8.43821 7.42931C8.7197 7.14801 9.10141 6.99005 9.49937 6.99018ZM9.79937 16.5902L8.19937 15.3912L14.1994 7.39118L15.7994 8.59018L9.79937 16.5902ZM14.4994 16.9902C14.3023 16.9901 14.1072 16.9512 13.9252 16.8758C13.7432 16.8003 13.5778 16.6897 13.4385 16.5503C13.2992 16.411 13.1887 16.2455 13.1134 16.0634C13.0381 15.8814 12.9993 15.6862 12.9994 15.4892C12.9994 15.2921 13.0383 15.097 13.1138 14.915C13.1893 14.733 13.2998 14.5676 13.4392 14.4283C13.5786 14.289 13.744 14.1786 13.9261 14.1032C14.1082 14.0279 14.3033 13.9891 14.5004 13.9892C14.8983 13.9893 15.2799 14.1475 15.5612 14.429C15.8425 14.7105 16.0005 15.0922 16.0004 15.4902C16.0002 15.8881 15.842 16.2697 15.5605 16.551C15.279 16.8324 14.8973 16.9903 14.4994 16.9902Z" fill="white"/>
</svg>
