<svg width="161" height="37" viewBox="0 0 161 37" fill="none" xmlns="http://www.w3.org/2000/svg">
<path d="M25.3873 22.2383C25.3873 22.2433 25.3923 22.2517 25.399 22.2568C25.4041 22.2517 25.4108 22.2433 25.4108 22.2383H25.3873ZM25.3873 22.2383C25.3873 22.2433 25.3923 22.2517 25.399 22.2568C25.4041 22.2517 25.4108 22.2433 25.4108 22.2383H25.3873ZM25.3873 22.2383C25.3873 22.2433 25.3923 22.2517 25.399 22.2568C25.4041 22.2517 25.4108 22.2433 25.4108 22.2383H25.3873ZM25.3873 22.2383C25.3873 22.2433 25.3923 22.2517 25.399 22.2568C25.4041 22.2517 25.4108 22.2433 25.4108 22.2383H25.3873ZM25.3873 22.2383C25.3873 22.2433 25.3923 22.2517 25.399 22.2568C25.4041 22.2517 25.4108 22.2433 25.4108 22.2383H25.3873ZM25.3873 22.2383C25.3873 22.2433 25.3923 22.2517 25.399 22.2568C25.4041 22.2517 25.4108 22.2433 25.4108 22.2383H25.3873ZM25.3873 22.2383C25.3873 22.2433 25.3923 22.2517 25.399 22.2568C25.4041 22.2517 25.4108 22.2433 25.4108 22.2383H25.3873ZM25.3873 22.2383C25.3873 22.2433 25.3923 22.2517 25.399 22.2568C25.4041 22.2517 25.4108 22.2433 25.4108 22.2383H25.3873ZM25.3873 22.2383C25.3873 22.2433 25.3923 22.2517 25.399 22.2568C25.4041 22.2517 25.4108 22.2433 25.4108 22.2383H25.3873ZM25.3873 22.2383C25.3873 22.2433 25.3923 22.2517 25.399 22.2568C25.4041 22.2517 25.4108 22.2433 25.4108 22.2383H25.3873ZM25.3873 22.2383C25.3873 22.2433 25.3923 22.2517 25.399 22.2568C25.4041 22.2517 25.4108 22.2433 25.4108 22.2383H25.3873ZM25.3873 22.2383C25.3873 22.2433 25.3923 22.2517 25.399 22.2568C25.4041 22.2517 25.4108 22.2433 25.4108 22.2383H25.3873ZM25.3873 22.2383C25.3873 22.2433 25.3923 22.2517 25.399 22.2568C25.4041 22.2517 25.4108 22.2433 25.4108 22.2383H25.3873ZM25.3873 22.2383C25.3873 22.2433 25.3923 22.2517 25.399 22.2568C25.4041 22.2517 25.4108 22.2433 25.4108 22.2383H25.3873Z" fill="#7D1A52"/>
<path d="M25.3858 22.2378C25.3858 22.2428 25.3908 22.2513 25.3975 22.2563C25.4026 22.2513 25.4093 22.2428 25.4093 22.2378H25.3858Z" fill="#B3B2B3"/>
<path d="M50.2879 16.9021C50.2879 16.9071 50.2879 16.9138 50.2829 16.9238H50.2879V36.3101C48.8054 36.3101 47.4651 35.7094 46.4946 34.7389C45.832 34.0763 45.3418 33.2397 45.0975 32.306C44.9837 31.8709 44.9234 31.4141 44.9234 30.9456V14.101C44.9234 13.5756 44.8732 13.062 44.7829 12.56C44.7444 12.3508 44.6976 12.1417 44.6423 11.9392C44.5972 11.7652 44.5453 11.5878 44.4851 11.4188C44.4733 11.3686 44.4566 11.3218 44.4349 11.2783C44.4215 11.2331 44.4047 11.1812 44.383 11.1377C43.1866 7.94684 40.1028 5.67791 36.5003 5.67791C32.8978 5.67791 29.819 7.94851 28.6227 11.1377C28.6009 11.1829 28.5842 11.2348 28.5725 11.2783C28.5507 11.3235 28.534 11.3686 28.5223 11.4188C28.4152 11.7351 28.3231 12.058 28.2562 12.3843C28.2161 12.058 28.1659 11.7351 28.104 11.4188C28.0973 11.3736 28.0855 11.3285 28.0738 11.2783C28.0688 11.2331 28.0571 11.1879 28.0454 11.1377C27.617 9.13819 26.757 7.29762 25.5723 5.71138C28.0906 2.43014 32.0545 0.313477 36.5003 0.313477C39.544 0.313477 42.3617 1.30738 44.6423 2.98398C44.6875 3.0141 44.7394 3.05259 44.7829 3.08605C44.8348 3.11952 44.8799 3.15967 44.9234 3.19983C47.4367 5.14247 49.2605 7.93178 49.9599 11.1394C49.9767 11.1846 49.9884 11.2364 49.9934 11.2799C50.0068 11.3251 50.0168 11.377 50.0235 11.4205C50.1975 12.2889 50.2896 13.1824 50.2896 14.1027V16.9021H50.2879Z" fill="#B3B2B3"/>
<path d="M44.6407 16.2632V25.2134C42.3601 26.89 39.5423 27.8839 36.4987 27.8839C32.0663 27.8839 28.1191 25.784 25.6008 22.5195C25.5891 22.5144 25.5841 22.5027 25.5791 22.491C25.5456 22.4576 25.5172 22.4174 25.4887 22.3789C25.4887 22.3789 25.4887 22.3789 25.4887 22.3739C25.4552 22.3337 25.4268 22.2952 25.3984 22.2551C25.4034 22.2501 25.4101 22.2434 25.4101 22.2384H25.3866C24.2689 20.719 23.4557 18.9688 23.0441 17.0663H28.6227C29.5714 19.5896 31.6998 21.5389 34.3369 22.2384C34.5393 22.2952 34.7485 22.3404 34.9643 22.3789C35.4613 22.4693 35.975 22.5195 36.5004 22.5195C37.0258 22.5195 37.5394 22.4693 38.0364 22.3789C38.2506 22.3388 38.4597 22.2936 38.6639 22.2384C41.3009 21.5389 43.436 19.5896 44.3847 17.0663C44.4065 17.0212 44.4249 16.976 44.4349 16.9258C44.4583 16.8806 44.4751 16.8354 44.4851 16.7852C44.5453 16.6129 44.5955 16.4372 44.6407 16.2632Z" fill="#B3B2B3"/>
<path d="M25.3873 22.2383C25.3873 22.2433 25.3923 22.2517 25.399 22.2568C25.4041 22.2517 25.4108 22.2433 25.4108 22.2383H25.3873ZM25.3873 22.2383C25.3873 22.2433 25.3923 22.2517 25.399 22.2568C25.4041 22.2517 25.4108 22.2433 25.4108 22.2383H25.3873ZM25.3873 22.2383C25.3873 22.2433 25.3923 22.2517 25.399 22.2568C25.4041 22.2517 25.4108 22.2433 25.4108 22.2383H25.3873Z" fill="#7D1A52"/>
<path d="M33.7023 27.8892H14.2892C9.85681 27.8892 5.90961 25.7893 3.38468 22.5248C3.34452 22.4796 3.30604 22.4345 3.27257 22.3843C3.23911 22.3391 3.20397 22.2939 3.1705 22.2437C2.05277 20.7244 1.23958 18.9742 0.827957 17.0717C0.811224 17.0265 0.799512 16.9813 0.794492 16.9311C0.782779 16.886 0.771066 16.8408 0.766047 16.7906C0.590355 15.9272 0.5 15.0287 0.5 14.1084C0.5 13.1881 0.590355 12.2962 0.766047 11.4262C0.771066 11.381 0.782779 11.3308 0.794492 11.2856C0.799512 11.2404 0.811224 11.1902 0.827957 11.145C2.18329 4.96239 7.70501 0.320801 14.2892 0.320801C18.7334 0.320801 22.6973 2.43914 25.2206 5.7187C25.249 5.75217 25.2825 5.79233 25.3059 5.83081C25.3394 5.87097 25.3678 5.90945 25.3963 5.94961C26.5207 7.46892 27.3389 9.23085 27.7505 11.145C27.7673 11.1902 27.779 11.2404 27.784 11.2856C27.7957 11.3308 27.8074 11.381 27.8124 11.4262C27.9881 12.2962 28.0785 13.1881 28.0785 14.1084C28.0785 14.515 28.1069 14.9166 28.1638 15.3047C28.1872 15.4804 28.2207 15.6494 28.2542 15.8184C28.3211 16.1514 28.4115 16.4727 28.5202 16.7889H6.60401C6.3045 15.954 6.14721 15.0504 6.14721 14.1067C6.14721 13.163 6.30617 12.2594 6.60401 11.4245H22.274C22.2623 11.3743 22.2455 11.3291 22.2238 11.2839C22.2121 11.2388 22.1953 11.1886 22.1736 11.1434C20.9772 7.95249 17.8934 5.68357 14.2909 5.68357C10.6884 5.68357 7.60461 7.95416 6.40824 11.1434C6.38482 11.1886 6.36808 11.2388 6.35804 11.2839C6.33462 11.3291 6.32458 11.3743 6.30785 11.4245C6.02005 12.2661 5.86778 13.1697 5.86778 14.1067C5.86778 15.0437 6.02005 15.9473 6.30785 16.7889C6.32458 16.8391 6.34131 16.8843 6.35804 16.9295C6.37478 16.9797 6.39151 17.0248 6.40824 17.07C7.36199 19.5933 9.49204 21.5426 12.1291 22.242C12.3315 22.2989 12.5407 22.3441 12.7565 22.3826C13.2535 22.4729 13.7672 22.5231 14.2926 22.5231H25.2423C25.2658 22.5516 25.2825 22.58 25.3093 22.6085C25.3377 22.6486 25.3661 22.6871 25.3996 22.7273C27.4242 25.3359 30.3491 27.2116 33.7023 27.8892Z" fill="#7D1A52"/>
<path d="M50.287 16.9053V16.9288H50.2819C50.287 16.917 50.287 16.9103 50.287 16.9053Z" fill="#7D1A52"/>
<path d="M50.2819 16.9271H50.287V16.9053C50.287 16.9103 50.287 16.9154 50.2819 16.9271Z" fill="#7D1A52"/>
<path d="M50.2883 16.9004V16.9239H50.2833C50.2883 16.9122 50.2883 16.9054 50.2883 16.9004Z" fill="#7D1A52"/>
<path d="M91.0318 28.3241C90.6754 28.5617 90.1784 28.8077 89.5326 29.052C89.0557 29.139 88.7043 29.1825 88.4684 29.1825H88.219C86.9992 29.1825 85.8782 28.6203 84.8491 27.4875C84.22 26.604 83.9104 25.6921 83.9104 24.7551C83.9104 23.3261 84.5463 22.1197 85.8196 21.1425C86.6378 20.6004 87.4912 20.3276 88.378 20.3276C89.32 20.3276 90.1952 20.6171 91.0033 21.2011L90.4445 22.7003C90.2504 22.5999 90.0061 22.4343 89.7166 22.2134C89.3016 22.0026 88.8883 21.8988 88.47 21.8988H88.2877C87.1749 21.8988 86.33 22.4928 85.746 23.6842C85.6071 24.0924 85.5385 24.4606 85.5385 24.7885C85.5385 25.9565 86.1359 26.8399 87.3339 27.4373C87.6752 27.5711 88.0484 27.6381 88.4466 27.6381C89.0992 27.6381 89.7685 27.3519 90.4495 26.7814H90.4562L91.0318 28.3241Z" fill="#7D1A52"/>
<path d="M110.178 20.394C109.298 20.394 108.45 20.6651 107.637 21.2089C106.373 22.1777 105.742 23.3724 105.742 24.7897C105.742 25.72 106.052 26.6252 106.673 27.507C107.703 28.6264 108.82 29.1853 110.021 29.1853H110.27C110.918 29.1853 111.585 29.0113 112.271 28.6616C113.833 27.7195 114.614 26.4294 114.614 24.7897C114.614 23.6435 114.176 22.6128 113.302 21.6992C112.372 20.8291 111.329 20.394 110.178 20.394ZM112.961 24.8466C112.961 25.1896 112.892 25.5443 112.753 25.9091C112.171 27.0452 111.344 27.6124 110.27 27.6124H110.088C109.678 27.6124 109.296 27.5187 108.942 27.3297C107.911 26.7474 107.397 25.9208 107.397 24.8466V24.6976C107.397 24.4366 107.444 24.1522 107.538 23.8426C108.097 22.591 108.967 21.9652 110.146 21.9652C110.744 21.9652 111.273 22.1258 111.733 22.4471C112.553 23.0562 112.963 23.8075 112.963 24.6976V24.8466H112.961Z" fill="#7D1A52"/>
<path d="M133.258 20.3938C132.807 21.5266 131.515 24.5786 129.984 28.2195C129.418 29.6284 129.003 30.6273 128.737 31.213C128.101 31.213 127.628 30.6909 127.628 30.1086C127.628 29.9748 127.655 29.8326 127.712 29.6937C127.902 29.2268 128.137 28.6579 128.416 27.9836L125.312 20.3921H126.945C126.952 20.4088 126.955 20.4272 126.962 20.444C127.887 22.6409 129.007 25.3482 129.259 25.9623C130.188 23.6867 131.093 21.5767 131.619 20.3921H133.258V20.3938Z" fill="#7D1A52"/>
<path d="M142.742 22.8213C141.765 21.1748 140.431 20.3516 138.736 20.3516C138.073 20.3516 137.389 20.5139 136.691 20.8418C135.082 21.8056 134.273 23.104 134.273 24.7371C134.273 25.47 134.456 26.1945 134.816 26.9124C135.825 28.425 137.088 29.1813 138.611 29.1813H138.852C139.946 29.1813 140.851 28.8533 141.559 28.1974C141.562 28.1907 141.569 28.1874 141.572 28.184V28.1974L141.566 28.3246C141.624 28.773 141.987 29.1261 142.436 29.1779C142.471 29.1779 142.504 29.1813 142.543 29.1813H143.189V24.861C143.192 24.1616 143.04 23.4772 142.742 22.8213ZM141.562 24.8626C141.562 25.2843 141.445 25.726 141.214 26.1929C140.588 27.1567 139.802 27.6402 138.855 27.6402H138.614C138.331 27.6402 138.013 27.575 137.657 27.4394C136.489 26.8521 135.907 25.972 135.907 24.7974V24.707C135.907 24.441 135.965 24.1164 136.079 23.7332C136.673 22.51 137.546 21.8993 138.708 21.8993H138.739C139.143 21.8993 139.531 21.983 139.904 22.1486C141.013 22.746 141.566 23.6094 141.566 24.7388V24.8626H141.562Z" fill="#7D1A52"/>
<path d="M149.637 22.0663V20.5118H148.77H148.539H147.319V17.3042H145.716V20.5118H144.211V20.8883V21.6513V22.0663H145.716V26.5171C145.716 26.8768 145.758 27.1981 145.847 27.4809C146.351 28.617 147.139 29.1843 148.206 29.1843H148.845C148.869 29.1843 148.891 29.1809 148.914 29.1809V29.1843H149.635V27.665H148.578L147.922 27.6064C147.519 27.4675 147.318 27.0442 147.318 26.3347V22.0663H149.637Z" fill="#7D1A52"/>
<path d="M97.4747 22.0663V20.5118H96.608H96.3771H95.1573V17.3042H93.5543V20.5118H92.0484V20.8883V21.6513V22.0663H93.5543V26.5171C93.5543 26.8768 93.5961 27.1981 93.6848 27.4809C94.1884 28.617 94.9766 29.1843 96.0441 29.1843H96.6833C96.7067 29.1843 96.7284 29.1809 96.7519 29.1809V29.1843H97.473V27.665H96.4155L95.7596 27.6064C95.3564 27.4675 95.1556 27.0442 95.1556 26.3347V22.0663H97.4747Z" fill="#7D1A52"/>
<path d="M72.2048 27.6311H72.1378H71.7563V18.0718V17.6618V16.9976H71.0084H70.8595H70.1199V17.8359V18.0718V28.4041C70.2136 28.9245 70.483 29.1855 70.9264 29.1855H72.1395H73.9634V28.4292V28.379V27.6311H72.2048Z" fill="#7D1A52"/>
<path d="M104.724 20.7063L104.189 22.1319L104.186 22.1353C103.637 21.9629 103.235 21.8726 102.984 21.8726H102.802C101.669 21.8726 100.841 22.4699 100.309 23.6613C100.192 23.9825 100.133 24.349 100.133 24.7623V29.183H98.4966V21.2083C98.4966 21.1916 98.4966 21.1732 98.4999 21.1564C98.5066 21.0878 98.5166 21.0259 98.5317 20.9623C98.535 20.949 98.5384 20.9389 98.5417 20.9272C98.6522 20.5859 98.9567 20.3265 99.3298 20.288C99.3399 20.2847 99.3499 20.2847 99.365 20.2847C99.3683 20.2847 99.3683 20.2847 99.3717 20.288C99.3884 20.2847 99.4068 20.2847 99.4235 20.2847H100.135V21.2418C100.849 20.6026 101.758 20.2847 102.859 20.2847C103.436 20.288 104.058 20.4252 104.724 20.7063Z" fill="#7D1A52"/>
<path d="M123.276 21.8896C122.322 20.8672 121.228 20.3535 119.991 20.3535C118.868 20.3535 117.956 20.6714 117.259 21.3006V21.0513V20.3535H116.578C116.554 20.3535 116.529 20.3535 116.506 20.3569C116.272 20.3736 116.064 20.4773 115.908 20.6296C115.785 20.7534 115.698 20.909 115.656 21.0814C115.646 21.1199 115.639 21.16 115.636 21.2019C115.636 21.2052 115.636 21.2052 115.636 21.2052C115.632 21.2119 115.632 21.2186 115.632 21.2253V29.1816H117.259V25.2043C117.259 24.4413 117.334 23.8924 117.483 23.5611C118.06 22.4702 118.865 21.9247 119.901 21.9247H119.991C120.225 21.9247 120.491 21.9632 120.789 22.0385C122.043 22.502 122.668 23.4724 122.668 24.9566V28.4269C122.668 28.4788 122.672 28.5273 122.682 28.5725C122.688 28.601 122.695 28.6277 122.702 28.6511C122.712 28.6896 122.725 28.7231 122.744 28.7582C122.754 28.7783 122.767 28.8034 122.779 28.8235C122.899 29.0059 123.12 29.1247 123.441 29.1832H124.295V24.5484C124.295 23.6164 123.955 22.7312 123.276 21.8896Z" fill="#7D1A52"/>
<path d="M59.6528 21.092C60.2702 20.1567 61.0048 19.571 61.8581 19.3284C61.9201 19.3133 61.982 19.2966 62.0439 19.2849C62.0824 19.2765 62.1208 19.2665 62.1593 19.2615C62.2614 19.2414 62.3618 19.2247 62.4622 19.2113C62.5626 19.1979 62.663 19.1878 62.7617 19.1828H67.6191H69.1016V16.9976H62.7617V17.0009C62.6797 17.0043 62.5994 17.0076 62.5191 17.0126C62.5191 17.0126 62.5191 17.0126 62.5174 17.0126C60.7873 17.108 59.3432 17.8626 58.187 19.2749C58.1552 19.31 58.1251 19.3451 58.0984 19.3819C57.9511 19.5593 57.8172 19.7417 57.6968 19.9308C57.6884 19.9425 57.6817 19.9508 57.6767 19.9626C57.6265 20.0429 57.5763 20.1215 57.5294 20.2068C57.1044 20.9565 56.8652 21.7897 56.815 22.705C56.8066 22.8355 56.8033 22.9644 56.8033 23.0949C56.8033 23.2254 56.8066 23.3526 56.815 23.4764C56.8719 24.3364 57.1078 25.1714 57.5294 25.9745C57.5495 26.013 57.5713 26.0549 57.5914 26.0933C57.6181 26.1352 57.6482 26.1787 57.6767 26.2205C57.6834 26.2322 57.6884 26.2406 57.6968 26.2523C57.8273 26.4447 57.9595 26.6271 58.0984 26.8011C58.1285 26.8363 58.1569 26.8714 58.187 26.9082C59.3449 28.3204 60.7889 29.0751 62.5191 29.1704C62.5994 29.1771 62.6814 29.1788 62.7617 29.1822V29.1855H69.1016V27.0002H62.7617C62.5642 26.9885 62.3635 26.9618 62.1593 26.9199C62.1208 26.9132 62.0824 26.9049 62.0439 26.8965C61.982 26.8848 61.9201 26.8697 61.8581 26.853C61.6724 26.8028 61.4833 26.7409 61.2876 26.6673C60.2485 26.1034 59.6009 25.3738 59.3416 24.482H69.1016V23.1802C69.1016 23.1501 69.1016 23.1233 69.0983 23.0949C69.0949 22.8439 69.0799 22.5996 69.0514 22.357H59.1592C59.1793 22.1645 59.2412 21.9487 59.3449 21.7044C59.4219 21.5153 59.5256 21.3112 59.6528 21.092Z" fill="#7D1A52"/>
<path d="M82.8927 24.8216C82.8927 24.0837 82.7321 23.3994 82.4108 22.7702C81.4638 21.1472 80.1269 20.334 78.3984 20.334C77.7274 20.334 77.0146 20.5231 76.2633 20.8995C74.7306 21.8583 73.9626 23.1417 73.9626 24.7547C73.9626 25.511 74.1534 26.2405 74.5349 26.9383C75.4786 28.4007 76.7285 29.1487 78.2896 29.1804V29.1821H78.3984H78.6293H82.8927V27.5959H80.167H78.6209H78.288C77.95 27.5758 77.5936 27.4972 77.2188 27.3533C76.4641 26.9433 75.9939 26.4146 75.8065 25.767H82.8927V24.8216ZM75.6743 24.2243C75.7028 23.98 75.8199 23.6755 76.0324 23.309C76.6348 22.3954 77.3944 21.9386 78.308 21.9386H78.6494C79.2518 21.9386 79.8709 22.2348 80.5017 22.8288C80.9719 23.4696 81.2078 23.9348 81.2078 24.2243H75.6743Z" fill="#7D1A52"/>
<path d="M72.0091 10.6998L60.4436 10.683V10.6914C59.9817 10.6797 59.5216 10.4437 59.0598 9.98193C58.598 9.52179 58.3687 8.95121 58.3687 8.27522C58.3687 7.58752 58.6047 7.00522 59.0782 6.53337C59.545 6.06653 60.1022 5.83228 60.7498 5.83228C61.409 5.83228 61.9729 6.06653 62.4397 6.53337C62.9116 7.00522 63.1492 7.63939 63.1492 8.43251H64.7505V8.20494C64.7505 7.11398 64.3657 6.18366 63.5943 5.41229C62.8296 4.64761 61.8876 4.26611 60.7665 4.26611C59.6571 4.26611 58.7218 4.64761 57.9571 5.41229C57.1874 6.18198 56.8009 7.11398 56.8009 8.20494C56.8009 9.28419 57.1858 10.2095 57.9571 10.9792C58.6984 11.7204 59.5802 12.1086 60.6008 12.1438H73.5401V4.28285H72.0074V10.6998H72.0091Z" fill="#7D1A52"/>
<path d="M65.6609 3.2867C65.9588 3.2867 66.2131 3.18128 66.4223 2.97213C66.6197 2.77468 66.7201 2.54043 66.7201 2.27103C66.7201 1.9916 66.6214 1.75233 66.4223 1.55321C66.2231 1.35577 65.9705 1.25537 65.6609 1.25537C65.3397 1.25537 65.0853 1.34908 64.8996 1.53481C64.6904 1.74564 64.585 1.98993 64.585 2.26936C64.585 2.53708 64.6904 2.77636 64.8996 2.98718C65.097 3.18797 65.3514 3.2867 65.6609 3.2867Z" fill="#7D1A52"/>
<path d="M63.1498 3.2867C63.4477 3.2867 63.702 3.18463 63.9112 2.9805C64.1153 2.77636 64.2174 2.54043 64.2174 2.27103C64.2174 1.9916 64.1153 1.74898 63.9112 1.54484C63.7121 1.35242 63.4594 1.25537 63.1498 1.25537C62.8286 1.25537 62.5742 1.34908 62.3885 1.53481C62.1777 1.74564 62.0739 1.98993 62.0739 2.26936C62.0739 2.53708 62.1794 2.77636 62.3885 2.98718C62.586 3.18797 62.8403 3.2867 63.1498 3.2867Z" fill="#7D1A52"/>
<path d="M83.766 13.0391C83.4564 13.0391 83.2004 13.1378 82.9963 13.3369C82.7922 13.5343 82.6901 13.7753 82.6901 14.0547C82.6901 14.3342 82.7922 14.5734 82.9963 14.7725C83.2004 14.97 83.4564 15.0704 83.766 15.0704C84.0571 15.0704 84.3081 14.9717 84.519 14.7725C84.7298 14.5734 84.8335 14.3342 84.8335 14.0547C84.8335 13.7753 84.7281 13.536 84.519 13.3369C84.3081 13.1378 84.0588 13.0391 83.766 13.0391Z" fill="#7D1A52"/>
<path d="M86.2813 13.0391C85.9718 13.0391 85.7158 13.1378 85.5117 13.3369C85.3075 13.5343 85.2054 13.7753 85.2054 14.0547C85.2054 14.3342 85.3075 14.5734 85.5117 14.7725C85.7158 14.97 85.9718 15.0704 86.2813 15.0704C86.5792 15.0704 86.8302 14.9717 87.0343 14.7725C87.2384 14.5734 87.3405 14.3342 87.3405 14.0547C87.3405 13.7753 87.2384 13.536 87.0343 13.3369C86.8285 13.1378 86.5775 13.0391 86.2813 13.0391Z" fill="#7D1A52"/>
<path d="M95.9278 10.7021H88.3447H87.5482H87.2688V4.28684H85.7361V10.7021H82.9351H77.077H75.8773V1.03906H74.3463V12.1478H77.077H82.9351H87.5482H88.3447H97.4605V4.28684H95.9278V10.7021Z" fill="#7D1A52"/>
<path d="M95.8603 3.2867C96.1515 3.2867 96.4025 3.18798 96.6133 2.98886C96.8241 2.79142 96.9279 2.55047 96.9279 2.27103C96.9279 1.9916 96.8224 1.75233 96.6133 1.55321C96.4025 1.35577 96.1515 1.25537 95.8603 1.25537C95.5508 1.25537 95.2948 1.35409 95.0906 1.55321C94.8865 1.75233 94.7844 1.9916 94.7844 2.27103C94.7844 2.55047 94.8865 2.78974 95.0906 2.98886C95.2931 3.18798 95.5508 3.2867 95.8603 3.2867Z" fill="#7D1A52"/>
<path d="M102.328 4.26611H102.241C101.132 4.26611 100.196 4.64761 99.4317 5.41229C98.662 6.18198 98.2755 7.11398 98.2755 8.20494V8.29195C98.2922 9.33104 98.6787 10.2262 99.4317 10.9792C100.173 11.7204 101.055 12.1086 102.075 12.1438H104.343C104.279 12.3077 104.135 12.5002 103.914 12.721C103.436 13.1996 102.867 13.4389 102.208 13.4389H101.972V14.918H102.278C103.399 14.918 104.344 14.5332 105.114 13.7635C105.621 13.2615 105.962 12.6692 106.138 11.9865L106.225 10.8838V8.20494C106.225 7.11398 105.844 6.18868 105.079 5.4307C104.306 4.67272 103.389 4.28452 102.328 4.26611ZM104.62 10.6998H102.134C101.527 10.683 100.993 10.4437 100.533 9.98193C100.071 9.52179 99.8417 8.95791 99.8417 8.29195V8.27355C99.8417 7.58584 100.078 7.00355 100.551 6.53169C101.018 6.06486 101.575 5.8306 102.223 5.8306H102.328C102.947 5.84733 103.474 6.0749 103.913 6.51329C104.385 7.00355 104.622 7.59086 104.622 8.27187V10.6998H104.62Z" fill="#7D1A52"/>
<path d="M120.381 3.2867C120.673 3.2867 120.924 3.18798 121.134 2.98886C121.345 2.79142 121.449 2.55047 121.449 2.27103C121.449 1.9916 121.343 1.75233 121.134 1.55321C120.925 1.35577 120.673 1.25537 120.381 1.25537C120.072 1.25537 119.816 1.35409 119.612 1.55321C119.408 1.75233 119.305 1.9916 119.305 2.27103C119.305 2.55047 119.408 2.78974 119.612 2.98886C119.814 3.18798 120.072 3.2867 120.381 3.2867Z" fill="#7D1A52"/>
<path d="M117.876 3.2867C118.174 3.2867 118.425 3.18798 118.629 2.98886C118.834 2.79142 118.936 2.55047 118.936 2.27103C118.936 1.9916 118.834 1.75233 118.629 1.55321C118.425 1.35577 118.174 1.25537 117.876 1.25537C117.574 1.25537 117.316 1.35409 117.107 1.55321C116.898 1.75233 116.792 1.9916 116.792 2.27103C116.792 2.55047 116.898 2.78974 117.107 2.98886C117.316 3.18798 117.572 3.2867 117.876 3.2867Z" fill="#7D1A52"/>
<path d="M143.871 10.7004H142.681H136.962H135.958C136.557 9.9893 136.857 9.1577 136.857 8.20562C136.857 7.12637 136.477 6.20107 135.719 5.43137C134.972 4.67841 134.067 4.29022 133.005 4.26679H131.333L133.267 1.74521L132.078 0.834961L128.348 5.6673L129.223 6.34162L129.442 6.69133C130.031 6.13079 130.627 5.84467 131.228 5.83295H132.996C133.609 5.85638 134.139 6.08394 134.589 6.51564C135.056 6.99921 135.29 7.58652 135.29 8.27422C135.29 8.95189 135.059 9.52079 134.599 9.98094C134.144 10.4361 133.61 10.6753 132.998 10.6988H127.562H121.545H121.265V4.28185H119.733V10.6988H116.923H111.351H110.888V4.62319L109.286 4.63993V10.8644L109.086 11.9319C108.98 12.2231 108.808 12.4925 108.569 12.7368C108.09 13.2036 107.524 13.4379 106.87 13.4379H106.634V14.917H106.941C108.05 14.917 108.995 14.5322 109.777 13.7625C110.29 13.2488 110.62 12.7083 110.766 12.1428H111.351H116.921H121.543H127.56H136.962H142.681H145.403V1.03408H143.872V10.7004H143.871Z" fill="#7D1A52"/>
<path d="M148.587 1.03906H146.218V12.1478H148.587V1.03906Z" fill="#7D1A52"/>
<path d="M149.79 15.4555V16.7154H145.565V15.4555H145.592C145.621 15.4839 145.636 15.2229 145.636 14.674C145.636 14.1353 145.841 13.6601 146.253 13.2484C146.653 12.8485 147.153 12.6494 147.757 12.6494C148.388 12.6494 148.878 12.8586 149.226 13.2752C149.551 13.6868 149.681 14.2942 149.618 15.1007H148.418C148.418 14.6205 148.343 14.3043 148.192 14.1537C148.07 14.0198 147.926 13.9546 147.757 13.9546C147.588 13.9546 147.448 14.0215 147.331 14.1537C147.18 14.3043 147.105 14.49 147.105 14.7092C147.105 14.9301 147.168 15.1041 147.295 15.2312C147.434 15.3701 147.58 15.4454 147.73 15.4571H149.79V15.4555Z" fill="#7D1A52"/>
<path d="M160.796 4.61582C160.801 6.98681 158.856 8.95455 156.419 8.91774C154.094 8.8826 152.16 6.97677 152.185 4.57231C152.209 2.19128 154.091 0.447758 156.176 0.317244C157.421 0.238602 158.507 0.618427 159.425 1.46007C160.302 2.2649 160.796 3.40941 160.796 4.61582ZM160.143 4.58905C160.15 2.64641 158.542 0.983195 156.541 0.958096C154.494 0.931324 152.858 2.59286 152.834 4.56227C152.808 6.62706 154.499 8.24844 156.439 8.27019C158.487 8.29195 160.168 6.61368 160.143 4.58905Z" fill="#7D1A52"/>
<path d="M154.914 2.43108C154.934 2.42941 154.949 2.42773 154.965 2.42773C155.569 2.42941 156.173 2.42606 156.777 2.43275C157.063 2.4361 157.344 2.48128 157.617 2.57665C158.052 2.72724 158.291 3.04014 158.368 3.48355C158.415 3.75127 158.411 4.02066 158.351 4.28671C158.244 4.75689 157.946 5.04804 157.496 5.19529C157.486 5.19864 157.476 5.20198 157.458 5.20867C157.837 5.73575 158.214 6.25947 158.595 6.78989C158.567 6.79157 158.549 6.79324 158.532 6.79324C158.259 6.79324 157.986 6.79324 157.714 6.79491C157.674 6.79491 157.648 6.78487 157.623 6.74973C157.305 6.29963 156.986 5.8512 156.668 5.4011C156.633 5.3509 156.596 5.3258 156.531 5.32747C156.263 5.33249 155.995 5.32915 155.728 5.32915C155.702 5.32915 155.679 5.32915 155.647 5.32915C155.647 5.81774 155.647 6.29963 155.647 6.78822C155.4 6.78822 155.159 6.78822 154.913 6.78822C154.914 5.33919 154.914 3.88848 154.914 2.43108ZM155.647 4.65148C155.664 4.65316 155.676 4.6565 155.687 4.6565C155.999 4.6565 156.31 4.6632 156.621 4.6565C156.777 4.65316 156.934 4.6381 157.086 4.60965C157.346 4.56447 157.531 4.42392 157.602 4.15787C157.652 3.96712 157.653 3.77303 157.612 3.57893C157.568 3.37647 157.453 3.23424 157.254 3.18237C157.086 3.13886 156.912 3.10707 156.74 3.10038C156.4 3.08699 156.059 3.09536 155.717 3.09536C155.696 3.09536 155.674 3.09703 155.649 3.0987C155.647 3.61908 155.647 4.1311 155.647 4.65148Z" fill="#7D1A52"/>
</svg>
