<svg width="61" height="25" viewBox="0 0 61 25" fill="none" xmlns="http://www.w3.org/2000/svg">
<g id="7123945_logo_pay_google_gpay_icon 1" clip-path="url(#clip0_15323_195697)">
<path id="Vector" d="M29.0921 12.1097V19.1951H26.8818V1.69746H32.7439C33.4436 1.6826 34.1393 1.80881 34.7908 2.0688C35.4424 2.32879 36.0368 2.71742 36.5398 3.21226C37.048 3.67705 37.4524 4.24708 37.7259 4.88402C37.9994 5.52096 38.1356 6.21006 38.1255 6.905C38.14 7.60366 38.0059 8.29726 37.7322 8.93826C37.4585 9.57925 37.0517 10.1525 36.5398 10.6187C35.5148 11.6127 34.2495 12.1093 32.7439 12.1083H29.0921V12.1097ZM29.0921 3.85168V9.95972H32.7988C33.2052 9.97197 33.6096 9.89783 33.9862 9.74205C34.3627 9.58627 34.7032 9.35227 34.9858 9.05503C35.2669 8.77711 35.4903 8.4447 35.6429 8.07745C35.7954 7.71019 35.8741 7.31555 35.8741 6.91687C35.8741 6.51818 35.7954 6.12354 35.6429 5.75629C35.4903 5.38903 35.2669 5.05662 34.9858 4.77871C34.7067 4.4752 34.3675 4.23547 33.9904 4.07541C33.6134 3.91535 33.2072 3.83861 32.7988 3.85029H29.0921V3.85168Z" fill="#CBCBCB"/>
<path id="Vector_2" d="M43.2191 6.83301C44.8528 6.83301 46.1423 7.27697 47.0878 8.16491C48.0332 9.05284 48.5055 10.2703 48.5046 11.8172V19.1957H46.3904V17.5343H46.2943C45.379 18.9025 44.1618 19.5866 42.6425 19.5866C41.3456 19.5866 40.2606 19.1957 39.3875 18.4138C38.9684 18.055 38.6334 17.6056 38.4069 17.0984C38.1803 16.5912 38.0678 16.039 38.0778 15.482C38.0778 14.2432 38.5381 13.258 39.4588 12.5264C40.3796 11.7948 41.6087 11.4281 43.1463 11.4263C44.4588 11.4263 45.5397 11.6706 46.389 12.1592V11.6454C46.3915 11.2657 46.3109 10.8902 46.153 10.5461C45.9951 10.202 45.7638 9.89793 45.476 9.65597C44.8915 9.11969 44.1298 8.82707 43.3426 8.83644C42.108 8.83644 41.131 9.36604 40.4116 10.4252L38.4649 9.17849C39.5357 7.61484 41.1204 6.83301 43.2191 6.83301ZM40.3594 15.5309C40.3579 15.8169 40.4237 16.0992 40.5512 16.3542C40.6787 16.6092 40.8643 16.8295 41.0925 16.9968C41.5814 17.3878 42.1881 17.595 42.81 17.5831C43.7427 17.5816 44.6367 17.204 45.2962 16.5333C46.0284 15.8324 46.3945 15.0101 46.3945 14.0663C45.7053 13.5079 44.7443 13.2286 43.5115 13.2286C42.6137 13.2286 41.865 13.4488 41.2655 13.889C40.6601 14.3358 40.3594 14.8789 40.3594 15.5309Z" fill="#CBCBCB"/>
<path id="Vector_3" d="M60.6406 7.22363L53.2601 24.4727H50.9784L53.7173 18.4373L48.8643 7.22363H51.2667L54.7744 15.8237H54.8224L58.234 7.22363H60.6406Z" fill="#CBCBCB"/>
<path id="Vector_4" d="M20.1608 10.583C20.1617 9.89798 20.1047 9.21417 19.9906 8.53906H10.6689V12.4105H16.008C15.8987 13.0288 15.6675 13.6183 15.3282 14.1433C14.9889 14.6683 14.5486 15.1179 14.0338 15.4652V17.9782H17.2202C19.0859 16.2289 20.1608 13.6419 20.1608 10.583Z" fill="#4285F4"/>
<path id="Vector_5" d="M10.6685 20.4056C13.3359 20.4056 15.5819 19.5148 17.2197 17.9791L14.0333 15.4661C13.1465 16.0776 12.0042 16.4266 10.6685 16.4266C8.09025 16.4266 5.90192 14.6591 5.1194 12.2773H1.83691V14.8672C2.65962 16.532 3.92114 17.9315 5.48065 18.9095C7.04016 19.8875 8.83627 20.4055 10.6685 20.4056Z" fill="#34A853"/>
<path id="Vector_6" d="M5.11919 12.2774C4.7055 11.0293 4.7055 9.67772 5.11919 8.42965V5.83984H1.83671C1.14462 7.24037 0.78418 8.78608 0.78418 10.3535C0.78418 11.9209 1.14462 13.4666 1.83671 14.8672L5.11919 12.2774Z" fill="#FBBC04"/>
<path id="Vector_7" d="M10.6685 4.28039C12.0781 4.25697 13.4402 4.7986 14.4603 5.7882L17.2815 2.91917C15.4925 1.21042 13.1226 0.272291 10.6685 0.301441C8.83627 0.301526 7.04016 0.819478 5.48065 1.79747C3.92114 2.77547 2.65962 4.17501 1.83691 5.83986L5.1194 8.42966C5.90192 6.04788 8.09025 4.28039 10.6685 4.28039Z" fill="#EA4335"/>
</g>
<defs>
<clipPath id="clip0_15323_195697">
<rect width="59.8522" height="24.1711" fill="white" transform="translate(0.78418 0.301758)"/>
</clipPath>
</defs>
</svg>
