<svg width="36" height="37" viewBox="0 0 36 37" fill="none" xmlns="http://www.w3.org/2000/svg">
<g clip-path="url(#clip0_1016_79296)">
<path d="M28.5 29.2903V15.1054L18 6.5923L7.5 15.1054V29.2903H28.5ZM31.5 30.8319C31.5 31.2408 31.342 31.6329 31.0607 31.9221C30.7794 32.2112 30.3978 32.3736 30 32.3736H6C5.60218 32.3736 5.22064 32.2112 4.93934 31.9221C4.65804 31.6329 4.5 31.2408 4.5 30.8319V14.3577C4.49991 14.1248 4.55115 13.8949 4.64987 13.6853C4.74859 13.4757 4.89223 13.2918 5.07 13.1475L17.07 3.41801C17.3348 3.20293 17.6625 3.08594 18 3.08594C18.3375 3.08594 18.6652 3.20293 18.93 3.41801L30.93 13.1459C31.108 13.2905 31.2517 13.4746 31.3505 13.6845C31.4492 13.8944 31.5003 14.1245 31.5 14.3577V30.8319ZM10.5 18.4986H13.5C13.5 19.7252 13.9741 20.9016 14.818 21.769C15.6619 22.6363 16.8065 23.1236 18 23.1236C19.1935 23.1236 20.3381 22.6363 21.182 21.769C22.0259 20.9016 22.5 19.7252 22.5 18.4986H25.5C25.5 20.543 24.7098 22.5036 23.3033 23.9492C21.8968 25.3948 19.9891 26.2069 18 26.2069C16.0109 26.2069 14.1032 25.3948 12.6967 23.9492C11.2902 22.5036 10.5 20.543 10.5 18.4986Z" fill="#010101"/>
</g>
<defs>
<clipPath id="clip0_1016_79296">
<rect width="36" height="37" fill="white"/>
</clipPath>
</defs>
</svg>
