<svg width="27" height="27" viewBox="0 0 27 27" fill="none" xmlns="http://www.w3.org/2000/svg">
<g id="Group 1000005401">
<g id="Clip path group">
<mask id="mask0_15343_266254" style="mask-type:luminance" maskUnits="userSpaceOnUse" x="0" y="0" width="27" height="27">
<g id="b">
<path id="Vector" d="M13.5 27C20.9558 27 27 20.9558 27 13.5C27 6.04416 20.9558 0 13.5 0C6.04416 0 0 6.04416 0 13.5C0 20.9558 6.04416 27 13.5 27Z" fill="white"/>
</g>
</mask>
<g mask="url(#mask0_15343_266254)">
<g id="Group">
<path id="Vector_2" d="M5.80078 54.6328C21.8192 54.6328 34.8047 41.6473 34.8047 25.6289C34.8047 9.61049 21.8192 -3.375 5.80078 -3.375C-10.2176 -3.375 -23.2031 9.61049 -23.2031 25.6289C-23.2031 41.6473 -10.2176 54.6328 5.80078 54.6328Z" fill="url(#paint0_radial_15343_266254)"/>
</g>
</g>
</g>
<path id="Vector_3" d="M17.2969 10.7578C17.8794 10.7578 18.3516 10.2856 18.3516 9.70312C18.3516 9.12064 17.8794 8.64844 17.2969 8.64844C16.7144 8.64844 16.2422 9.12064 16.2422 9.70312C16.2422 10.2856 16.7144 10.7578 17.2969 10.7578Z" fill="white"/>
<path id="Vector_4" d="M13.5 10.125C12.8325 10.125 12.18 10.3229 11.625 10.6938C11.0699 11.0646 10.6374 11.5917 10.3819 12.2084C10.1265 12.8251 10.0596 13.5037 10.1899 14.1584C10.3201 14.8131 10.6415 15.4145 11.1135 15.8865C11.5855 16.3585 12.1869 16.6799 12.8416 16.8102C13.4963 16.9404 14.1749 16.8735 14.7916 16.6181C15.4083 16.3626 15.9354 15.9301 16.3062 15.375C16.6771 14.82 16.875 14.1675 16.875 13.5C16.875 12.6049 16.5194 11.7464 15.8865 11.1135C15.2536 10.4806 14.3951 10.125 13.5 10.125ZM13.5 15.1875C13.1662 15.1875 12.84 15.0885 12.5625 14.9031C12.285 14.7177 12.0687 14.4541 11.941 14.1458C11.8132 13.8374 11.7798 13.4981 11.8449 13.1708C11.91 12.8434 12.0708 12.5428 12.3068 12.3068C12.5428 12.0708 12.8434 11.91 13.1708 11.8449C13.4981 11.7798 13.8374 11.8132 14.1458 11.941C14.4541 12.0687 14.7177 12.285 14.9031 12.5625C15.0885 12.84 15.1875 13.1662 15.1875 13.5C15.1875 13.9476 15.0097 14.3768 14.6932 14.6932C14.3768 15.0097 13.9476 15.1875 13.5 15.1875Z" fill="white"/>
<path id="Vector (Stroke)" fill-rule="evenodd" clip-rule="evenodd" d="M9.28125 7.5C8.29749 7.5 7.5 8.29749 7.5 9.28125V17.7188C7.5 18.7025 8.29749 19.5 9.28125 19.5H17.7188C18.7025 19.5 19.5 18.7025 19.5 17.7188V9.28125C19.5 8.29749 18.7025 7.5 17.7188 7.5H9.28125ZM6 9.28125C6 7.46907 7.46907 6 9.28125 6H17.7188C19.5309 6 21 7.46907 21 9.28125V17.7188C21 19.5309 19.5309 21 17.7188 21H9.28125C7.46907 21 6 19.5309 6 17.7188V9.28125Z" fill="white"/>
</g>
<defs>
<radialGradient id="paint0_radial_15343_266254" cx="0" cy="0" r="1" gradientUnits="userSpaceOnUse" gradientTransform="translate(5.80078 25.6289) scale(29.0039)">
<stop stop-color="#FFD676"/>
<stop offset="0.25" stop-color="#F2A454"/>
<stop offset="0.38" stop-color="#F05C3C"/>
<stop offset="0.7" stop-color="#C22F86"/>
<stop offset="0.96" stop-color="#6666AD"/>
<stop offset="0.99" stop-color="#5C6CB2"/>
</radialGradient>
</defs>
</svg>
