<svg width="27" height="27" viewBox="0 0 27 27" fill="none" xmlns="http://www.w3.org/2000/svg">
<circle cx="13.5" cy="13.5" r="13.5" fill="#3A3A3A"/>
<path d="M9.6276 8.33302C9.62743 8.68665 9.48678 9.02571 9.23661 9.27564C8.98643 9.52556 8.64723 9.66587 8.2936 9.66569C7.93998 9.66551 7.60091 9.52487 7.35099 9.27469C7.10107 9.02452 6.96076 8.68531 6.96094 8.33169C6.96111 7.97807 7.10176 7.639 7.35193 7.38908C7.60211 7.13915 7.94132 6.99885 8.29494 6.99902C8.64856 6.9992 8.98763 7.13985 9.23755 7.39002C9.48747 7.64019 9.62778 7.9794 9.6276 8.33302ZM9.6676 10.653H7.00094V18.9997H9.6676V10.653ZM13.8809 10.653H11.2276V18.9997H13.8543V14.6197C13.8543 12.1797 17.0343 11.953 17.0343 14.6197V18.9997H19.6676V13.713C19.6676 9.59969 14.9609 9.75302 13.8543 11.773L13.8809 10.653Z" fill="white"/>
</svg>
