<svg width="37" height="28" viewBox="0 0 37 28" fill="none" xmlns="http://www.w3.org/2000/svg">
<g clip-path="url(#clip0_14074_189852)">
<path d="M36.113 27.6059V27.6778H36.1816C36.1945 27.678 36.2072 27.6749 36.2184 27.6687C36.2228 27.6656 36.2265 27.6614 36.2289 27.6566C36.2313 27.6518 36.2324 27.6465 36.2322 27.6411C36.2324 27.6359 36.2313 27.6307 36.2288 27.626C36.2264 27.6213 36.2228 27.6173 36.2184 27.6143C36.2073 27.6078 36.1945 27.6046 36.1816 27.6052H36.113V27.6059ZM36.1823 27.555C36.2117 27.5532 36.2409 27.5615 36.2647 27.5784C36.2743 27.586 36.2819 27.5958 36.2869 27.6068C36.2919 27.6179 36.2942 27.63 36.2936 27.642C36.294 27.6524 36.2922 27.6628 36.2882 27.6725C36.2842 27.6821 36.2781 27.6908 36.2704 27.698C36.252 27.7136 36.2289 27.723 36.2046 27.7248L36.2965 27.8273H36.2257L36.1411 27.7255H36.1137V27.8273H36.0545V27.5552H36.1833L36.1823 27.555ZM36.1639 27.9212C36.195 27.9215 36.2258 27.9153 36.2542 27.9032C36.2817 27.8916 36.3067 27.8751 36.3278 27.8545C36.349 27.8338 36.3659 27.8094 36.3776 27.7825C36.4018 27.7255 36.4018 27.6615 36.3776 27.6044C36.3657 27.5776 36.3488 27.5532 36.3278 27.5325C36.3066 27.5119 36.2817 27.4953 36.2542 27.4838C36.2256 27.4723 36.1949 27.4665 36.1639 27.4669C36.1325 27.4666 36.1012 27.4723 36.072 27.4838C36.0439 27.4951 36.0184 27.5117 35.9968 27.5325C35.9642 27.5651 35.9422 27.6064 35.9335 27.6512C35.9248 27.696 35.9297 27.7423 35.9477 27.7843C35.9589 27.8113 35.9756 27.8358 35.9968 27.8563C36.0184 27.8771 36.0439 27.8936 36.072 27.905C36.101 27.9171 36.1323 27.9233 36.1639 27.923M36.1639 27.4014C36.2448 27.4013 36.3224 27.4323 36.38 27.4877C36.4078 27.5143 36.43 27.546 36.4451 27.5811C36.4609 27.617 36.469 27.6557 36.469 27.6948C36.469 27.7339 36.4609 27.7726 36.4451 27.8086C36.4296 27.8434 36.4075 27.8751 36.38 27.9019C36.3518 27.9284 36.319 27.9497 36.2831 27.9649C36.2454 27.9805 36.2049 27.9885 36.1639 27.9883C36.1225 27.9886 36.0815 27.9806 36.0433 27.9649C36.007 27.9501 35.9739 27.9287 35.9456 27.9019C35.9182 27.8741 35.8964 27.8414 35.8815 27.8055C35.8657 27.7696 35.8576 27.7309 35.8576 27.6918C35.8576 27.6527 35.8657 27.614 35.8815 27.578C35.8966 27.543 35.9188 27.5113 35.9466 27.4847C35.9744 27.4574 36.0076 27.436 36.0442 27.4217C36.0824 27.406 36.1234 27.398 36.1649 27.3983M8.00331 26.3504C8.00331 25.8315 8.35091 25.4053 8.91901 25.4053C9.46192 25.4053 9.82827 25.8132 9.82827 26.3504C9.82827 26.8877 9.46192 27.2956 8.91901 27.2956C8.35091 27.2956 8.00331 26.8693 8.00331 26.3504ZM10.4471 26.3504V24.8738H9.79076V25.2335C9.58257 24.9677 9.26679 24.8009 8.83736 24.8009C7.99136 24.8009 7.32744 25.4499 7.32744 26.3512C7.32744 27.2525 7.99099 27.9014 8.83736 27.9014C9.26661 27.9014 9.58257 27.7345 9.79076 27.4688V27.8273H10.4464V26.3504H10.4471ZM32.6255 26.3504C32.6255 25.8315 32.9731 25.4053 33.5414 25.4053C34.0848 25.4053 34.4506 25.8132 34.4506 26.3504C34.4506 26.8877 34.0848 27.2956 33.5414 27.2956C32.9732 27.2956 32.6255 26.8693 32.6255 26.3504ZM35.07 26.3504V23.6885H34.4131V25.2335C34.2049 24.9677 33.8891 24.8009 33.4597 24.8009C32.6137 24.8009 31.9498 25.4499 31.9498 26.3512C31.9498 27.2525 32.6133 27.9014 33.4597 27.9014C33.8891 27.9014 34.2049 27.7345 34.4131 27.4688V27.8273H35.07V26.3504ZM18.5937 25.3749C19.0167 25.3749 19.2883 25.6342 19.3577 26.0909H17.7915C17.8616 25.6646 18.1262 25.3749 18.5939 25.3749M18.607 24.7993C17.7223 24.7993 17.1035 25.4288 17.1035 26.3495C17.1035 27.2882 17.7472 27.8998 18.6509 27.8998C19.1055 27.8998 19.5219 27.7888 19.8883 27.4861L19.5666 27.0104C19.3135 27.2082 18.9913 27.3192 18.6884 27.3192C18.2654 27.3192 17.8803 27.1276 17.7856 26.5961H20.0269C20.0334 26.5163 20.04 26.4357 20.04 26.3494C20.0334 25.429 19.4515 24.7991 18.6066 24.7991M26.5314 26.3494C26.5314 25.8305 26.879 25.4042 27.4471 25.4042C27.99 25.4042 28.3563 25.8121 28.3563 26.3494C28.3563 26.8866 27.99 27.2945 27.4471 27.2945C26.879 27.2945 26.5312 26.8683 26.5312 26.3494M28.975 26.3494V24.8738H28.319V25.2335C28.1101 24.9677 27.795 24.8009 27.3656 24.8009C26.5196 24.8009 25.8557 25.4499 25.8557 26.3512C25.8557 27.2525 26.5192 27.9014 27.3656 27.9014C27.795 27.9014 28.1101 27.7345 28.319 27.4688V27.8273H28.9752V26.3504L28.975 26.3494ZM22.8246 26.3494C22.8246 27.2449 23.4621 27.8996 24.4349 27.8996C24.8896 27.8996 25.1925 27.8007 25.52 27.5476L25.2048 27.0287C24.9584 27.2019 24.6996 27.2945 24.414 27.2945C23.89 27.2882 23.5047 26.9177 23.5047 26.3494C23.5047 25.781 23.89 25.4107 24.414 25.4042C24.6989 25.4042 24.9576 25.4968 25.2048 25.67L25.52 25.1511C25.1919 24.8981 24.889 24.7991 24.4349 24.7991C23.4621 24.7991 22.8246 25.4536 22.8246 26.3494ZM31.2864 24.7991C30.9077 24.7991 30.6611 24.9723 30.4906 25.2317V24.8738H29.8401V27.8257H30.4972V26.1709C30.4972 25.6824 30.7119 25.411 31.1409 25.411C31.2814 25.409 31.4209 25.4343 31.5514 25.4853L31.7537 24.8802C31.6084 24.8243 31.419 24.7997 31.286 24.7997M13.6923 25.1085C13.3765 24.9049 12.9414 24.7997 12.4613 24.7997C11.6966 24.7997 11.2043 25.1581 11.2043 25.7447C11.2043 26.226 11.5708 26.5229 12.2458 26.6156L12.5559 26.6587C12.9158 26.7082 13.0857 26.8008 13.0857 26.9676C13.0857 27.1958 12.8466 27.326 12.3977 27.326C11.9431 27.326 11.615 27.1839 11.3937 27.0172L11.0853 27.5178C11.4452 27.7771 11.8999 27.9009 12.3922 27.9009C13.2639 27.9009 13.7691 27.4994 13.7691 26.9373C13.7691 26.4184 13.3715 26.147 12.7146 26.0544L12.4053 26.0105C12.1211 25.9745 11.8934 25.9186 11.8934 25.7207C11.8934 25.5049 12.108 25.375 12.4681 25.375C12.8534 25.375 13.2264 25.5171 13.4092 25.6281L13.6934 25.1092L13.6923 25.1085ZM22.1616 24.8002C21.7829 24.8002 21.5363 24.9734 21.3666 25.2328V24.8738H20.7161V27.8257H21.3724V26.1709C21.3724 25.6824 21.5871 25.411 22.0161 25.411C22.1566 25.409 22.2962 25.4343 22.4266 25.4853L22.6289 24.8802C22.4836 24.8243 22.2942 24.7997 22.1612 24.7997M16.5604 24.8738H15.4871V23.9782H14.8235V24.8738H14.2113V25.4605H14.8235V26.8071C14.8235 27.492 15.0953 27.9 15.8718 27.9C16.1567 27.9 16.4848 27.8136 16.693 27.6717L16.5034 27.1221C16.3075 27.233 16.0929 27.289 15.9222 27.289C15.5941 27.289 15.4871 27.0911 15.4871 26.7949V25.461H16.5604V24.8738ZM6.74701 27.8264V25.9738C6.74701 25.2761 6.29238 24.8067 5.55949 24.8004C5.17419 24.7941 4.77676 24.9114 4.4985 25.3256C4.29031 24.9982 3.96221 24.8004 3.50096 24.8004C3.17856 24.8004 2.86352 24.893 2.6169 25.2387V24.8738H1.95996V27.8257H2.62204V26.1889C2.62204 25.6765 2.91263 25.4042 3.36137 25.4042C3.79724 25.4042 4.01775 25.6821 4.01775 26.1825V27.8253H4.68131V26.1886C4.68131 25.6761 4.98421 25.4038 5.4199 25.4038C5.86809 25.4038 6.08198 25.6817 6.08198 26.1821V27.825L6.74701 27.8264Z" fill="#D9D9D9"/>
<path d="M36.4951 18.0078V17.5762H36.3802L36.2472 17.8724L36.115 17.5762H35.9996V18.0078H36.0813V17.6827L36.2056 17.9632H36.2902L36.4146 17.6819V18.0078H36.4955H36.4951ZM35.7659 18.0078V17.6501H35.913V17.5773H35.5371V17.6501H35.6842V18.0078H35.7652H35.7659Z" fill="#F79410"/>
<path d="M23.4168 19.8596H13.4697V2.37695H23.417L23.4168 19.8596Z" fill="#FF5A00"/>
<path d="M14.1046 11.1186C14.1046 7.57223 15.8025 4.41312 18.4464 2.37726C16.4451 0.83394 13.9698 -0.00367076 11.4211 1.2093e-05C5.14293 1.2093e-05 0.0537109 4.97789 0.0537109 11.1186C0.0537109 17.2593 5.14293 22.2372 11.4211 22.2372C13.9698 22.2409 16.4452 21.4033 18.4466 19.8599C15.8028 17.8244 14.1046 14.6651 14.1046 11.1186Z" fill="#EB001B"/>
<path d="M36.8362 11.1186C36.8362 17.2593 31.747 22.2372 25.4687 22.2372C22.9198 22.2408 20.4441 21.4032 18.4424 19.8599C21.087 17.824 22.7849 14.6651 22.7849 11.1186C22.7849 7.57205 21.087 4.41312 18.4424 2.37726C20.4441 0.833986 22.9197 -0.00360621 25.4686 1.16712e-05C31.7468 1.16712e-05 36.836 4.97789 36.836 11.1186" fill="#F79E1B"/>
</g>
<defs>
<clipPath id="clip0_14074_189852">
<rect width="36.7824" height="27.9866" fill="white" transform="translate(0.0537109)"/>
</clipPath>
</defs>
</svg>
