<svg width="150" height="55" viewBox="0 0 150 55" fill="none" xmlns="http://www.w3.org/2000/svg">
<path d="M0 0H150V55H0V0Z" fill="white"/>
<path d="M56.6774 19.0682C56.6982 19.4001 56.6522 19.7327 56.5423 20.0465C56.4324 20.3603 56.2607 20.6489 56.0374 20.8952C55.6412 21.2938 55.1354 21.5655 54.5843 21.6757C54.0332 21.786 53.4618 21.7299 52.9427 21.5145C52.4236 21.2991 51.9803 20.9342 51.6692 20.4662C51.358 19.9982 51.1931 19.4482 51.1954 18.8862C51.1921 18.5133 51.2631 18.1434 51.4043 17.7981C51.5455 17.4529 51.754 17.1393 52.0178 16.8756C52.2815 16.6118 52.5951 16.4033 52.9403 16.2621C53.2856 16.1209 53.6555 16.0499 54.0284 16.0532C54.4116 16.0567 54.7884 16.1506 55.1284 16.3272C55.4544 16.4638 55.7381 16.6847 55.9504 16.9672L55.4934 17.4242C55.3207 17.206 55.0971 17.0336 54.8422 16.922C54.5873 16.8104 54.3089 16.7631 54.0314 16.7842C53.7551 16.7727 53.4798 16.8243 53.2264 16.9352C52.9731 17.0461 52.7484 17.2134 52.5694 17.4242C52.3498 17.6158 52.1776 17.8559 52.0666 18.1254C51.9555 18.3949 51.9085 18.6865 51.9294 18.9772C51.9085 19.268 51.9555 19.5596 52.0666 19.8291C52.1776 20.0986 52.3498 20.3386 52.5694 20.5302C52.9673 20.9074 53.4844 21.1337 54.0314 21.1702C54.3212 21.1825 54.6102 21.1317 54.8784 21.0212C55.1465 20.9106 55.3875 20.7431 55.5844 20.5302C55.7311 20.3873 55.8472 20.2162 55.9257 20.0271C56.0043 19.838 56.0436 19.635 56.0414 19.4302H54.0314V18.7032H56.6814V19.0682H56.6774ZM60.8774 16.7842H58.4134V18.5202H60.6954V19.1602H58.4134V20.8962H60.8804V21.6272H57.6804V16.1442H60.8804L60.8774 16.7842ZM63.8954 21.6272H63.1654V16.7842H61.6124V16.1442H65.4504V16.7842H63.8954V21.6272ZM68.0954 21.6272V16.1442H68.8264V21.6262L68.0954 21.6272ZM71.9334 21.6272H71.2024V16.7842H69.6524V16.1442H73.3954V16.7842H71.8454V21.6272H71.9334ZM80.6134 20.8962C80.2172 21.2952 79.7112 21.5672 79.1598 21.6776C78.6085 21.7881 78.0368 21.7319 77.5174 21.5164C76.9981 21.3009 76.5546 20.9356 76.2435 20.4673C75.9324 19.9989 75.7677 19.4485 75.7704 18.8862C75.7633 18.5098 75.8314 18.1357 75.9706 17.7858C76.1097 17.436 76.3172 17.1174 76.581 16.8487C76.8447 16.5799 77.1593 16.3665 77.5065 16.2208C77.8537 16.0751 78.2264 16 78.6029 16C78.9794 16 79.3522 16.0751 79.6993 16.2208C80.0465 16.3665 80.3612 16.5799 80.6249 16.8487C80.8886 17.1174 81.0961 17.436 81.2353 17.7858C81.3745 18.1357 81.4425 18.5098 81.4354 18.8862C81.4463 19.2597 81.3792 19.6314 81.2384 19.9775C81.0975 20.3236 80.886 20.6365 80.6174 20.8962H80.6134ZM77.1414 20.4392C77.529 20.8317 78.0522 21.0608 78.6034 21.0792C78.8797 21.0908 79.1551 21.0391 79.4084 20.9282C79.6618 20.8173 79.8865 20.6501 80.0654 20.4392C80.4758 20.0266 80.7059 19.4682 80.7054 18.8862C80.7263 18.5955 80.6794 18.3039 80.5683 18.0344C80.4572 17.7649 80.2851 17.5248 80.0654 17.3332C79.6779 16.9407 79.1547 16.7117 78.6034 16.6932C78.3271 16.6817 78.0518 16.7333 77.7984 16.8442C77.5451 16.9551 77.3204 17.1224 77.1414 17.3332C76.7311 17.7459 76.501 18.3043 76.5014 18.8862C76.481 19.1773 76.5286 19.4691 76.6404 19.7386C76.7521 20.0082 76.925 20.248 77.1454 20.4392H77.1414ZM82.4414 21.6272V16.1442H83.2634L85.9134 20.4382V16.1442H86.6444V21.6262H85.9134L83.0844 17.1532V21.6302L82.4414 21.6272Z" fill="#727272" stroke="#727272" stroke-width="0.2" stroke-miterlimit="10"/>
<path d="M75.5929 29.6692C75.0737 29.6576 74.5576 29.7513 74.0757 29.9446C73.5937 30.1379 73.156 30.4269 72.7888 30.7941C72.4216 31.1613 72.1326 31.599 71.9393 32.081C71.746 32.5629 71.6523 33.079 71.6639 33.5982C71.66 34.1152 71.759 34.6279 71.9551 35.1063C72.1512 35.5847 72.4404 36.0194 72.8061 36.385C73.1717 36.7506 73.6063 37.0399 74.0848 37.236C74.5632 37.432 75.0758 37.531 75.5929 37.5272C76.1119 37.5388 76.628 37.4451 77.1098 37.2518C77.5917 37.0586 78.0294 36.7697 78.3966 36.4026C78.7638 36.0355 79.0528 35.5979 79.2462 35.1161C79.4396 34.6342 79.5333 34.1182 79.5219 33.5992C79.5414 33.0779 79.4531 32.5583 79.2625 32.0727C79.072 31.5872 78.7833 31.1461 78.4145 30.7773C78.0457 30.4084 77.6048 30.1196 77.1193 29.9289C76.6338 29.7382 76.1141 29.6498 75.5929 29.6692ZM75.5929 35.8822C74.9955 35.8347 74.4379 35.5638 74.0312 35.1235C73.6246 34.6833 73.3988 34.106 73.3988 33.5067C73.3988 32.9074 73.6246 32.3301 74.0312 31.8898C74.4379 31.4496 74.9955 31.1787 75.5929 31.1312C75.896 31.1331 76.1956 31.1973 76.4729 31.3198C76.7503 31.4422 76.9995 31.6204 77.2051 31.8432C77.4107 32.066 77.5684 32.3286 77.6683 32.6149C77.7682 32.9011 77.8082 33.2048 77.7859 33.5072C77.8004 33.8078 77.7549 34.1082 77.6521 34.3911C77.5493 34.6739 77.3912 34.9334 77.1871 35.1546C76.983 35.3757 76.7369 35.554 76.4632 35.6791C76.1895 35.8042 75.8937 35.8726 75.5929 35.8822ZM67.0929 29.6692C66.5737 29.6576 66.0576 29.7513 65.5757 29.9446C65.0937 30.1379 64.656 30.4269 64.2888 30.7941C63.9216 31.1613 63.6326 31.599 63.4393 32.081C63.246 32.5629 63.1523 33.079 63.1639 33.5982C63.16 34.1152 63.259 34.6279 63.4551 35.1063C63.6512 35.5847 63.9404 36.0194 64.3061 36.385C64.6717 36.7506 65.1063 37.0399 65.5848 37.236C66.0632 37.432 66.5758 37.531 67.0929 37.5272C67.6119 37.5388 68.128 37.4451 68.6098 37.2518C69.0917 37.0586 69.5294 36.7697 69.8966 36.4026C70.2638 36.0355 70.5528 35.5979 70.7462 35.1161C70.9396 34.6342 71.0334 34.1182 71.0219 33.5992C71.0413 33.0781 70.9531 32.5586 70.7627 32.0732C70.5723 31.5878 70.2838 31.1469 69.9152 30.778C69.5466 30.4092 69.1059 30.1203 68.6206 29.9295C68.1354 29.7387 67.616 29.6501 67.0949 29.6692H67.0929ZM67.0929 35.8822C66.4955 35.8347 65.9379 35.5638 65.5312 35.1235C65.1246 34.6833 64.8988 34.106 64.8988 33.5067C64.8988 32.9074 65.1246 32.3301 65.5312 31.8898C65.9379 31.4496 66.4955 31.1787 67.0929 31.1312C67.396 31.1331 67.6956 31.1973 67.9729 31.3198C68.2503 31.4422 68.4995 31.6204 68.7051 31.8432C68.9107 32.066 69.0684 32.3286 69.1683 32.6149C69.2682 32.9011 69.3082 33.2048 69.2859 33.5072C69.3004 33.8076 69.2549 34.1079 69.1523 34.3906C69.0496 34.6733 68.8917 34.9328 68.6878 35.1539C68.4839 35.375 68.2381 35.5533 67.9646 35.6785C67.6911 35.8038 67.3955 35.8733 67.0949 35.8832L67.0929 35.8822ZM56.9529 30.8572V32.5022H60.8819C60.8248 33.2857 60.5024 34.0264 59.9679 34.6022C59.5744 34.9974 59.1034 35.3069 58.5846 35.5114C58.0657 35.7158 57.5102 35.8107 56.9529 35.7902C56.3795 35.796 55.8109 35.6858 55.2812 35.4663C54.7515 35.2468 54.2716 34.9224 53.8704 34.5127C53.4692 34.103 53.155 33.6165 52.9467 33.0823C52.7383 32.5481 52.6401 31.9773 52.6579 31.4042C52.6478 30.8331 52.7513 30.2657 52.9625 29.7349C53.1736 29.2042 53.4882 28.7207 53.8878 28.3126C54.2874 27.9045 54.7642 27.5799 55.2904 27.3577C55.8166 27.1355 56.3817 27.0201 56.9529 27.0182C58.07 27.0289 59.1437 27.452 59.9679 28.2062L61.1559 27.0182C60.0531 25.9533 58.5768 25.3634 57.0439 25.3752C55.4391 25.3857 53.9018 26.0217 52.7586 27.1479C51.6154 28.2741 50.9565 29.8018 50.9219 31.4062C50.9565 33.0106 51.6154 34.5382 52.7586 35.6644C53.9018 36.7906 55.4391 37.4266 57.0439 37.4372C57.8292 37.4804 58.6142 37.3468 59.3411 37.0464C60.068 36.7459 60.7182 36.2862 61.2439 35.7012C62.2085 34.6586 62.7324 33.2833 62.7059 31.8632C62.7253 31.5255 62.6946 31.1868 62.6149 30.8582L56.9529 30.8572ZM98.4359 32.1362C98.2114 31.4345 97.7742 30.8201 97.1849 30.3781C96.5955 29.936 95.8833 29.6883 95.1469 29.6692C94.644 29.6714 94.147 29.7767 93.6864 29.9786C93.2258 30.1804 92.8115 30.4745 92.469 30.8426C92.1265 31.2108 91.8631 31.6453 91.6951 32.1192C91.527 32.5931 91.4578 33.0965 91.4919 33.5982C91.4778 34.1103 91.5668 34.62 91.7535 35.0971C91.9403 35.5742 92.221 36.0088 92.579 36.3753C92.937 36.7418 93.3649 37.0326 93.8375 37.2305C94.3101 37.4283 94.8176 37.5292 95.3299 37.5272C95.9668 37.5336 96.5949 37.3775 97.1548 37.0738C97.7147 36.7701 98.188 36.3286 98.5299 35.7912L97.2479 34.8752C97.0515 35.2098 96.7712 35.4873 96.4346 35.6803C96.098 35.8732 95.7169 35.9749 95.3289 35.9752C94.9261 35.9959 94.5266 35.8933 94.1838 35.681C93.8409 35.4687 93.5709 35.1569 93.4099 34.7872L98.6219 32.5932L98.4359 32.1362ZM93.1359 33.4152C93.1171 32.8501 93.3146 32.2991 93.6881 31.8747C94.0616 31.4503 94.583 31.1843 95.1459 31.1312C95.4415 31.1213 95.7341 31.1927 95.9919 31.3376C96.2497 31.4826 96.4627 31.6955 96.6079 31.9532L93.1359 33.4152ZM88.8419 37.1622H90.5779V25.7402H88.8419V37.1622ZM86.1009 30.4922C85.5487 29.9226 84.794 29.5941 84.0009 29.5782C82.9906 29.6245 82.0372 30.059 81.3394 30.7909C80.6415 31.5229 80.253 32.4959 80.2549 33.5072C80.2476 34.0055 80.3389 34.5003 80.5234 34.9632C80.708 35.4262 80.9821 35.8481 81.3302 36.2047C81.6783 36.5613 82.0935 36.8457 82.5518 37.0414C83.0101 37.2371 83.5025 37.3404 84.0009 37.3452C84.3822 37.348 84.7596 37.2677 85.1067 37.1099C85.4538 36.952 85.7624 36.7204 86.0109 36.4312H86.1019V36.9752C86.1527 37.4793 86.0175 37.9847 85.7217 38.3961C85.4259 38.8075 84.9899 39.0966 84.4958 39.2089C84.0017 39.3213 83.4836 39.2491 83.039 39.006C82.5944 38.763 82.254 38.3657 82.0819 37.8892L80.6199 38.5292C80.9111 39.2082 81.3955 39.7867 82.0127 40.1928C82.63 40.5989 83.353 40.8146 84.0919 40.8132C86.1019 40.8132 87.7469 39.6252 87.7469 36.7932V29.8522H86.1009V30.4922ZM84.0909 35.8832C83.4935 35.8357 82.9359 35.5648 82.5292 35.1245C82.1226 34.6843 81.8968 34.107 81.8968 33.5077C81.8968 32.9084 82.1226 32.3311 82.5292 31.8908C82.9359 31.4506 83.4935 31.1797 84.0909 31.1322C84.3867 31.1447 84.677 31.2167 84.9443 31.3441C85.2116 31.4714 85.4504 31.6514 85.6465 31.8733C85.8426 32.0951 85.9919 32.3543 86.0854 32.6352C86.179 32.9161 86.2148 33.2131 86.1909 33.5082C86.2147 33.8033 86.1787 34.1002 86.085 34.3811C85.9914 34.6619 85.842 34.921 85.6458 35.1428C85.4496 35.3645 85.2107 35.5444 84.9433 35.6716C84.676 35.7989 84.3867 35.8708 84.0909 35.8832ZM106.385 25.7402H102.274V37.1622H104.01V32.8682H106.386C106.869 32.8925 107.352 32.8183 107.805 32.6502C108.259 32.482 108.673 32.2235 109.024 31.8902C109.374 31.5569 109.653 31.1558 109.844 30.7114C110.035 30.2669 110.133 29.7883 110.133 29.3047C110.133 28.821 110.035 28.3424 109.844 27.898C109.653 27.4535 109.374 27.0524 109.024 26.7192C108.673 26.3859 108.259 26.1273 107.805 25.9592C107.352 25.7911 106.869 25.7169 106.386 25.7412L106.385 25.7402ZM106.476 31.2222H104.01V27.2942H106.477C106.995 27.2929 107.493 27.4919 107.868 27.8495C108.242 28.2072 108.464 28.6958 108.487 29.2132C108.467 29.7399 108.249 30.2396 107.876 30.6122C107.503 30.9849 107.004 31.2031 106.477 31.2232L106.476 31.2222ZM116.985 29.5752C116.366 29.5257 115.746 29.6651 115.208 29.975C114.67 30.285 114.238 30.7509 113.97 31.3112L115.523 31.9512C115.675 31.6788 115.902 31.4562 116.178 31.3103C116.453 31.1644 116.765 31.1015 117.076 31.1292C117.509 31.0967 117.938 31.2295 118.277 31.5008C118.616 31.772 118.84 32.1616 118.903 32.5912V32.6822C118.372 32.3867 117.775 32.2295 117.167 32.2252C115.522 32.2252 113.878 33.1392 113.878 34.7832C113.893 35.1381 113.979 35.4865 114.13 35.808C114.281 36.1295 114.495 36.4177 114.758 36.6558C115.022 36.8939 115.331 37.0771 115.666 37.1948C116.001 37.3124 116.356 37.3622 116.711 37.3412C117.139 37.3551 117.564 37.2617 117.947 37.0696C118.33 36.8775 118.659 36.5927 118.904 36.2412H118.995V37.1552H120.64V32.7752C120.574 31.8684 120.153 31.0242 119.469 30.4253C118.785 29.8264 117.892 29.521 116.985 29.5752ZM116.802 35.8752C116.254 35.8752 115.431 35.6012 115.431 34.8702C115.431 33.9562 116.436 33.6822 117.258 33.6822C117.797 33.6839 118.328 33.8087 118.811 34.0472C118.743 34.5397 118.505 34.993 118.138 35.3283C117.771 35.6637 117.298 35.86 116.802 35.8832V35.8752ZM126.396 29.8442L124.477 34.7782H124.386L122.376 29.8442H120.549L123.564 36.7882L121.828 40.6262H123.564L128.224 29.8442H126.396ZM111.045 37.1542H112.781V25.7402H111.045V37.1542Z" fill="#727272"/>
<path d="M22.8668 16.6016C22.585 16.965 22.4542 17.4231 22.5018 17.8806V38.0736C22.4821 38.5431 22.646 39.0018 22.9588 39.3526L23.0498 39.4436L34.3798 28.1136V27.9316L22.8668 16.6016Z" fill="url(#paint0_linear_14074_189812)"/>
<path d="M38.0351 31.9506L34.2891 28.2036V27.9296L38.0351 24.1836L38.1261 24.2746L42.6031 26.8326C43.8821 27.5636 43.8821 28.7516 42.6031 29.4826L38.0351 31.9506Z" fill="url(#paint1_linear_14074_189812)"/>
<path d="M38.1262 31.8614L34.2892 28.0234L22.8672 39.4454C23.3242 39.9024 23.9672 39.9024 24.7862 39.5364L38.1262 31.8614Z" fill="url(#paint2_linear_14074_189812)"/>
<path d="M38.1262 24.1865L24.7862 16.6025C24.5077 16.3871 24.1616 16.278 23.8099 16.2946C23.4583 16.3113 23.124 16.4527 22.8672 16.6935L34.2892 28.0235L38.1272 24.1855L38.1262 24.1865Z" fill="url(#paint3_linear_14074_189812)"/>
<defs>
<linearGradient id="paint0_linear_14074_189812" x1="33.2861" y1="40.1745" x2="15.1146" y2="35.2519" gradientUnits="userSpaceOnUse">
<stop stop-color="#00A0FF"/>
<stop offset="0.007" stop-color="#00A1FF"/>
<stop offset="0.26" stop-color="#00BEFF"/>
<stop offset="0.512" stop-color="#00D2FF"/>
<stop offset="0.76" stop-color="#00DFFF"/>
<stop offset="1" stop-color="#00E3FF"/>
</linearGradient>
<linearGradient id="paint1_linear_14074_189812" x1="44.2764" y1="29.8457" x2="22.1689" y2="29.8457" gradientUnits="userSpaceOnUse">
<stop stop-color="#FFE000"/>
<stop offset="0.409" stop-color="#FFBD00"/>
<stop offset="0.775" stop-color="#FFA500"/>
<stop offset="1" stop-color="#FF9C00"/>
</linearGradient>
<linearGradient id="paint2_linear_14074_189812" x1="36.051" y1="27.7526" x2="21.4594" y2="3.25715" gradientUnits="userSpaceOnUse">
<stop stop-color="#FF3A44"/>
<stop offset="1" stop-color="#C31162"/>
</linearGradient>
<linearGradient id="paint3_linear_14074_189812" x1="20.0288" y1="47.9771" x2="26.5048" y2="37.0212" gradientUnits="userSpaceOnUse">
<stop stop-color="#32A071"/>
<stop offset="0.069" stop-color="#2DA771"/>
<stop offset="0.476" stop-color="#15CF74"/>
<stop offset="0.801" stop-color="#06E775"/>
<stop offset="1" stop-color="#00F076"/>
</linearGradient>
</defs>
</svg>
