<svg width="36" height="35" viewBox="0 0 36 35" fill="none" xmlns="http://www.w3.org/2000/svg">
<g clip-path="url(#clip0_1016_79952)">
<path d="M11.6822 30.0469L3.47178 17.7312C3.31189 17.4916 3.22656 17.21 3.22656 16.9219C3.22656 16.6338 3.31189 16.3521 3.47178 16.1125L11.6822 3.79687L32.0989 3.79687C32.4856 3.79687 32.8566 3.95052 33.1301 4.22401C33.4036 4.4975 33.5572 4.86843 33.5572 5.25521L33.5572 28.5885C33.5572 28.9753 33.4036 29.3462 33.1301 29.6197C32.8566 29.8932 32.4856 30.0469 32.0989 30.0469L11.6822 30.0469ZM13.2426 27.1302L30.6405 27.1302L30.6405 6.71354L13.2426 6.71354L6.43803 16.9219L13.2426 27.1302ZM17.5155 16.9219C17.5155 17.6954 17.2082 18.4373 16.6613 18.9843C16.1143 19.5312 15.3724 19.8385 14.5989 19.8385C13.8253 19.8385 13.0835 19.5312 12.5365 18.9843C11.9895 18.4373 11.6822 17.6954 11.6822 16.9219C11.6822 16.1483 11.9895 15.4065 12.5365 14.8595C13.0835 14.3125 13.8253 14.0052 14.5989 14.0052C15.3724 14.0052 16.1143 14.3125 16.6613 14.8595C17.2082 15.4065 17.5155 16.1483 17.5155 16.9219Z" fill="black"/>
</g>
<defs>
<clipPath id="clip0_1016_79952">
<rect width="35" height="35" fill="white" transform="translate(0.890625)"/>
</clipPath>
</defs>
</svg>
