<svg width="39" height="38" viewBox="0 0 39 38" fill="none" xmlns="http://www.w3.org/2000/svg">
<g clip-path="url(#clip0_1016_79948)">
<path d="M6.72135 9.72788V30.0325L14.7409 26.5967L24.2409 31.3467L32.0547 27.9948V7.69172L34.1178 6.80822C34.2382 6.75657 34.3697 6.73565 34.5002 6.74733C34.6308 6.759 34.7564 6.80291 34.8658 6.8751C34.9752 6.9473 35.0649 7.04553 35.127 7.16098C35.189 7.27643 35.2215 7.40548 35.2214 7.53655V30.0848L24.138 34.8348L14.638 30.0848L4.65827 34.3614C4.5378 34.413 4.40639 34.4339 4.27584 34.4223C4.14529 34.4106 4.01968 34.3667 3.91028 34.2945C3.80089 34.2223 3.71113 34.1241 3.64907 34.0086C3.587 33.8932 3.55457 33.7641 3.55469 33.633V11.0848L6.72135 9.72788ZM26.1061 17.8029L19.388 24.5194L12.6699 17.8029C11.3415 16.4742 10.4369 14.7815 10.0704 12.9387C9.70401 11.0959 9.89224 9.18588 10.6113 7.45007C11.3304 5.71427 12.548 4.23067 14.1103 3.18686C15.6725 2.14306 17.5092 1.58594 19.388 1.58594C21.2669 1.58594 23.1035 2.14306 24.6658 3.18686C26.228 4.23067 27.4456 5.71427 28.1647 7.45007C28.8838 9.18588 29.072 11.0959 28.7056 12.9387C28.3392 14.7815 27.4345 16.4742 26.1061 17.8029ZM19.388 20.0417L23.8657 15.5625C24.7516 14.6768 25.355 13.5483 25.5995 12.3197C25.8441 11.0911 25.7187 9.8176 25.2394 8.66023C24.7601 7.50285 23.9484 6.51361 22.9068 5.81761C21.8653 5.12161 20.6407 4.75011 19.388 4.75011C18.1353 4.75011 16.9108 5.12161 15.8692 5.81761C14.8277 6.51361 14.0159 7.50285 13.5366 8.66023C13.0573 9.8176 12.932 11.0911 13.1765 12.3197C13.4211 13.5483 14.0244 14.6768 14.9104 15.5625L19.388 20.0417Z" fill="black"/>
</g>
<defs>
<clipPath id="clip0_1016_79948">
<rect width="38" height="38" fill="white" transform="translate(0.390625)"/>
</clipPath>
</defs>
</svg>
