<svg width="38" height="37" viewBox="0 0 38 37" fill="none" xmlns="http://www.w3.org/2000/svg">
<g clip-path="url(#clip0_1016_79313)">
<path d="M6.75781 23.1258V13.1049C6.75781 11.265 7.48873 9.5004 8.78976 8.19937C10.0908 6.89833 11.8554 6.16742 13.6953 6.16742C15.5353 6.16742 17.2998 6.89833 18.6009 8.19937C19.9019 9.5004 20.6328 11.265 20.6328 13.1049V23.8966C20.6328 24.9188 21.0389 25.8991 21.7617 26.6219C22.4845 27.3447 23.4648 27.7508 24.487 27.7508C25.5092 27.7508 26.4895 27.3447 27.2123 26.6219C27.9351 25.8991 28.3411 24.9188 28.3411 23.8966V13.6137C27.3121 13.25 26.4447 12.5342 25.8924 11.5928C25.3401 10.6515 25.1384 9.54517 25.3229 8.46945C25.5074 7.39373 26.0662 6.41787 26.9007 5.71436C27.7351 5.01086 28.7914 4.625 29.8828 4.625C30.9742 4.625 32.0305 5.01086 32.865 5.71436C33.6994 6.41787 34.2583 7.39373 34.4428 8.46945C34.6273 9.54517 34.4255 10.6515 33.8732 11.5928C33.3209 12.5342 32.4535 13.25 31.4245 13.6137V23.8966C31.4245 25.7365 30.6936 27.5011 29.3925 28.8021C28.0915 30.1032 26.3269 30.8341 24.487 30.8341C22.647 30.8341 20.8825 30.1032 19.5814 28.8021C18.2804 27.5011 17.5495 25.7365 17.5495 23.8966V13.1049C17.5495 12.0827 17.1434 11.1024 16.4206 10.3796C15.6978 9.65681 14.7175 9.25075 13.6953 9.25075C12.6731 9.25075 11.6928 9.65681 10.97 10.3796C10.2472 11.1024 9.84115 12.0827 9.84115 13.1049V23.1258H14.4661L8.29948 30.8341L2.13281 23.1258H6.75781ZM29.8828 10.7924C30.2917 10.7924 30.6838 10.63 30.9729 10.3409C31.2621 10.0518 31.4245 9.65963 31.4245 9.25075C31.4245 8.84188 31.2621 8.44975 30.9729 8.16063C30.6838 7.87151 30.2917 7.70909 29.8828 7.70909C29.4739 7.70909 29.0818 7.87151 28.7927 8.16063C28.5036 8.44975 28.3411 8.84188 28.3411 9.25075C28.3411 9.65963 28.5036 10.0518 28.7927 10.3409C29.0818 10.63 29.4739 10.7924 29.8828 10.7924Z" fill="#010101"/>
</g>
<defs>
<clipPath id="clip0_1016_79313">
<rect width="37" height="37" fill="white" transform="translate(0.59375)"/>
</clipPath>
</defs>
</svg>
