<svg width="258" height="55" viewBox="0 0 258 55" fill="none" xmlns="http://www.w3.org/2000/svg">
<rect width="258" height="55" fill="white"/>
<path fill-rule="evenodd" clip-rule="evenodd" d="M194.528 32.8086L192.865 34.1682L194.528 35.6642L196.056 34.3925L194.528 32.8086Z" fill="#263B80"/>
<path fill-rule="evenodd" clip-rule="evenodd" d="M194.528 32.8086L192.865 34.1682L194.528 35.6642L196.056 34.3925L194.528 32.8086Z" fill="#263B80"/>
<path fill-rule="evenodd" clip-rule="evenodd" d="M204.862 32.4481V34.8922C204.365 35.0748 203.738 35.209 203.021 35.1673C201.583 35.0309 200.145 34.7558 199.294 33.9904C201.042 33.9025 203.426 33.9025 204.864 32.4504L204.862 32.4481ZM204.862 27.1508C204.321 27.1045 204.055 27.6502 204.145 28.1034C204.321 28.4618 204.545 28.5959 204.862 28.6468V31.8146C202.348 32.0897 200.73 28.6468 204.189 25.2986C204.413 25.0674 204.635 24.8871 204.862 24.7969V27.1508ZM225.166 20.54V23.3471L223.596 21.8488L225.166 20.5377V20.54ZM205.084 27.1993C205.673 27.4213 205.625 28.1034 205.445 28.737C205.22 28.737 205.038 28.6907 204.862 28.6491V31.8169C205.038 31.8169 205.22 31.7706 205.403 31.7267C205.22 31.9972 205.038 32.2285 204.862 32.4504V34.8945C206.3 34.3095 206.841 32.9036 206.885 31.8631H224.761C224.944 31.8631 225.076 31.8169 225.166 31.7706V25.0674L224 26.427C224.498 27.0166 224.851 27.2016 225.124 28.5566H207.424C207.514 25.6594 206.166 24.1217 204.862 24.7992V27.1531C204.906 27.1531 204.998 27.1531 205.084 27.2016V27.1993ZM225.166 23.3494L225.214 23.391L226.787 22.08L225.214 20.4961L225.166 20.5423V23.3494ZM225.166 31.7683C225.663 31.544 225.841 31.0446 225.975 30.5475L226.784 31.9071H231.409C232.04 31.9071 232.581 31.0908 232.623 30.4619L233.61 31.9071H234.285V28.508L230.285 25.0674C229.929 24.7969 229.705 24.524 230.109 24.1633C231.365 23.3032 233.118 23.0326 234.468 22.85H234.556C234.604 22.85 234.604 22.8037 234.646 22.8037H234.736L235.636 20.4961C232.983 20.9054 229.707 21.5852 228.225 22.6696C227.143 23.6662 226.787 24.6188 227.732 25.5669L231.235 28.508H226.65C226.874 26.6513 226.606 25.5669 225.843 24.2997L225.168 25.0674V31.7706L225.166 31.7683Z" fill="#263B80"/>
<path fill-rule="evenodd" clip-rule="evenodd" d="M158.23 31.4053C155.761 31.6319 154.14 28.1913 157.599 24.8408C157.828 24.6189 158.006 24.4824 158.23 24.3414V26.6999C157.733 26.6999 157.467 27.2433 157.555 27.6525C157.735 28.0109 157.916 28.1474 158.23 28.1913V31.4053ZM158.23 34.4852C157.733 34.6702 157.106 34.7558 156.389 34.7142C154.997 34.5754 153.559 34.3488 152.706 33.5372C154.454 33.447 156.792 33.4933 158.23 32.0435V34.4876V34.4852ZM196.232 23.6176L194.62 25.7472C195.471 26.3345 195.832 27.2409 195.92 28.0549H181.949C181.905 25.2478 181.949 22.8037 180.916 20.54L179.253 22.487C180.018 24.0708 180.333 26.1542 180.333 28.1034H160.836C160.88 25.2039 159.578 23.6662 158.23 24.3414V26.6999C158.274 26.6999 158.364 26.6999 158.452 26.7461C158.905 26.9704 158.949 27.6942 158.857 28.3323C158.591 28.2838 158.41 28.2375 158.232 28.1936V31.4076C158.413 31.4076 158.591 31.366 158.771 31.2735C158.637 31.5926 158.413 31.8169 158.232 32.0435V34.4876C159.714 33.9026 160.253 32.4967 160.302 31.4539H179.165C179.931 31.366 180.199 30.8226 180.381 30.1405L180.781 31.4539H196.778C197.628 28.9659 198.126 25.3888 196.234 23.62L196.232 23.6176Z" fill="#263B80"/>
<path fill-rule="evenodd" clip-rule="evenodd" d="M243 28.0542V28.8265C242.956 29.911 242.775 31 242.507 31.9041H234.287V28.5051H241.252C241.159 27.6912 240.535 26.7432 239.677 26.1975L241.788 24.1604C242.602 25.2009 242.958 26.6484 243.002 28.0542H243ZM241.43 20.4932L239.899 21.7626L238.687 20.4932L237.025 21.8528L238.687 23.3904L240.123 22.1695L241.43 23.3904L242.953 22.0817L241.43 20.4932Z" fill="#03804C"/>
<path fill-rule="evenodd" clip-rule="evenodd" d="M125.685 37.3374C123.038 37.6565 120.7 38.1975 118.455 38.7432V44.6256L125.685 44.7181V37.3374ZM125.685 35.4367V36.9743C123.214 37.2449 120.788 37.7489 118.455 38.4264V36.8819C120.7 36.2992 123.038 35.802 125.685 35.439V35.4367ZM125.685 22.1713C123.172 21.6279 120.744 20.9065 118.455 19.9515V36.5697C120.79 35.8899 123.214 35.3951 125.685 35.076V22.1736V22.1713ZM125.685 20.2244V21.806C122.989 21.2187 120.656 20.4464 118.455 19.6324V18.0486C120.744 18.955 123.172 19.681 125.685 20.2244ZM118.455 11.3037V17.6878C120.659 18.5041 122.989 19.2764 125.685 19.8637V11.3037H118.455ZM125.685 21.806V20.2244C128.021 20.7238 130.446 21.036 132.874 21.1747V22.8049C132.738 22.8049 132.56 22.8049 132.382 22.7586C129.912 22.5783 127.709 22.2592 125.685 21.8083V21.806ZM125.685 36.972C128.065 36.7015 130.446 36.6136 132.874 36.7015V35.0714C130.227 35.0274 127.841 35.1638 125.685 35.4344V36.972ZM142.713 38.3779V43.9943C141.545 44.4452 140.153 44.762 138.488 44.8499L125.685 44.7181V37.3374C127.755 37.0622 130.044 36.9304 132.604 37.0206H132.877V40.0959C132.833 41.7746 133.281 42.859 135.795 42.6301C137.459 42.4521 139.615 41.0069 139.839 38.2877C139.839 38.105 139.839 37.9224 139.883 37.7883C140.828 37.9709 141.772 38.149 142.713 38.3779ZM142.713 36.387C141.813 36.2067 140.872 35.9755 139.927 35.7974C139.927 36.3385 139.927 36.8402 139.883 37.4275C140.828 37.5617 141.772 37.7883 142.713 38.0149V36.387ZM142.713 22.7563C141.457 22.9413 140.241 23.0315 138.983 23.1216C137.818 26.1068 135.21 26.8328 132.877 26.6085V23.1216C130.449 22.9852 128.023 22.6661 125.688 22.169V35.0714C128.023 34.7985 130.449 34.7106 132.877 34.7546V28.9115C137.908 28.8699 139.702 31.2215 139.883 35.4344C140.828 35.6147 141.772 35.7974 142.713 36.0217V28.9601C141.499 28.3705 140.061 27.9172 138.488 27.7369C140.061 27.3322 141.499 26.7403 142.713 25.8755V22.7517V22.7563ZM142.713 20.8117V22.3493C141.545 22.5297 140.334 22.6661 139.117 22.7563C139.3 22.2569 139.39 21.7643 139.476 21.1262C140.558 21.0822 141.633 20.9458 142.713 20.8117ZM125.685 19.8614V11.3037H138.086C140.019 11.4424 141.499 11.8494 142.713 12.4806V20.4071C141.679 20.5851 140.602 20.7215 139.527 20.7654C139.344 17.3711 138.895 13.5651 132.874 13.609V20.851H132.382C129.912 20.6221 127.709 20.3099 125.685 19.859V19.8614ZM142.713 22.3493V20.8117C143.927 20.6244 145.092 20.4464 146.306 20.1781C146.218 20.7215 146.126 21.2649 145.948 21.762C144.912 21.9886 143.834 22.2106 142.713 22.3493ZM142.713 25.8778V22.754C143.744 22.6176 144.778 22.4395 145.811 22.2106C145.182 23.7066 144.105 24.9321 142.713 25.8778ZM142.713 36.0217C144.285 36.387 145.858 36.8402 147.386 37.3351V35.8413C147.296 32.8077 145.541 30.3636 142.713 28.9601V36.0217ZM142.713 38.0125C144.193 38.3293 145.633 38.7409 147.069 39.238C147.203 38.7825 147.296 38.2854 147.337 37.7859C145.902 37.2888 144.329 36.7894 142.713 36.3847V38.0125ZM142.713 43.992C144.958 43.0394 146.306 41.4994 146.935 39.6889C145.587 39.1895 144.195 38.7386 142.713 38.3756V43.992ZM142.713 20.4047C143.971 20.2221 145.182 19.9955 146.306 19.7203C146.35 19.6278 146.35 19.5839 146.35 19.4937C146.484 16.8231 145.585 14.016 142.713 12.476V20.4024V20.4047Z" fill="#263B80"/>
<path fill-rule="evenodd" clip-rule="evenodd" d="M105.74 11.3037V18.6867H107.898L108.029 15.7409C107.849 14.6542 108.663 13.9744 111.042 14.0645H113.692V40.9144C113.826 42.1815 112.21 42.7688 110.591 42.5422L110.547 44.762H122.183V42.7272C120.43 42.6787 118.858 42.2717 118.904 41.185V38.6068C117.468 38.9721 116.076 39.3328 114.726 39.6936C116.076 39.1502 117.47 38.697 118.904 38.29V36.7477C117.556 37.1131 116.256 37.4299 114.994 37.7906C116.256 37.2934 117.556 36.8449 118.904 36.431V20.1319C117.514 19.5885 116.208 19.0012 114.994 18.3653C116.256 18.8208 117.556 19.318 118.904 19.7666V18.1873C117.514 17.6393 116.208 17.0543 114.994 16.4207C116.256 16.8716 117.556 17.3711 118.904 17.8682L118.86 14.0206H123.76C125.374 14.0206 126.046 14.6981 126.095 16.0138V18.5919H128.16V11.3037H105.743H105.74Z" fill="#03804C"/>
<path fill-rule="evenodd" clip-rule="evenodd" d="M67.4879 33.9638V33.5568C67.7631 33.3695 67.9851 33.1915 68.1631 33.0597C68.207 32.2411 68.2556 30.5231 68.2556 27.8941C68.2556 25.9472 68.207 24.5922 68.1631 23.7737C68.1192 23.3667 68.0729 23.0985 67.9828 23.006C67.8926 22.9158 67.4856 22.8233 66.8174 22.7794V22.0996H68.2995L69.4626 22.1482C69.8233 22.1482 70.3181 22.1482 70.9933 22.0996C71.3055 22.0996 71.6176 22.0996 71.8465 22.058V23.0083C71.7101 22.9644 71.5298 22.9644 71.398 22.9644C71.132 22.9644 70.8569 23.0083 70.5031 23.0522C70.4546 24.7749 70.4546 25.8154 70.4546 26.2223V26.9923H70.8546C71.2153 26.9923 71.576 26.9461 71.8442 26.8998V27.9427C71.6639 27.8964 71.4835 27.8964 71.2615 27.8964H70.4546V33.0157C70.7713 33.1059 71.0372 33.1059 71.3032 33.1059C71.4835 33.1059 71.6639 33.1059 71.8442 33.062V33.9661H71.3032C71.0812 33.9661 70.7713 33.9661 70.3158 33.9221H69.2846C69.0117 33.9221 68.3874 33.9221 67.4856 33.9661L67.4879 33.9638ZM71.8465 22.0557V23.006C72.2535 23.0499 72.5656 23.1887 72.7922 23.4153C73.1067 23.732 73.2385 24.1829 73.2385 24.8604C73.2385 25.5842 73.0651 26.1275 72.7044 26.4489C72.5217 26.6755 72.2119 26.8097 71.8488 26.8975V27.9403C72.1633 27.9403 72.3899 28.0305 72.6165 28.1669C72.931 28.3496 73.146 28.6225 73.3287 28.9832C73.5114 29.3439 73.6038 29.8456 73.6038 30.3844C73.6038 31.2931 73.4189 31.9683 73.0188 32.4238C72.7044 32.7868 72.346 33.0134 71.8512 33.0597V33.9638C72.7067 33.9198 73.4212 33.7349 73.9599 33.4666C74.5449 33.1499 75.0398 32.6943 75.449 32.107C75.8074 31.5197 75.9878 30.8862 75.9878 30.204C75.9878 29.6607 75.8999 29.1635 75.6756 28.7566C75.449 28.3057 75.1346 27.9843 74.7738 27.8085C74.3669 27.5796 73.7403 27.4478 72.7969 27.3507V27.2629C73.694 27.0848 74.4108 26.7195 74.9056 26.2686C75.4051 25.7668 75.6294 25.1795 75.6294 24.4095C75.6294 23.6858 75.4051 23.1008 74.9056 22.6915C74.4131 22.2846 73.5599 22.0603 72.4385 22.0603H71.8535L71.8465 22.0557Z" fill="#263B80"/>
<path fill-rule="evenodd" clip-rule="evenodd" d="M77.6878 33.964V33.601C77.9121 33.5108 78.0925 33.3698 78.3191 33.2403C78.363 32.0656 78.363 30.8864 78.363 29.6609V26.8538C78.3191 26.2665 78.3191 25.9058 78.2728 25.8133C78.2243 25.7648 78.2243 25.7208 78.1387 25.6769C78.0902 25.633 77.8243 25.633 77.2832 25.5844V25.041C78.0486 25.041 78.7654 25.0896 79.3943 25.0896C80.0232 25.0896 80.6082 25.041 81.147 25.041V25.5844C80.6082 25.5844 80.2961 25.6769 80.2521 25.7231C80.162 25.7648 80.162 25.8549 80.1157 25.9497C80.1157 26.0838 80.0718 26.766 80.0718 27.9845L80.0278 31.1107C80.0278 31.7003 80.0718 32.3362 80.0718 33.1038C80.5643 33.1501 80.9713 33.1501 81.1955 33.1501C81.9586 33.1501 82.5413 33.1038 83.0823 32.9674C83.1702 32.6044 83.2627 32.1535 83.3506 31.6078H83.8893C83.8014 32.2021 83.709 32.9674 83.665 33.8761C83.2627 33.9201 82.9459 33.964 82.6314 33.964L80.5204 33.9201H79.5793C79.1284 33.9201 78.4995 33.9201 77.6902 33.964H77.6878Z" fill="#263B80"/>
<path fill-rule="evenodd" clip-rule="evenodd" d="M84.515 25.584V25.0453C85.322 25.0453 86.0457 25.0915 86.6284 25.0915C86.9868 25.0915 87.5256 25.0453 88.2424 25.0453V25.584C87.884 25.584 87.6181 25.584 87.4816 25.6765C87.4377 25.6765 87.3891 25.7228 87.3452 25.7644C87.3013 25.8546 87.3013 25.9471 87.255 26.0812C87.255 26.3078 87.2134 26.9876 87.2134 28.1206V30.5207C87.2134 31.1543 87.255 31.6514 87.3891 31.9659C87.5232 32.2826 87.7499 32.5115 88.0204 32.6457C88.425 32.8723 88.8274 33.011 89.2759 33.011C89.9072 33.011 90.3997 32.8723 90.7165 32.6457C91.0749 32.4214 91.2969 32.1046 91.3893 31.7416C91.5211 31.3369 91.5651 30.4745 91.5651 29.1611V26.8072C91.5651 26.2638 91.5211 25.9447 91.4772 25.8523C91.4772 25.7621 91.4333 25.7205 91.3431 25.7205C91.2529 25.6303 90.9847 25.5817 90.4876 25.5817V25.043C91.0263 25.043 91.4772 25.0892 91.8795 25.0892C92.2402 25.0892 92.6888 25.043 93.2276 25.043V25.5817C92.8669 25.5817 92.5986 25.6303 92.5108 25.7205C92.4206 25.8129 92.3744 26.0372 92.3281 26.4465C92.3281 27.3968 92.2842 28.435 92.2842 29.6582C92.2842 30.4305 92.2842 30.93 92.2426 31.1519C92.194 31.7416 92.0599 32.2387 91.8819 32.6457C91.6576 33.0572 91.2968 33.418 90.7581 33.6862C90.2679 33.9613 89.6367 34.0538 88.8736 34.0538C88.1106 34.0538 87.4793 33.9613 86.9406 33.6862C86.4434 33.418 86.0434 33.1012 85.8168 32.7381C85.6365 32.3312 85.5023 31.7878 85.5023 31.0178L85.544 28.1668C85.544 27.9425 85.544 27.3483 85.5023 26.4003C85.5023 26.1297 85.4584 25.9471 85.4122 25.8129C85.4122 25.7644 85.3636 25.7205 85.2781 25.6765C85.2341 25.6326 84.9636 25.6326 84.5127 25.584H84.515Z" fill="#263B80"/>
<path fill-rule="evenodd" clip-rule="evenodd" d="M94.3113 33.964V33.601C94.4916 33.5108 94.7136 33.3698 94.8454 33.2403C94.9379 32.6021 94.9818 31.2009 94.9818 29.0736C94.9818 27.6261 94.9818 26.6758 94.9379 26.2203C94.9379 25.9497 94.894 25.8156 94.8454 25.7231C94.7575 25.6769 94.4893 25.633 93.9482 25.5844V25.041C94.8916 25.0896 95.6108 25.0896 96.1518 25.0896L99.3381 25.041C99.6965 25.041 100.013 25.0896 100.284 25.0896L100.325 25.1774C100.238 25.6306 100.15 26.2665 100.103 26.9879H99.6549C99.6549 26.3983 99.6109 26.0376 99.6109 26.0376C99.567 25.9937 99.4768 25.9474 99.3381 25.9058C99.0236 25.8133 98.5334 25.7648 97.8583 25.7648C97.4976 25.7648 97.1391 25.8133 96.6906 25.8133C96.6466 27.1267 96.6004 28.1649 96.6004 28.9372C97.049 28.9811 97.4097 28.9811 97.7658 28.9811C98.3068 28.9811 98.6675 28.9811 98.7577 28.9372C98.8456 28.9372 98.8918 28.8447 98.8918 28.7545C98.9335 28.6643 98.9335 28.3915 98.9797 27.9383H99.4768V30.7916H98.9797C98.9358 30.2482 98.9358 29.8852 98.8918 29.8413C98.8433 29.7488 98.8017 29.7488 98.7092 29.7048C98.5334 29.6586 98.0802 29.6586 97.4097 29.6586C97.1831 29.6586 96.9588 29.6586 96.6443 29.7048V30.3823C96.6443 31.5639 96.6443 32.5119 96.6883 33.1478L97.8559 33.1894C98.5311 33.1894 99.1138 33.1478 99.6526 33.0576C99.7427 32.6923 99.8329 32.2391 99.9185 31.7419H100.418C100.323 32.4657 100.281 33.1894 100.281 33.8738C99.9208 33.9178 99.5647 33.9617 99.2479 33.9617C99.0236 33.9617 98.619 33.9617 97.9924 33.9178H96.3715C95.7009 33.9178 95.0258 33.9178 94.309 33.9617L94.3113 33.964Z" fill="#263B80"/>
<path fill-rule="evenodd" clip-rule="evenodd" d="M11.2891 33.9205V33.1967C11.562 33.1967 11.8788 33.1967 12.1447 33.1065C12.2788 33.1065 12.4175 33.0626 12.4591 32.9678C12.5031 32.9262 12.5493 32.7874 12.5956 32.6048C12.6372 32.3828 12.6372 31.4764 12.6834 29.9318V23.1916C12.6834 23.1477 12.5031 23.1014 12.1447 23.1014C11.4695 23.1014 10.8891 23.1477 10.392 23.1916C10.1238 23.1916 9.94109 23.2332 9.94109 23.2818C9.89947 23.2818 9.85322 23.3257 9.85322 23.4182C9.80929 23.5084 9.76304 23.9616 9.7168 24.9119H9.09249C9.09249 23.8252 9.09249 22.8702 9 22.1002L9.09249 22.0586C10.6163 22.1465 12.1447 22.1465 13.5829 22.1465C15.0211 22.1465 16.6836 22.1465 18.4802 22.0586L18.5727 22.1904C18.4802 22.965 18.3901 23.8668 18.3438 24.9119H17.7634C17.7149 23.9593 17.6709 23.4621 17.627 23.3696C17.5831 23.3234 17.4929 23.2818 17.405 23.2332C16.9958 23.1916 16.235 23.1454 15.0697 23.1454C14.9332 23.1454 14.8893 23.1454 14.8893 23.1893C14.8408 23.2309 14.8408 23.3673 14.8408 23.6402L14.7922 29.2983C14.7922 30.977 14.7922 31.9712 14.8408 32.3342C14.8408 32.7412 14.9309 32.9678 15.0165 33.014C15.0674 33.1042 15.4674 33.1505 16.1402 33.1944V33.9181C15.4234 33.8719 14.6581 33.8719 13.8511 33.8719C12.8175 33.8719 11.962 33.8719 11.2891 33.9181V33.9205Z" fill="#03804C"/>
<path fill-rule="evenodd" clip-rule="evenodd" d="M19.5576 33.9203V33.5596C19.738 33.4694 19.916 33.3284 20.0941 33.1966C20.1866 32.5607 20.1866 31.1572 20.1866 29.0276V26.1766C20.138 25.9084 20.138 25.7673 20.0525 25.6794C20.0085 25.6355 19.738 25.587 19.2432 25.543V25.002C20.0941 25.0436 20.7739 25.0436 21.3126 25.0436L24.3209 25.002C24.6353 25.002 24.9498 25.0436 25.2227 25.0436V25.1361C25.1741 25.5846 25.0862 26.2205 25.04 26.9882H24.633C24.5891 26.3569 24.5891 26.0378 24.5452 25.9939C24.5452 25.9477 24.455 25.906 24.3186 25.8552C24.0041 25.765 23.5555 25.7234 22.9266 25.7234C22.6144 25.7234 22.2537 25.765 21.8491 25.765C21.8051 27.0853 21.7589 28.1235 21.7589 28.8889C22.1173 28.9374 22.5219 28.9374 22.8387 28.9374C23.3752 28.9374 23.6896 28.9374 23.7798 28.8889C23.8237 28.8889 23.87 28.8033 23.9139 28.7131C23.9139 28.6229 23.9578 28.3963 24.0041 27.8946H24.455V30.7479H24.0041C23.9602 30.2022 23.9139 29.8854 23.87 29.7953C23.87 29.7513 23.826 29.7074 23.7359 29.6565C23.5555 29.6149 23.1532 29.6149 22.4803 29.6149C22.3 29.6149 22.0757 29.6149 21.8051 29.6565C21.7612 29.8854 21.7612 30.112 21.7612 30.3386C21.7612 31.5641 21.8051 32.4682 21.8514 33.1018L22.9289 33.148C23.5601 33.148 24.0966 33.1018 24.6353 33.0116C24.7278 32.6463 24.818 32.2 24.9082 31.6982H25.3568C25.2666 32.4659 25.225 33.148 25.225 33.8232C24.8643 33.8718 24.5498 33.918 24.2353 33.918C24.0527 33.918 23.6549 33.918 23.0214 33.8718H21.493C20.908 33.8718 20.2351 33.8718 19.5623 33.918L19.5576 33.9203Z" fill="#263B80"/>
<path fill-rule="evenodd" clip-rule="evenodd" d="M33.3939 32.5149L33.528 32.6952C33.3939 32.8756 33.3476 33.1045 33.2597 33.3288C32.8089 33.604 32.4042 33.782 32.0481 33.8768C31.6412 33.9647 31.1926 34.0548 30.6562 34.0548C29.7104 34.0548 28.9035 33.8259 28.2283 33.4675C27.5554 33.0606 27.0606 32.5149 26.6999 31.7888C26.3415 31.1113 26.1611 30.2951 26.1611 29.3887C26.1611 28.0291 26.5612 26.9886 27.3751 26.1284C28.182 25.2729 29.3058 24.8613 30.6955 24.8613C31.1926 24.8613 31.6412 24.9099 32.1337 25.0001C32.5846 25.1365 33.0331 25.2729 33.5257 25.451V25.5411C33.4817 25.7631 33.4355 25.9943 33.3915 26.2186C33.3476 26.5816 33.3476 27.0348 33.3014 27.5782H32.8528C32.8042 26.9447 32.8042 26.5377 32.7626 26.4915C32.7626 26.4013 32.6285 26.3111 32.4481 26.1747C32.2678 25.9943 32.0435 25.8556 31.7267 25.7654C31.4099 25.6776 31.0978 25.6336 30.6931 25.6336C29.8446 25.6336 29.1208 25.9504 28.6283 26.54C28.0896 27.1759 27.8213 28.08 27.8213 29.1644C27.8213 30.3853 28.1358 31.3819 28.767 32.1079C29.3497 32.8317 30.159 33.1508 31.144 33.1508C31.5533 33.1508 31.9117 33.1045 32.2239 33.0143C32.5846 32.9242 32.9407 32.7415 33.3915 32.5149H33.3939Z" fill="#263B80"/>
<path fill-rule="evenodd" clip-rule="evenodd" d="M34.2449 33.9203V33.3746C34.742 33.3284 35.0102 33.3284 35.0541 33.2868C35.1443 33.1966 35.1906 33.1064 35.1906 32.9677C35.2322 32.7411 35.2322 32.1538 35.2322 31.2011V27.7165C35.2322 26.5396 35.2322 25.906 35.1906 25.8159C35.142 25.7234 35.142 25.6794 35.0958 25.6794C35.0079 25.587 34.7397 25.543 34.2449 25.543V25.002C34.9663 25.0436 35.5513 25.0436 35.9999 25.0436C36.675 25.0436 37.2993 25.0436 37.8404 25.002V25.543C37.3895 25.543 37.119 25.587 37.0774 25.6355C36.9849 25.6794 36.9849 25.7234 36.9409 25.7673C36.897 25.8575 36.897 26.0841 36.897 26.4934C36.8485 27.0876 36.8485 27.7189 36.8485 28.3524V28.8912H40.3099C40.3099 27.4899 40.266 26.5835 40.266 26.1303C40.222 25.9084 40.222 25.7234 40.1319 25.6794C40.0417 25.587 39.7735 25.543 39.2763 25.543V25.002C40.1781 25.0436 40.807 25.0436 41.1169 25.0436C41.7019 25.0436 42.2892 25.0436 42.9135 25.002V25.543C42.421 25.543 42.1505 25.587 42.0626 25.6355C42.0187 25.6794 42.0187 25.7234 41.9724 25.7673C41.9285 25.8575 41.9285 26.1766 41.8822 26.8101V31.9295C41.8822 32.5607 41.9262 32.9677 41.9262 33.0625C41.9701 33.1526 42.0163 33.1966 42.0603 33.2428C42.1504 33.2868 42.4187 33.3307 42.9112 33.3746V33.9203L42.2869 33.8741H41.2047C40.6683 33.8741 39.9977 33.8741 39.274 33.9203V33.3746C39.7711 33.3284 40.0394 33.2868 40.1295 33.2428C40.1781 33.1526 40.2197 33.0162 40.2637 32.7434C40.2637 32.2439 40.2637 31.2034 40.3076 29.6611C39.859 29.6611 39.4081 29.6195 38.9156 29.6195C38.1086 29.6195 37.4358 29.6611 36.8461 29.6611V30.0727C36.8461 31.2034 36.8461 32.0196 36.8947 32.5607C36.8947 32.9677 36.9386 33.1503 37.0288 33.2405C37.0774 33.2844 37.3456 33.3284 37.8381 33.3723V33.918L37.2069 33.8718H36.0854L34.2402 33.918L34.2449 33.9203Z" fill="#263B80"/>
<path fill-rule="evenodd" clip-rule="evenodd" d="M43.6351 33.9209V33.3752C44.086 33.3752 44.3565 33.329 44.4444 33.2874C44.486 33.2434 44.5346 33.1972 44.5346 33.107C44.5785 33.0168 44.6271 32.6515 44.6271 32.0203C44.6271 31.0237 44.671 30.2537 44.671 29.7566L44.6271 27.0397C44.6271 26.3136 44.6271 25.909 44.5785 25.8188C44.5785 25.7702 44.5346 25.7263 44.486 25.6824C44.3959 25.6384 44.1276 25.5899 43.6351 25.546V25.0049C44.2201 25.0049 44.671 25.0465 44.9392 25.0465C45.2537 25.0465 45.6144 25.0049 45.9728 25.0049C46.8237 26.2258 47.7694 27.583 48.8446 29.0328C49.5614 30.0317 50.1904 30.8433 50.6852 31.4815V28.945C50.6852 27.99 50.6852 27.1807 50.6366 26.4963C50.6366 26.087 50.595 25.8188 50.5488 25.7286C50.5488 25.6824 50.5048 25.6408 50.4586 25.6408C50.3684 25.5922 50.1418 25.5922 49.6493 25.5483V25.0072C50.0563 25.0072 50.4586 25.0488 50.8609 25.0488C51.402 25.0488 51.8945 25.0072 52.3454 25.0072V25.5483C51.9407 25.5483 51.6725 25.5922 51.58 25.6408C51.5361 25.6408 51.4898 25.6847 51.4898 25.7286C51.4459 25.7702 51.4459 25.8211 51.3997 25.8604C51.3997 25.9529 51.3581 26.3159 51.3581 26.8593V31.9324C51.3581 32.6538 51.358 33.3313 51.3997 34.0134L51.3095 34.1036C50.8586 34.0134 50.5465 33.9232 50.3684 33.9232C49.4227 32.6977 48.3059 31.204 46.9555 29.3473C46.2827 28.4409 45.7416 27.6732 45.293 27.0397V29.4814C45.293 30.1635 45.3369 30.9797 45.3369 31.9301C45.3369 32.6515 45.3855 33.0168 45.4294 33.151C45.4294 33.1949 45.4734 33.2411 45.5196 33.2411C45.5612 33.2851 45.8341 33.329 46.2827 33.3729V33.9186C45.6977 33.8724 45.2491 33.8724 45.0248 33.8724C44.8005 33.8724 44.3519 33.8724 43.6328 33.9186L43.6351 33.9209Z" fill="#263B80"/>
<path fill-rule="evenodd" clip-rule="evenodd" d="M57.2866 34.0565C55.9409 34.0565 54.9096 33.6496 54.1859 32.831C53.4691 32.0171 53.1084 30.9327 53.1084 29.5268C53.1084 28.5303 53.2888 27.7163 53.6472 26.9926C53.9639 26.3128 54.4611 25.8157 55.0854 25.4087C55.6704 25.0919 56.4334 24.9116 57.3791 24.863V25.5428H57.2866C56.5259 25.5428 55.8947 25.8573 55.4484 26.4492C55.0414 27.0851 54.8172 27.9846 54.8172 29.254C54.8172 30.1627 54.9096 30.9327 55.1756 31.5686C55.4022 32.2044 55.7143 32.6507 56.075 32.9258C56.4334 33.1941 56.8404 33.3305 57.3791 33.3305V34.0589H57.2866V34.0565ZM57.3791 24.8607V25.5405C58.1861 25.5821 58.8174 25.855 59.1758 26.4469C59.7145 27.1244 59.9388 28.1649 59.9388 29.5222C59.9388 30.7916 59.7145 31.7859 59.2659 32.3778C58.859 33.0114 58.2763 33.3259 57.5132 33.3259H57.3791V34.0542C58.23 34.0057 58.9954 33.823 59.6243 33.4184C60.2556 33.0576 60.7481 32.4657 61.1065 31.742C61.4649 31.0182 61.6476 30.202 61.6476 29.2054C61.6476 28.2089 61.4649 27.4851 61.1504 26.8955C60.8359 26.2666 60.3874 25.7648 59.7608 25.4041C59.1758 25.0388 58.4127 24.8584 57.467 24.8584H57.3768L57.3791 24.8607Z" fill="#263B80"/>
</svg>
