<svg width="132" height="55" viewBox="0 0 132 55" fill="none" xmlns="http://www.w3.org/2000/svg">
<rect width="132" height="55" fill="white"/>
<g clip-path="url(#clip0_14074_189927)">
<path d="M90.5801 20.6031C90.5809 20.4002 90.5172 20.331 90.3136 20.3349C89.7442 20.345 89.1748 20.3481 88.6053 20.3333C88.3645 20.3271 88.3319 20.4375 88.335 20.6388C88.3451 21.2087 88.3389 21.7785 88.3389 22.3483C88.3381 23.5011 88.3404 24.6532 88.3358 25.806C88.335 25.9319 88.408 26.1286 88.1781 26.1317C87.4602 26.1403 86.7424 26.1348 85.9563 26.1348C86.695 25.0022 86.9739 23.833 86.796 22.5636C86.6174 21.2911 86.0238 20.2463 85.066 19.3982C83.4804 17.9935 81.0489 17.7805 79.2054 18.8781C78.2258 19.4611 77.5064 20.2696 77.0729 21.3198C76.3901 22.9733 76.5742 24.57 77.5072 26.1107H74.9094C74.9544 26.0205 74.9777 25.9638 75.0088 25.9117C76.004 24.2326 76.0591 22.5061 75.1191 20.8122C74.1737 19.1106 72.6782 18.2034 70.7128 18.1832C66.9956 18.1443 64.4622 22.0816 66.0711 25.4204C67.0359 27.4229 68.6922 28.3791 70.9093 28.3783C75.8284 28.3767 80.7467 28.3783 85.6657 28.3783C87.193 28.3783 88.7211 28.3759 90.2484 28.3806C90.4504 28.3814 90.5832 28.3744 90.5816 28.1015C90.5723 25.6015 90.5747 23.1023 90.5801 20.6031ZM70.7726 26.1364C69.1039 26.1356 67.8703 24.8903 67.8734 23.2096C67.8765 21.5717 69.1257 20.2914 70.7136 20.2968C72.2929 20.303 73.5297 21.595 73.5281 23.2391C73.5266 24.8677 72.3201 26.1371 70.7726 26.1364ZM84.6115 23.3223C84.5618 24.9571 83.3274 26.176 81.7636 26.1356C80.126 26.0928 78.9203 24.8094 78.9576 23.1474C78.9941 21.5079 80.2774 20.2517 81.8692 20.2976C83.4455 20.3435 84.6612 21.6844 84.6115 23.3223Z" fill="#001E4C"/>
<path d="M34.1605 24.6091C34.2498 24.6806 34.3314 24.742 34.4098 24.8089C36.1127 26.261 37.8218 27.7053 39.5107 29.1738C39.7818 29.4093 39.9092 29.3494 40.1306 29.1349C43.8556 25.5303 47.8238 22.2148 52.0437 19.2041C52.7071 18.7307 53.3868 18.2813 54.0526 17.811C54.2049 17.7038 54.3059 17.6828 54.4371 17.8421C54.8155 18.3016 55.1985 18.7579 55.5985 19.1979C55.792 19.4109 55.6141 19.4824 55.496 19.5865C53.3837 21.4406 51.3624 23.3886 49.4233 25.423C46.2872 28.7151 43.3732 32.1946 40.6658 35.8467C40.4716 36.1086 40.38 36.1475 40.1485 35.8793C37.4854 32.7939 34.8099 29.7195 32.1375 26.6419C31.8206 26.2765 31.819 26.2765 32.1973 26.0029C32.7629 25.5932 33.3292 25.1851 33.8963 24.7778C33.9787 24.7187 34.0672 24.6682 34.1612 24.6091H34.1605Z" fill="#FE4F00"/>
<path d="M102.035 38.9117C101.714 38.6731 101.414 38.4057 101.091 38.167C100.907 38.031 100.855 37.9066 100.962 37.6843C101.268 37.0453 101.4 36.3612 101.428 35.3234C101.433 34.6448 101.164 33.7158 100.628 32.8584C99.2377 30.6367 96.4845 29.8749 94.0561 31.0464C91.8079 32.1316 90.6768 34.9083 91.5228 37.2676C92.6904 40.5232 96.5195 41.7203 99.3216 39.6953C99.5391 39.5383 99.6673 39.5639 99.8468 39.721C100.158 39.993 100.493 40.2387 100.803 40.5115C100.948 40.639 101.03 40.6258 101.144 40.4797C101.455 40.0824 101.769 39.6875 102.1 39.3066C102.257 39.1255 102.2 39.0345 102.035 38.9117ZM99.0792 36.2049C99.0023 36.5618 98.8936 36.519 98.6737 36.3278C98.3614 36.0565 98.0266 35.8116 97.7135 35.5411C97.5737 35.4198 97.4867 35.4214 97.3709 35.5683C97.0493 35.9733 96.7215 36.3744 96.3851 36.7678C96.2701 36.9015 96.2926 36.9706 96.4232 37.0748C96.8574 37.4192 97.2808 37.7783 97.7376 38.1553C96.6477 38.935 94.5253 38.6148 93.7461 36.9116C93.0042 35.29 93.8494 33.2782 95.5119 32.818C97.5877 32.2435 99.5329 34.0975 99.0792 36.2049Z" fill="#001E4C"/>
<path d="M82.3842 35.6217C82.3842 37.1492 82.3749 38.6775 82.392 40.205C82.3959 40.5191 82.2988 40.6031 81.9997 40.5898C81.5087 40.5681 81.0154 40.5689 80.5252 40.5898C80.2448 40.6015 80.1453 40.5308 80.1508 40.2284C80.1702 39.1673 80.1477 38.1046 80.1655 37.0435C80.171 36.7481 80.0848 36.6735 79.7958 36.6774C78.7089 36.6945 77.6213 36.696 76.5345 36.6766C76.2284 36.6712 76.1733 36.7769 76.1772 37.0544C76.1919 38.1163 76.1741 39.1781 76.1896 40.2393C76.1935 40.5113 76.1158 40.5992 75.8423 40.5891C75.3125 40.5696 74.7812 40.5743 74.2506 40.5875C74.0222 40.5937 73.9375 40.5378 73.9375 40.2874C73.946 37.1671 73.9453 34.0468 73.9383 30.9264C73.9383 30.6909 74.002 30.6093 74.2436 30.617C74.7734 30.6334 75.3048 30.6341 75.8354 30.617C76.101 30.6085 76.1935 30.6831 76.1896 30.963C76.1741 32.0116 76.195 33.0603 76.1764 34.109C76.171 34.4176 76.2292 34.5334 76.5703 34.5264C77.6439 34.5023 78.7183 34.5085 79.7927 34.5241C80.0762 34.528 80.1718 34.4611 80.1663 34.161C80.1469 33.1124 80.1725 32.0637 80.1508 31.0151C80.1438 30.6847 80.2471 30.5976 80.5648 30.6155C81.0418 30.6427 81.5227 30.6404 82.0005 30.6155C82.3034 30.5999 82.3951 30.687 82.392 30.9995C82.3757 32.5402 82.3842 34.081 82.3842 35.6217Z" fill="#001E4C"/>
<path d="M84.4196 35.5869C84.4196 34.0462 84.4258 32.5046 84.4141 30.9639C84.4118 30.6934 84.4879 30.6157 84.7598 30.6172C86.5846 30.6289 88.4095 30.6289 90.2343 30.6172C90.5124 30.6157 90.5854 30.7043 90.5754 30.9701C90.5559 31.4871 90.5559 32.0064 90.5754 32.5233C90.5854 32.7845 90.4953 32.8498 90.2452 32.8467C89.1584 32.8343 88.0708 32.8506 86.984 32.835C86.7066 32.8311 86.625 32.919 86.6414 33.1864C86.6623 33.5347 86.6577 33.886 86.6421 34.2351C86.632 34.4582 86.7128 34.525 86.9311 34.5227C87.746 34.5126 88.5617 34.5289 89.3774 34.5126C89.6524 34.5071 89.7363 34.5973 89.727 34.8663C89.7092 35.3708 89.7107 35.8769 89.727 36.3814C89.7348 36.62 89.6571 36.6939 89.4194 36.6908C88.6045 36.6783 87.7888 36.6946 86.9731 36.6806C86.7214 36.676 86.625 36.7413 86.6414 37.0048C86.6631 37.3531 86.66 37.7044 86.6421 38.0535C86.6297 38.3053 86.7082 38.3877 86.97 38.3839C88.0444 38.3691 89.1187 38.3893 90.1924 38.3706C90.5023 38.3652 90.5932 38.453 90.5777 38.7601C90.552 39.2638 90.5598 39.7699 90.5754 40.2744C90.5823 40.5037 90.5295 40.5923 90.2794 40.5908C88.4289 40.5815 86.5777 40.5799 84.7272 40.5923C84.4498 40.5939 84.4141 40.4835 84.4157 40.2503C84.4234 38.6964 84.4196 37.1424 84.4196 35.5885V35.5869Z" fill="#001E4B"/>
<path d="M111.875 40.1721C110.985 38.3453 110.097 36.5177 109.207 34.6909C108.545 33.3305 107.882 31.9717 107.177 30.5273C105.532 33.9104 103.925 37.2173 102.289 40.5833C103.063 40.5833 103.759 40.5787 104.455 40.5864C104.645 40.588 104.69 40.4535 104.749 40.3276C104.914 39.9762 105.079 39.6241 105.234 39.2688C105.304 39.1094 105.397 39.0325 105.585 39.034C106.646 39.0426 107.708 39.0426 108.77 39.034C108.954 39.0325 109.055 39.1017 109.126 39.2618C109.278 39.6046 109.452 39.9389 109.591 40.2871C109.68 40.5126 109.806 40.5989 110.052 40.5895C110.57 40.5701 111.088 40.5841 111.606 40.5841C112.078 40.5841 112.077 40.5841 111.875 40.1721ZM107.876 37.2259C107.412 37.2212 106.948 37.2212 106.483 37.2259C106.299 37.2274 106.256 37.166 106.334 36.995C106.61 36.4003 106.878 35.8018 107.178 35.1418C107.478 35.7994 107.749 36.3972 108.025 36.9919C108.101 37.1575 108.063 37.2274 107.876 37.2259Z" fill="#001E4C"/>
<path d="M70.2063 36.6946C70.2063 37.8723 70.1955 39.05 70.2141 40.227C70.2188 40.5278 70.1255 40.6009 69.842 40.5892C69.3386 40.5674 68.8329 40.5667 68.3295 40.5892C68.0381 40.6024 67.9612 40.513 67.9628 40.2215C67.9752 37.9058 67.9605 35.5892 67.9791 33.2734C67.9822 32.9042 67.8727 32.8148 67.5254 32.8327C66.9839 32.8607 66.4394 32.8311 65.8964 32.8443C65.6726 32.8498 65.5701 32.8024 65.5786 32.5489C65.5965 32.0063 65.591 31.4622 65.581 30.9188C65.5771 30.7144 65.6198 30.6164 65.8552 30.6172C68.0148 30.625 70.1745 30.6226 72.3341 30.6195C72.5051 30.6195 72.5975 30.6561 72.5944 30.8551C72.5851 31.4373 72.582 32.0196 72.5959 32.6018C72.6014 32.8342 72.4802 32.8443 72.3062 32.8428C71.7111 32.8373 71.116 32.8537 70.5217 32.835C70.2607 32.8265 70.1986 32.9143 70.2009 33.1638C70.2133 34.3415 70.2063 35.5185 70.2063 36.6962V36.6946Z" fill="#001E4C"/>
<path d="M38.22 41.9062C38.269 41.9988 38.2962 42.0951 38.3575 42.1589C38.7087 42.5204 39.0823 42.8609 39.4195 43.2348C39.6355 43.4742 39.7753 43.5278 40.0146 43.2503C40.3509 42.8601 40.7464 42.5204 41.1006 42.1449C41.249 41.9879 41.3422 41.9762 41.4968 42.1402C41.8876 42.553 42.29 42.9549 42.7017 43.3475C42.8555 43.4944 42.8268 43.5807 42.6908 43.716C41.7633 44.634 40.8411 45.5575 39.9237 46.4857C39.7799 46.6311 39.6992 46.6692 39.5306 46.4966C38.6193 45.5622 37.6949 44.641 36.7665 43.7237C36.6189 43.5776 36.584 43.4897 36.7549 43.3296C37.1689 42.9409 37.5628 42.5297 37.966 42.1286C38.0188 42.0757 38.0779 42.0306 38.22 41.907V41.9062Z" fill="#001E4C"/>
<path d="M24.0561 30.9351C23.9916 30.8845 23.9271 30.8433 23.8743 30.7905C22.9599 29.8747 22.0494 28.9551 21.132 28.0425C20.9541 27.866 20.9572 27.73 21.1343 27.5551C22.0448 26.6533 22.9514 25.7485 23.8494 24.8343C24.0087 24.6726 24.0996 24.6858 24.2472 24.8413C24.6395 25.2541 25.0419 25.6575 25.4528 26.0509C25.5911 26.1838 25.5849 26.2615 25.4513 26.3898C25.0411 26.7847 24.6527 27.2022 24.2363 27.5901C24.0537 27.7603 24.0755 27.8583 24.2441 28.0176C24.6387 28.3907 25.0038 28.7958 25.4023 29.165C25.5966 29.3454 25.5717 29.4495 25.3938 29.6167C25.0069 29.9797 24.6403 30.3637 24.265 30.7384C24.2013 30.8021 24.1337 30.862 24.0561 30.9343V30.9351Z" fill="#001E4C"/>
<path d="M50.3385 15.5858C50.3696 15.7117 50.2826 15.7389 50.1901 15.763C49.6028 15.9193 49.0124 16.0654 48.429 16.2372C48.2092 16.3025 48.1944 16.1789 48.1563 16.0343C48.0173 15.5088 47.8603 14.988 47.736 14.4594C47.6762 14.2052 47.5962 14.1212 47.3212 14.2083C46.8038 14.3723 46.2709 14.4851 45.7489 14.6359C45.5671 14.6887 45.4746 14.6926 45.4226 14.4703C45.289 13.9036 45.1313 13.3431 44.9736 12.7826C44.9238 12.6077 44.9588 12.5354 45.146 12.4864C46.4348 12.1506 47.7205 11.8031 49.0062 11.4557C49.1336 11.4215 49.2198 11.4059 49.2641 11.5723C49.6145 12.8985 49.9718 14.2231 50.3269 15.5485C50.33 15.5609 50.3339 15.5734 50.3385 15.5858Z" fill="#001E4C"/>
<path d="M30.3622 44.1843C30.1571 44.2092 30.1797 44.0172 30.147 43.899C29.8813 42.9265 29.6258 41.9517 29.3663 40.9777C29.2964 40.7157 29.2381 40.4491 29.1488 40.1933C29.068 39.9617 29.1426 39.873 29.3686 39.8186C29.9085 39.6896 30.4469 39.5504 30.9775 39.3903C31.2152 39.3188 31.2641 39.419 31.3123 39.6118C31.442 40.1389 31.6036 40.6589 31.7225 41.1883C31.7807 41.4472 31.8887 41.4814 32.1218 41.4114C32.6407 41.256 33.169 41.13 33.6895 40.9784C33.8953 40.9186 33.9886 40.9543 34.0414 41.179C34.1696 41.72 34.3218 42.2549 34.4718 42.7897C34.5192 42.9584 34.5331 43.0727 34.311 43.1302C33.0237 43.4652 31.7404 43.8127 30.4554 44.1563C30.4306 44.1633 30.4057 44.1711 30.3622 44.1835V44.1843Z" fill="#001E4C"/>
<path d="M24.6199 22.5863C24.4792 22.6011 24.4668 22.5 24.4443 22.4145C24.0986 21.1163 23.7552 19.8173 23.4064 18.5199C23.3559 18.3326 23.4282 18.2766 23.6006 18.2315C24.8622 17.9019 26.1223 17.5661 27.3792 17.2186C27.596 17.1588 27.6799 17.2101 27.7319 17.4207C27.8648 17.9602 28.0023 18.4989 28.1615 19.0307C28.2276 19.2506 28.1615 19.3261 27.9572 19.3766C27.4181 19.5103 26.8859 19.6712 26.346 19.7979C26.1262 19.8492 26.0811 19.9332 26.1433 20.1446C26.3002 20.6779 26.4385 21.2158 26.5752 21.7545C26.6001 21.8509 26.7212 22.0025 26.5496 22.053C25.9063 22.2435 25.2561 22.4122 24.6199 22.5855V22.5863Z" fill="#001E4C"/>
<path d="M34.5073 12.7132C34.3371 13.3452 34.174 13.9446 34.0155 14.5447C33.9689 14.7204 33.8601 14.6714 33.7436 14.6403C33.1944 14.4926 32.6413 14.3574 32.0959 14.198C31.8885 14.1374 31.7976 14.1661 31.744 14.3908C31.615 14.9318 31.4519 15.4643 31.3175 16.0038C31.2693 16.1974 31.2235 16.3 30.9834 16.2261C30.4396 16.0598 29.8881 15.9191 29.3365 15.7815C29.147 15.7341 29.0887 15.6711 29.1462 15.4635C29.495 14.205 29.8321 12.9433 30.1615 11.6793C30.2198 11.4547 30.2951 11.4018 30.5305 11.4679C31.7619 11.8138 32.9994 12.138 34.2338 12.473C34.3698 12.5096 34.5787 12.4932 34.5065 12.714L34.5073 12.7132Z" fill="#001E4C"/>
<path d="M45.6771 40.9592C46.158 41.0898 46.6995 41.2188 47.2277 41.3875C47.5431 41.4886 47.6783 41.4411 47.7459 41.089C47.843 40.5829 48.017 40.0924 48.1429 39.591C48.1887 39.4076 48.2392 39.3252 48.4536 39.3881C49.0106 39.5537 49.5731 39.7014 50.1363 39.8444C50.3165 39.8903 50.3507 39.9618 50.301 40.1437C49.9498 41.4147 49.6072 42.688 49.2724 43.9629C49.2219 44.1557 49.1551 44.2086 48.9524 44.1526C47.683 43.802 46.4097 43.4638 45.1364 43.1265C44.9718 43.0829 44.8987 43.0378 44.9578 42.8388C45.1232 42.2815 45.2592 41.7155 45.4122 41.1543C45.4402 41.0501 45.4441 40.9048 45.6787 40.9584L45.6771 40.9592Z" fill="#001E4C"/>
<path d="M24.6923 33.043C25.2881 33.2039 25.8855 33.3687 26.4845 33.5249C26.688 33.5778 26.615 33.7045 26.5824 33.8258C26.441 34.3497 26.312 34.8775 26.1551 35.3961C26.0797 35.6448 26.1093 35.7614 26.3913 35.8228C26.9079 35.9355 27.4128 36.1011 27.9263 36.2263C28.1407 36.2784 28.2332 36.3398 28.1563 36.5885C27.9892 37.1311 27.8494 37.6831 27.7104 38.2342C27.6653 38.4114 27.5969 38.4558 27.4128 38.4052C26.1434 38.0546 24.8725 37.7118 23.5992 37.3783C23.3957 37.3255 23.36 37.24 23.412 37.0503C23.7577 35.7785 24.0957 34.5052 24.4336 33.2319C24.4701 33.0943 24.5082 32.9753 24.6923 33.043Z" fill="#001E4C"/>
<path d="M51.9471 38.4312C51.8057 38.4686 51.7707 38.3807 51.742 38.2688C51.589 37.6803 51.4375 37.0919 51.2728 36.5065C51.2207 36.3223 51.3101 36.2896 51.4546 36.2531C51.9929 36.1147 52.5235 35.9452 53.0665 35.8286C53.3571 35.7657 53.3711 35.6397 53.2996 35.3995C53.1458 34.8787 53.0215 34.3493 52.8677 33.8285C52.8094 33.6302 52.8599 33.5541 53.0549 33.5059C53.6072 33.3691 54.158 33.226 54.7026 33.062C54.9116 32.999 54.9768 33.0667 55.0258 33.2532C55.3606 34.5297 55.7016 35.8053 56.045 37.0794C56.0831 37.2201 56.104 37.3235 55.9191 37.3717C54.607 37.7184 53.2957 38.0706 51.9844 38.4211C51.9719 38.4243 51.9595 38.4281 51.9471 38.4312Z" fill="#001E4C"/>
<path d="M42.8335 12.0624C42.8288 12.1798 42.7426 12.228 42.6812 12.2902C42.2889 12.6851 41.8873 13.0715 41.5051 13.4757C41.352 13.6374 41.2565 13.6382 41.1042 13.4757C40.7585 13.108 40.3802 12.7698 40.0438 12.3944C39.8193 12.1433 39.6678 12.0928 39.42 12.3781C39.0813 12.7683 38.6882 13.1103 38.3308 13.485C38.1933 13.6288 38.1071 13.642 37.9626 13.4897C37.5711 13.0761 37.1663 12.675 36.7569 12.2785C36.6194 12.1456 36.5899 12.0624 36.7445 11.9101C37.6853 10.9827 38.616 10.046 39.5458 9.10768C39.6663 8.98564 39.7447 8.94988 39.8861 9.09291C40.8222 10.0429 41.7677 10.9835 42.71 11.9272C42.755 11.9723 42.797 12.0212 42.8343 12.0609L42.8335 12.0624Z" fill="#001E4C"/>
<path d="M55.4051 30.9468C55.3313 30.8807 55.2723 30.8333 55.2187 30.7796C54.8163 30.3777 54.4193 29.9704 54.0099 29.5763C53.8685 29.4402 53.8553 29.3555 54.0068 29.2117C54.41 28.8292 54.7875 28.4203 55.1907 28.0386C55.3694 27.87 55.3935 27.7627 55.1969 27.5816C54.7891 27.2045 54.4123 26.7941 54.0115 26.4101C53.8662 26.2709 53.8623 26.187 54.013 26.0447C54.4255 25.6537 54.8256 25.2487 55.2179 24.8375C55.3539 24.6952 55.4378 24.6773 55.5861 24.8281C56.5106 25.768 57.4428 26.6992 58.3766 27.6297C58.4908 27.7432 58.5561 27.8202 58.4053 27.9695C57.4498 28.914 56.5028 29.8686 55.5527 30.8185C55.51 30.8612 55.4603 30.8978 55.4036 30.946L55.4051 30.9468Z" fill="#001E4C"/>
<path d="M90.7065 18.67C90.6389 18.6101 90.5791 18.5619 90.5247 18.5083C90.2311 18.216 89.9312 17.9307 89.6507 17.626C89.4985 17.4604 89.3967 17.4713 89.2491 17.6299C88.9671 17.9323 88.6603 18.2121 88.3775 18.5137C88.24 18.6607 88.1475 18.67 88.0054 18.5176C87.7148 18.2051 87.4118 17.9035 87.1011 17.6112C86.9628 17.4814 86.9698 17.4013 87.1011 17.2707C87.8282 16.5525 88.5507 15.8295 89.2662 15.1003C89.4084 14.955 89.493 14.9565 89.636 15.1027C90.3414 15.8241 91.0561 16.5369 91.7723 17.2466C91.9013 17.3741 91.9627 17.4643 91.7964 17.619C91.4833 17.909 91.1912 18.2207 90.8883 18.5215C90.8347 18.5744 90.771 18.6171 90.7057 18.67H90.7065Z" fill="#001E4C"/>
<path d="M83.0268 17.4117C82.9802 17.3759 82.9274 17.3433 82.8847 17.3013C82.5545 16.974 82.2306 16.6406 81.895 16.3187C81.7831 16.2115 81.7862 16.1485 81.8973 16.0428C82.2243 15.731 82.5444 15.4115 82.8567 15.0858C82.9841 14.9529 83.068 14.9482 83.1985 15.0858C83.5085 15.4147 83.8324 15.7295 84.1548 16.0459C84.238 16.1275 84.2884 16.1889 84.1805 16.2946C83.8293 16.6367 83.4852 16.9873 83.1379 17.3332C83.1115 17.3596 83.0758 17.3775 83.0268 17.4117Z" fill="#011F4C"/>
<path d="M69.4001 14.9531C69.4521 14.9951 69.5034 15.0285 69.5469 15.0713C69.8778 15.3993 70.2018 15.7336 70.5389 16.0546C70.6578 16.1681 70.6322 16.2296 70.5273 16.3298C70.201 16.6439 69.8778 16.9611 69.5679 17.2907C69.4288 17.4384 69.3418 17.3948 69.2237 17.2728C68.9277 16.9657 68.6232 16.6664 68.321 16.3656C68.2255 16.2708 68.1338 16.1907 68.2783 16.0508C68.6139 15.7282 68.9378 15.3931 69.2672 15.0643C69.303 15.0285 69.3449 14.999 69.4001 14.9531Z" fill="#011F4C"/>
<path d="M81.7604 16.1857C81.3859 16.5581 81.0216 16.9063 80.6751 17.2701C80.5345 17.4178 80.446 17.4201 80.3061 17.2701C80.0156 16.9592 79.7134 16.6576 79.4026 16.366C79.2496 16.2222 79.2714 16.1297 79.412 15.9968C79.7212 15.7045 80.0218 15.4013 80.3154 15.0927C80.439 14.9629 80.5236 14.9466 80.6573 15.0865C81.0131 15.4573 81.3836 15.8126 81.7596 16.1841L81.7604 16.1857Z" fill="#001E4C"/>
<path d="M70.6719 16.1799C71.0518 15.8068 71.4239 15.4523 71.7812 15.0838C71.9172 14.9431 72.0019 14.9672 72.1238 15.0947C72.4268 15.4119 72.7375 15.7221 73.0529 16.0276C73.1671 16.1379 73.1928 16.2133 73.0623 16.3369C72.7437 16.6386 72.4346 16.9503 72.1331 17.2698C71.9949 17.4159 71.9047 17.4175 71.7634 17.2682C71.4169 16.9036 71.0525 16.5569 70.6726 16.1807L70.6719 16.1799Z" fill="#001E4C"/>
</g>
<defs>
<clipPath id="clip0_14074_189927">
<rect width="91" height="37.6089" fill="white" transform="translate(21 9)"/>
</clipPath>
</defs>
</svg>
