<svg width="42" height="27" viewBox="0 0 42 27" fill="none" xmlns="http://www.w3.org/2000/svg">
<g id="Mask group">
<g id="Group 1000005389">
<path id="Vector" d="M9.63408 24.0632L14.4615 2.71135C14.7788 1.31431 16.5474 0.181946 17.9532 0.1539L8.58936 0.150391C7.17654 0.150391 5.36406 1.29502 5.03977 2.7096L0.212343 24.0614C0.182544 24.1912 0.166767 24.3191 0.15625 24.4436V24.8397C0.250906 25.8599 1.02918 26.6031 2.14927 26.6189H11.5693C10.1792 26.5979 9.31155 25.4585 9.63057 24.0597L9.63408 24.0632Z" fill="#ED1C24"/>
<path id="Vector_2" d="M21.0263 24.0626L25.8519 2.71077C26.1692 1.32424 27.9151 0.200646 29.3174 0.156824H25.2612L17.9517 0.15332C16.5459 0.181366 14.7772 1.31373 14.46 2.71077L9.63253 24.0626C9.31351 25.4614 10.1794 26.6008 11.5712 26.6218H22.9667C21.5749 26.6008 20.7107 25.4614 21.028 24.0626H21.0263Z" fill="#0072BC"/>
<path id="Vector_3" d="M39.5506 0.159958H29.3471L29.3453 0.158203C29.3383 0.158203 29.3295 0.158203 29.3225 0.158203C27.9202 0.202025 26.1744 1.32562 25.8571 2.71215L21.0314 24.064C20.7141 25.4628 21.5783 26.6022 22.9701 26.6232H33.689C35.0597 26.5548 36.3901 25.4435 36.7039 24.0728L41.5296 2.72091C41.8521 1.30809 40.9669 0.159958 39.5523 0.159958H39.5506Z" fill="#009DA5"/>
<path id="Vector_4" d="M18.1492 15.7126H18.3262C18.4892 15.7126 18.5979 15.6582 18.6505 15.5496L19.1115 14.8607H20.3455L20.0879 15.3147H21.5673L21.3797 16.0088H19.6198C19.4165 16.3138 19.1676 16.4575 18.8679 16.44H17.9511L18.1509 15.7126M17.9476 16.7065H21.1869L20.9801 17.4602H19.6777L19.4796 18.1876H20.7469L20.5401 18.9414H19.2728L18.9783 20.0177C18.9047 20.1982 19.0011 20.2788 19.264 20.2596H20.2964L20.1054 20.9607H18.1211C17.746 20.9607 17.6163 20.7451 17.7337 20.3139L18.1106 18.9414H17.3008L17.5059 18.1876H18.3157L18.5138 17.4602H17.739L17.9441 16.7065H17.9476ZM23.1168 14.8554L23.066 15.2971C23.066 15.2971 23.6778 14.8379 24.2317 14.8379H26.2825L25.499 17.6775C25.4341 18.0018 25.1554 18.1631 24.6629 18.1631H22.3386L21.7934 20.1561C21.7619 20.2631 21.8057 20.3174 21.9231 20.3174H22.3806L22.2123 20.9362H21.0502C20.6032 20.9362 20.4191 20.8012 20.4928 20.533L22.0318 14.8554H23.1186H23.1168ZM24.8539 15.6565H23.0239L22.8048 16.4225C22.8048 16.4225 23.1098 16.2016 23.6199 16.1946C24.1283 16.1876 24.7085 16.1946 24.7085 16.1946L24.8557 15.6565H24.8539ZM24.1914 17.4339C24.3263 17.4514 24.4017 17.3988 24.4122 17.2726L24.5244 16.8695H22.6909L22.5366 17.4357H24.1914V17.4339ZM22.9538 18.3507H24.0108L23.9915 18.8082H24.2737C24.4157 18.8082 24.4858 18.7626 24.4858 18.6732L24.57 18.377H25.4482L25.3307 18.8082C25.2308 19.1675 24.9679 19.3551 24.5419 19.3743H23.9793V20.1561C23.967 20.2806 24.0792 20.3454 24.3123 20.3454H24.8417L24.6716 20.9642H23.4026C23.0467 20.9817 22.8732 20.8117 22.8767 20.4524L22.9573 18.3524L22.9538 18.3507Z" fill="white"/>
<path id="Vector_5" d="M27.4455 15.7419L27.6909 14.8795H28.9302L28.8776 15.1968C28.8776 15.1968 29.5104 14.8795 29.9662 14.8795H31.4982L31.2545 15.7419H31.0144L29.8592 19.8086H30.0994L29.8698 20.6167H29.6296L29.5297 20.9673H28.329L28.4289 20.6167H26.0625L26.2939 19.8086H26.5305L27.6874 15.7419H27.4473M28.783 15.7419L28.4675 16.8428C28.4675 16.8428 29.0073 16.6359 29.4719 16.5763C29.5753 16.1924 29.7085 15.7419 29.7085 15.7419H28.783ZM28.322 17.3599L28.0047 18.5133C28.0047 18.5133 28.6024 18.2188 29.0126 18.1942C29.1318 17.749 29.2492 17.3599 29.2492 17.3599H28.3202H28.322ZM28.5533 19.8104L28.79 18.9743H27.8645L27.6261 19.8104H28.5516H28.5533ZM31.5508 14.8269H32.7147L32.7638 15.2564C32.7568 15.3651 32.8216 15.4177 32.9601 15.4177H33.1652L32.9566 16.1451H32.1012C31.7734 16.1626 31.6069 16.0364 31.5911 15.7665L31.5508 14.8252V14.8269ZM31.209 16.3888H34.9811L34.7603 17.1706H33.5596L33.3545 17.898H34.5552L34.3326 18.678H32.9969L32.6954 19.1355H33.3492L33.5 20.0505C33.5175 20.1417 33.5981 20.1855 33.7366 20.1855H33.9399L33.7261 20.9392H33.0074C32.6341 20.9568 32.4412 20.8323 32.4255 20.5624L32.2519 19.7262L31.6559 20.6167C31.5157 20.8674 31.2984 20.9848 31.0074 20.9673H29.9083L30.1222 20.2136H30.4657C30.606 20.2136 30.7234 20.1504 30.8286 20.0242L31.7594 18.6763H30.5586L30.7813 17.8962H32.0836L32.2905 17.1688H30.9863L31.209 16.387V16.3888Z" fill="white"/>
<path id="Vector_6" d="M10.1529 11.0725C10.0092 11.7754 9.67789 12.3136 9.16254 12.6974C8.65245 13.0743 7.99336 13.2636 7.18704 13.2636C6.42804 13.2636 5.87238 13.0708 5.51655 12.6834C5.27115 12.4082 5.14844 12.0594 5.14844 11.637C5.14844 11.4617 5.16947 11.2741 5.21154 11.0725L6.07045 6.93047H7.36759L6.52095 11.0269C6.49465 11.1409 6.48413 11.2461 6.48589 11.3407C6.48589 11.5511 6.53672 11.7228 6.6419 11.8561C6.79615 12.0559 7.04505 12.1541 7.39212 12.1541C7.79178 12.1541 8.11958 12.0559 8.3755 11.8596C8.63142 11.665 8.79794 11.3863 8.87331 11.0252L9.72346 6.92871H11.0153L10.1547 11.0708" fill="white"/>
<path id="Vector_7" d="M11.3462 9.44153H12.2629L12.1577 9.97616L12.2892 9.82366C12.5854 9.50639 12.9465 9.34863 13.3725 9.34863C13.7581 9.34863 14.0368 9.46081 14.2104 9.68518C14.3822 9.9113 14.4295 10.2216 14.3471 10.6212L13.8423 13.1401H12.901L13.3567 10.8561C13.404 10.6195 13.39 10.4442 13.3181 10.3302C13.2463 10.2163 13.1096 10.1602 12.9132 10.1602C12.6713 10.1602 12.4662 10.2356 12.3015 10.3863C12.135 10.5371 12.0245 10.7474 11.9702 11.0139L11.5495 13.1384H10.6064L11.3462 9.43803" fill="white"/>
<path id="Vector_8" d="M21.8567 9.44153H22.7735L22.67 9.97616L22.7998 9.82366C23.0977 9.50639 23.4588 9.34863 23.883 9.34863C24.2687 9.34863 24.5474 9.46081 24.7209 9.68518C24.8909 9.9113 24.9418 10.2216 24.8576 10.6212L24.3546 13.1401H23.4115L23.8672 10.8561C23.9146 10.6195 23.9006 10.4442 23.8287 10.3302C23.7551 10.2163 23.6201 10.1602 23.4238 10.1602C23.1819 10.1602 22.9785 10.2356 22.8103 10.3863C22.6437 10.5371 22.5333 10.7474 22.4807 11.0139L22.0583 13.1384H21.1152L21.8549 9.43803" fill="white"/>
<path id="Vector_9" d="M15.6027 9.44387H16.6193L15.8235 13.1407H14.8086L15.6027 9.44387ZM15.9217 8.09766H16.9471L16.7561 8.99513H15.7306L15.9217 8.09766Z" fill="white"/>
<path id="Vector_10" d="M17.5166 12.8596C17.2502 12.6055 17.117 12.2637 17.1152 11.8272C17.1152 11.7536 17.1205 11.6677 17.1292 11.5765C17.1398 11.4819 17.152 11.3907 17.1696 11.3066C17.2905 10.7054 17.5464 10.2286 17.9426 9.878C18.337 9.52567 18.8138 9.34863 19.3712 9.34863C19.8269 9.34863 20.1898 9.47659 20.4545 9.73251C20.7192 9.98843 20.8524 10.3355 20.8524 10.7755C20.8524 10.8508 20.8471 10.9385 20.8366 11.0314C20.8243 11.126 20.8103 11.2172 20.7945 11.3084C20.6771 11.8991 20.4212 12.3706 20.025 12.7159C19.6289 13.063 19.1556 13.2365 18.6017 13.2365C18.1424 13.2365 17.7813 13.1121 17.5166 12.8596ZM19.4536 12.1269C19.6324 11.9324 19.7603 11.6379 19.8392 11.247C19.8515 11.1856 19.862 11.1225 19.8672 11.0577C19.8743 10.9946 19.876 10.9367 19.876 10.8824C19.876 10.6545 19.8182 10.4775 19.7007 10.353C19.585 10.2268 19.4203 10.1637 19.2064 10.1637C18.9242 10.1637 18.6963 10.2619 18.5158 10.46C18.3352 10.658 18.2055 10.9578 18.1249 11.3557C18.1144 11.417 18.1056 11.4784 18.0968 11.538C18.0898 11.5993 18.0881 11.6572 18.0898 11.708C18.0898 11.9341 18.1477 12.1094 18.2651 12.2339C18.3808 12.3583 18.5456 12.4197 18.7612 12.4197C19.0434 12.4197 19.273 12.3215 19.4518 12.1269" fill="white"/>
<path id="Vector_11" d="M26.3905 7.14824H29.0531C29.5649 7.14824 29.9611 7.26393 30.2328 7.4918C30.5045 7.72318 30.6395 8.05272 30.6395 8.48393V8.4962C30.6395 8.57859 30.6342 8.67149 30.6254 8.7714C30.6132 8.86956 30.5956 8.97124 30.5728 9.07466C30.4554 9.6461 30.1837 10.1036 29.763 10.4524C29.3406 10.7995 28.841 10.973 28.2643 10.973H26.8357L26.394 13.1396H25.1582L26.3887 7.14648M27.0566 9.93356H28.2415C28.55 9.93356 28.7954 9.8617 28.9742 9.71972C29.1513 9.57598 29.2687 9.35687 29.3336 9.06063C29.3441 9.00629 29.3511 8.95722 29.3581 8.91164C29.3616 8.86782 29.3669 8.82574 29.3669 8.78367C29.3669 8.57158 29.2915 8.41733 29.1407 8.32092C28.99 8.22276 28.7534 8.17718 28.4238 8.17718H27.4177L27.0566 9.93532V9.93356Z" fill="white"/>
<path id="Vector_12" d="M36.1755 13.8573C35.7846 14.6882 35.413 15.1737 35.1939 15.3981C34.9748 15.6207 34.5418 16.1396 33.4971 16.101L33.5865 15.4665C34.4664 15.1948 34.9415 13.9748 35.2131 13.4349L34.8906 9.45407L35.5707 9.44531H36.1404L36.2018 11.9432L37.271 9.44531H38.3543L36.1772 13.8591" fill="white"/>
<path id="Vector_13" d="M33.148 9.74478L32.7186 10.041C32.2698 9.68867 31.8579 9.47132 31.0674 9.83943C29.9893 10.339 29.0866 14.176 32.0577 12.9122L32.2278 13.1121L33.397 13.1418L34.1647 9.65538L33.1515 9.74478M32.4837 11.6502C32.2961 12.2041 31.8772 12.5704 31.5477 12.4652C31.2199 12.3636 31.1024 11.8289 31.2917 11.275C31.4793 10.7194 31.9017 10.3548 32.2278 10.4599C32.5556 10.5616 32.6747 11.0962 32.4837 11.6502Z" fill="white"/>
</g>
</g>
</svg>
