<svg width="29" height="34" viewBox="0 0 29 34" fill="none" xmlns="http://www.w3.org/2000/svg">
<path d="M22.4969 21.8289C24.0196 20.297 25.0566 18.3452 25.4766 16.2205C25.8967 14.0957 25.681 11.8933 24.8568 9.89189C24.0326 7.89044 22.6369 6.17978 20.8463 4.97623C19.0557 3.77267 16.9504 3.13028 14.7969 3.13028C12.6433 3.13028 10.5381 3.77267 8.74745 4.97623C6.95681 6.17978 5.56115 7.89044 4.73696 9.89189C3.91278 11.8933 3.69708 14.0957 4.11714 16.2205C4.5372 18.3452 5.57415 20.297 7.09688 21.8289L14.7969 29.5747L22.4969 21.8289ZM14.7969 34L4.89732 24.0416C2.93941 22.072 1.60605 19.5626 1.06587 16.8307C0.525696 14.0988 0.802952 11.2672 1.86258 8.69379C2.92222 6.12042 4.71663 3.92093 7.01891 2.37345C9.3212 0.825965 12.0279 0 14.7969 0C17.5658 0 20.2726 0.825965 22.5748 2.37345C24.8771 3.92093 26.6715 6.12042 27.7312 8.69379C28.7908 11.2672 29.0681 14.0988 28.5279 16.8307C27.9877 19.5626 26.6543 22.072 24.6964 24.0416L14.7969 34ZM16.3524 14.0831H22.5746V17.2128H13.2413V6.25911H16.3524V14.0831Z" fill="black"/>
</svg>
