<svg width="58" height="20" viewBox="0 0 58 20" fill="none" xmlns="http://www.w3.org/2000/svg">
<g id="Mask group">
<g id="Group">
<path id="Vector" d="M38.1053 0.603516C33.5262 0.603516 30.3097 3.07368 30.2813 6.60575C30.2523 9.22238 32.5816 10.6814 34.3335 11.5511C36.1409 12.4401 36.7446 13.0114 36.7386 13.8068C36.7207 15.026 35.2924 15.5814 33.9652 15.5814C32.1148 15.5814 31.1284 15.3072 29.6121 14.6306L29.0109 14.3406L28.3633 18.4115C29.4459 18.9181 31.4451 19.357 33.5234 19.38C38.3826 19.38 41.5441 16.9382 41.5817 13.1679C41.6008 11.0926 40.3645 9.52187 37.6913 8.22506C36.0775 7.3819 35.0797 6.82281 35.0946 5.96847C35.0958 5.21358 35.9319 4.40454 37.7468 4.40454C39.2626 4.37865 40.3527 4.73169 41.211 5.10354L41.6238 5.31254L42.2535 1.36905C41.3389 1.00244 39.8955 0.603619 38.105 0.603619L38.1053 0.603516ZM23.7305 0.92078L20.8343 19.111H25.4616L28.3594 0.920573H23.7311L23.7305 0.92078ZM16.9515 0.93843L12.4204 13.3357L11.9373 10.8166C10.809 7.72767 8.36622 4.48749 5.52148 3.1743L9.6663 19.0937L14.5661 19.0913L21.8525 0.938567L16.9515 0.93843ZM50.5497 0.939607C49.441 0.939607 48.6102 1.26027 48.1208 2.44941L41.2495 19.117H46.1111C46.1111 19.117 46.906 16.8735 47.0857 16.3823C47.6163 16.3823 52.3381 16.3927 53.0118 16.3927C53.1551 17.027 53.5755 19.1168 53.5755 19.1168H57.874L54.1259 0.939617L50.5497 0.939607ZM50.8768 5.84369L51.1852 7.41185C51.1852 7.41185 52.0747 11.752 52.2603 12.6611H48.4176C48.8021 11.6173 50.2616 7.57654 50.2616 7.57654C50.2332 7.62596 50.6413 6.52446 50.8768 5.84369Z" fill="#00579F"/>
<path id="Vector_2" d="M8.22007 0.928752H0.754427L0.710938 1.24177C6.51535 2.74807 10.3447 6.44707 11.9392 10.8212L10.3168 2.4609C10.0379 1.31115 9.22555 0.969356 8.22007 0.928752Z" fill="#FAA61A"/>
</g>
</g>
</svg>
