<svg width="27" height="27" viewBox="0 0 27 27" fill="none" xmlns="http://www.w3.org/2000/svg">
<path d="M27 13.5C27 20.9558 20.9558 27 13.5 27C6.04416 27 0 20.9558 0 13.5C0 6.04416 6.04416 0 13.5 0C20.9558 0 27 6.04416 27 13.5Z" fill="#3A3A3A"/>
<path d="M7.33666 20.3333L8.23799 17.0213C7.64408 16.0032 7.33206 14.8453 7.33399 13.6667C7.33399 9.98467 10.3187 7 14.0007 7C17.6827 7 20.6673 9.98467 20.6673 13.6667C20.6673 17.3487 17.6827 20.3333 14.0007 20.3333C12.8225 20.3352 11.6651 20.0234 10.6473 19.43L7.33666 20.3333ZM11.5947 10.5387C11.5086 10.544 11.4244 10.5667 11.3473 10.6053C11.275 10.6463 11.209 10.6975 11.1513 10.7573C11.0713 10.8327 11.026 10.898 10.9773 10.9613C10.7309 11.282 10.5984 11.6756 10.6007 12.08C10.602 12.4067 10.6873 12.7247 10.8207 13.022C11.0933 13.6233 11.542 14.26 12.1347 14.85C12.2773 14.992 12.4167 15.1347 12.5667 15.2673C13.3023 15.915 14.1788 16.382 15.1267 16.6313L15.506 16.6893C15.6293 16.696 15.7527 16.6867 15.8767 16.6807C16.0708 16.6706 16.2604 16.6181 16.432 16.5267C16.5427 16.468 16.5947 16.4387 16.6873 16.38C16.6873 16.38 16.716 16.3613 16.7707 16.32C16.8607 16.2533 16.916 16.206 16.9907 16.128C17.046 16.0707 17.094 16.0033 17.1307 15.9267C17.1827 15.818 17.2347 15.6107 17.256 15.438C17.272 15.306 17.2673 15.234 17.2653 15.1893C17.2627 15.118 17.2033 15.044 17.1387 15.0127L16.7507 14.8387C16.7507 14.8387 16.1707 14.586 15.8167 14.4247C15.7793 14.4084 15.7393 14.3991 15.6987 14.3973C15.653 14.3926 15.607 14.3978 15.5635 14.4124C15.52 14.427 15.4802 14.4507 15.4467 14.482V14.4807C15.4433 14.4807 15.3987 14.5187 14.9167 15.1027C14.889 15.1398 14.8509 15.1679 14.8072 15.1834C14.7635 15.1988 14.7162 15.2009 14.6713 15.1893C14.6279 15.1777 14.5853 15.163 14.544 15.1453C14.4613 15.1107 14.4327 15.0973 14.376 15.0727L14.3727 15.0713C13.9913 14.9048 13.6381 14.6799 13.326 14.4047C13.242 14.3313 13.164 14.2513 13.084 14.174C12.8217 13.9228 12.5931 13.6387 12.404 13.3287L12.3647 13.2653C12.3364 13.2228 12.3136 13.1769 12.2967 13.1287C12.2713 13.0307 12.3373 12.952 12.3373 12.952C12.3373 12.952 12.4993 12.7747 12.5747 12.6787C12.6374 12.5989 12.6959 12.5159 12.75 12.43C12.8287 12.3033 12.8533 12.1733 12.812 12.0727C12.6253 11.6167 12.432 11.1627 12.2333 10.712C12.194 10.6227 12.0773 10.5587 11.9713 10.546C11.9353 10.542 11.8993 10.538 11.8633 10.5353C11.7738 10.5309 11.6841 10.5324 11.5947 10.5387Z" fill="white"/>
</svg>
