<svg width="27" height="27" viewBox="0 0 27 27" fill="none" xmlns="http://www.w3.org/2000/svg">
<circle cx="13.5" cy="13.5" r="13.5" fill="#3A3A3A"/>
<path d="M20.0287 9.66533C20.3333 10.8533 20.3333 13.3333 20.3333 13.3333C20.3333 13.3333 20.3333 15.8133 20.0287 17.0013C19.8593 17.658 19.364 18.1747 18.7367 18.3493C17.5973 18.6667 13.6667 18.6667 13.6667 18.6667C13.6667 18.6667 9.738 18.6667 8.59667 18.3493C7.96667 18.172 7.472 17.656 7.30467 17.0013C7 15.8133 7 13.3333 7 13.3333C7 13.3333 7 10.8533 7.30467 9.66533C7.474 9.00867 7.96933 8.492 8.59667 8.31733C9.738 8 13.6667 8 13.6667 8C13.6667 8 17.5973 8 18.7367 8.31733C19.3667 8.49467 19.8613 9.01067 20.0287 9.66533ZM12.3333 15.6667L16.3333 13.3333L12.3333 11V15.6667Z" fill="white"/>
</svg>
